<svg width="113" height="28" viewBox="0 0 113 28" fill="none" xmlns="http://www.w3.org/2000/svg">
<path d="M10.5234 1.58203C11.5781 1.72266 12.4688 1.79297 13.1953 1.79297C13.5938 1.79297 13.957 1.78125 14.2852 1.75781C14.6133 1.73438 15.0234 1.69922 15.5156 1.65234C15.9375 1.60547 16.4648 1.55859 17.0977 1.51172C17.7305 1.46484 18.4688 1.38281 19.3125 1.26562C19.0078 1.5 18.7734 1.76953 18.6094 2.07422C18.4453 2.37891 18.3164 2.67188 18.2227 2.95312C18.1289 3.28125 18.0586 3.62109 18.0117 3.97266C17.9883 4.18359 17.9766 4.61719 17.9766 5.27344C18 5.92969 18.0117 6.72656 18.0117 7.66406C18.0352 8.60156 18.0352 9.64453 18.0117 10.793C18.0117 11.9414 17.9883 13.1133 17.9414 14.3086C17.8945 15.4805 17.8242 16.6523 17.7305 17.8242C17.6367 18.9727 17.4961 20.0391 17.3086 21.0234C17.1445 21.9844 16.9219 22.8281 16.6406 23.5547C16.3828 24.2578 16.0664 24.75 15.6914 25.0312C14.918 25.6172 14.0742 26.0977 13.1602 26.4727C12.2461 26.8242 11.3438 27.0586 10.4531 27.1758C9.5625 27.293 8.71875 27.293 7.92188 27.1758C7.14844 27.082 6.49219 26.8477 5.95312 26.4727C5.60156 26.2148 5.27344 25.8516 4.96875 25.3828C4.66406 24.9141 4.38281 24.3984 4.125 23.8359C3.89062 23.25 3.66797 22.6523 3.45703 22.043C3.26953 21.4102 3.10547 20.8359 2.96484 20.3203C2.80078 19.7812 2.67188 19.3125 2.57812 18.9141C2.46094 18.4922 2.37891 18.2109 2.33203 18.0703C2.23828 17.8594 2.08594 17.6484 1.875 17.4375C1.66406 17.2266 1.44141 17.0391 1.20703 16.875C0.972656 16.7109 0.773438 16.5938 0.609375 16.5234C0.421875 16.4297 0.316406 16.4062 0.292969 16.4531C0.292969 16.5 0.480469 16.5117 0.855469 16.4883C1.20703 16.4414 1.64062 16.3945 2.15625 16.3477C2.67188 16.3008 3.21094 16.2656 3.77344 16.2422C4.33594 16.1953 4.80469 16.1836 5.17969 16.207C5.48438 16.207 5.88281 16.2188 6.375 16.2422C6.79688 16.2656 7.33594 16.2891 7.99219 16.3125C8.64844 16.3125 9.45703 16.3359 10.418 16.3828C9.80859 16.5703 9.31641 16.7812 8.94141 17.0156C8.58984 17.2266 8.32031 17.4258 8.13281 17.6133C7.89844 17.8477 7.73438 18.082 7.64062 18.3164C7.57031 18.5273 7.51172 18.9609 7.46484 19.6172C7.44141 20.25 7.48828 20.9062 7.60547 21.5859C7.72266 22.2656 7.94531 22.8867 8.27344 23.4492C8.60156 24.0117 9.11719 24.3281 9.82031 24.3984C10.5703 24.4688 11.1797 24.3398 11.6484 24.0117C12.1406 23.6602 12.5273 23.1914 12.8086 22.6055C13.0898 22.0195 13.3008 21.3633 13.4414 20.6367C13.582 19.9102 13.6992 19.1953 13.793 18.4922C13.8633 18.0234 13.8867 17.3672 13.8633 16.5234C13.8398 15.6797 13.7812 14.7656 13.6875 13.7812C13.5938 12.7969 13.4766 11.7773 13.3359 10.7227C13.2188 9.66797 13.1016 8.69531 12.9844 7.80469C12.8672 6.91406 12.75 6.15234 12.6328 5.51953C12.5391 4.88672 12.4805 4.48828 12.457 4.32422C12.3633 4.01953 12.2344 3.70313 12.0703 3.375C11.9297 3.11719 11.7305 2.82422 11.4727 2.49609C11.2383 2.16797 10.9219 1.86328 10.5234 1.58203ZM33.0234 0.492188C34.2891 0.539063 35.5664 0.773438 36.8555 1.19531C38.168 1.59375 39.375 2.25 40.4766 3.16406C41.5781 4.05469 42.5156 5.21484 43.2891 6.64453C44.0625 8.05078 44.543 9.77344 44.7305 11.8125C44.8945 13.4766 44.6836 15.1289 44.0977 16.7695C43.5352 18.3867 42.75 19.875 41.7422 21.2344C40.7344 22.5938 39.5742 23.7539 38.2617 24.7148C36.9492 25.6523 35.6367 26.2734 34.3242 26.5781C33.5273 26.7656 32.6484 26.7891 31.6875 26.6484C30.75 26.4844 29.7891 26.1914 28.8047 25.7695C27.8438 25.3242 26.8945 24.7617 25.957 24.082C25.043 23.4023 24.2109 22.6289 23.4609 21.7617C22.7109 20.8711 22.0781 19.9102 21.5625 18.8789C21.0703 17.8477 20.7656 16.7695 20.6484 15.6445C20.5312 14.707 20.5195 13.6758 20.6133 12.5508C20.7305 11.4023 20.9531 10.2656 21.2812 9.14062C21.6328 7.99219 22.1133 6.89062 22.7227 5.83594C23.3555 4.75781 24.1523 3.82031 25.1133 3.02344C26.0742 2.20312 27.1992 1.57031 28.4883 1.125C29.8008 0.65625 31.3125 0.445312 33.0234 0.492188ZM26.7305 14.7305C26.4023 17.2383 26.6367 19.2539 27.4336 20.7773C28.2539 22.3008 29.4844 23.2266 31.125 23.5547C31.9219 23.7188 32.6836 23.5547 33.4102 23.0625C34.1602 22.5469 34.8398 21.8086 35.4492 20.8477C36.0586 19.8867 36.5859 18.7617 37.0312 17.4727C37.4766 16.1836 37.8047 14.8359 38.0156 13.4297C38.2266 12.0234 38.2383 10.7578 38.0508 9.63281C37.8867 8.48438 37.5938 7.51172 37.1719 6.71484C36.75 5.89453 36.2344 5.26172 35.625 4.81641C35.0391 4.37109 34.4297 4.125 33.7969 4.07812C32.6953 4.00781 31.7344 4.30078 30.9141 4.95703C30.0938 5.58984 29.4023 6.42187 28.8398 7.45312C28.2773 8.48438 27.8203 9.64453 27.4688 10.9336C27.1406 12.2227 26.8945 13.4883 26.7305 14.7305ZM45.9609 1.89844C46.7578 2.01563 47.4609 2.09766 48.0703 2.14453C48.7031 2.19141 49.2305 2.23828 49.6523 2.28516C50.1445 2.33203 50.5664 2.35547 50.918 2.35547H52.2891C53.2031 2.35547 54.7148 2.32031 56.8242 2.25C56.3086 2.41406 55.875 2.64844 55.5234 2.95312C55.1953 3.25781 54.9258 3.57422 54.7148 3.90234C54.457 4.27734 54.2695 4.66406 54.1523 5.0625C54.0117 5.55469 53.8828 6.21094 53.7656 7.03125C53.6484 7.75781 53.5312 8.70703 53.4141 9.87891C53.3203 11.0508 53.2266 12.5156 53.1328 14.2734C54.1406 13.125 55.0195 12.1055 55.7695 11.2148C56.543 10.3242 57.2109 9.53906 57.7734 8.85938C58.3359 8.17969 58.8047 7.59375 59.1797 7.10156C59.5781 6.60938 59.9062 6.1875 60.1641 5.83594C60.7734 5.03906 61.125 4.5 61.2188 4.21875C61.2422 4.05469 61.2305 3.85547 61.1836 3.62109C61.1367 3.43359 61.0664 3.21094 60.9727 2.95312C60.8789 2.67188 60.7383 2.36719 60.5508 2.03906C61.4883 2.08594 62.2852 2.12109 62.9414 2.14453C63.6211 2.16797 64.1836 2.19141 64.6289 2.21484C65.1445 2.23828 65.5664 2.25 65.8945 2.25H67.3711C67.9102 2.25 68.6133 2.25 69.4805 2.25C70.3477 2.22656 71.4375 2.20312 72.75 2.17969C71.8828 2.39062 71.0625 2.67188 70.2891 3.02344C69.5156 3.375 68.8242 3.71484 68.2148 4.04297C67.5117 4.44141 66.8555 4.85156 66.2461 5.27344C65.6367 5.74219 64.957 6.29297 64.207 6.92578C63.5742 7.46484 62.8359 8.13281 61.9922 8.92969C61.1484 9.70312 60.2344 10.6055 59.25 11.6367C60.3047 13.6992 61.2188 15.3984 61.9922 16.7344C62.7891 18.0469 63.457 19.1016 63.9961 19.8984C64.6055 20.8359 65.1211 21.5508 65.543 22.043C65.9648 22.4883 66.457 22.9453 67.0195 23.4141C67.4883 23.8125 68.0742 24.2578 68.7773 24.75C69.4805 25.2188 70.2891 25.6758 71.2031 26.1211L61.1836 26.6133C61.3242 26.4258 61.4062 26.2031 61.4297 25.9453C61.4766 25.6641 61.5 25.4062 61.5 25.1719C61.5 24.9141 61.4766 24.6328 61.4297 24.3281C61.3359 23.9531 61.0898 23.3438 60.6914 22.5C60.3633 21.7734 59.8594 20.7539 59.1797 19.4414C58.5 18.1055 57.5625 16.3477 56.3672 14.168L53.3789 17.2969C53.2617 18.0469 53.2031 18.7266 53.2031 19.3359C53.2031 19.9453 53.2266 20.4492 53.2734 20.8477C53.3438 21.3398 53.4375 21.7617 53.5547 22.1133C53.6953 22.4648 53.8945 22.8633 54.1523 23.3086C54.3633 23.707 54.6445 24.1758 54.9961 24.7148C55.3477 25.2539 55.793 25.8516 56.332 26.5078C55.793 26.3672 55.2539 26.2734 54.7148 26.2266C54.1758 26.1562 53.6836 26.1094 53.2383 26.0859C52.7227 26.0625 52.2305 26.0742 51.7617 26.1211C51.2695 26.168 50.6953 26.2383 50.0391 26.332C49.4766 26.4258 48.7852 26.543 47.9648 26.6836C47.1445 26.8242 46.207 27 45.1523 27.2109C45.668 26.9062 46.0781 26.5781 46.3828 26.2266C46.6875 25.875 46.9336 25.5352 47.1211 25.207C47.332 24.832 47.4727 24.4688 47.543 24.1172C47.5898 23.8125 47.625 23.1562 47.6484 22.1484C47.6953 21.1406 47.7188 19.9688 47.7188 18.6328C47.7422 17.2734 47.7422 15.8438 47.7188 14.3438C47.6953 12.8438 47.6719 11.4375 47.6484 10.125C47.625 8.8125 47.5898 7.69922 47.543 6.78516C47.5195 5.84766 47.4961 5.27344 47.4727 5.0625C47.4023 4.73437 47.3086 4.38281 47.1914 4.00781C47.0742 3.67969 46.9102 3.33984 46.6992 2.98828C46.5117 2.61328 46.2656 2.25 45.9609 1.89844ZM66.8086 2.98828C68.4492 3.03516 69.8086 3.07031 70.8867 3.09375C71.9883 3.09375 72.8789 3.09375 73.5586 3.09375H75.4219H85.8984C85.9453 3.5625 85.9805 4.01953 86.0039 4.46484C86.0508 4.88672 86.0742 5.26172 86.0742 5.58984C86.0742 5.98828 86.0625 6.35156 86.0391 6.67969C86.0156 7.00781 85.9805 7.35938 85.9336 7.73438C85.8867 8.0625 85.8398 8.41406 85.793 8.78906C85.7461 9.16406 85.6641 9.55078 85.5469 9.94922C85.2188 8.68359 84.7734 7.72266 84.2109 7.06641C83.6719 6.41016 83.1211 5.92969 82.5586 5.625C81.9023 5.27344 81.2109 5.08594 80.4844 5.0625C79.5234 5.10938 78.7734 5.19141 78.2344 5.30859C77.6953 5.42578 77.2734 5.58984 76.9688 5.80078C76.6641 6.01172 76.4297 6.25781 76.2656 6.53906C76.125 6.79688 75.9727 7.08984 75.8086 7.41797C75.668 7.69922 75.5391 8.13281 75.4219 8.71875C75.3047 9.21094 75.1875 9.87891 75.0703 10.7227C74.9766 11.5664 74.8711 12.6562 74.7539 13.9922C75.3867 13.8047 75.8906 13.6289 76.2656 13.4648C76.6641 13.3008 76.9805 13.1602 77.2148 13.043C77.4727 12.9023 77.6602 12.7734 77.7773 12.6562C77.8711 12.5156 78.0117 12.2578 78.1992 11.8828C78.3398 11.5547 78.5273 11.1094 78.7617 10.5469C79.0195 9.98438 79.3242 9.21094 79.6758 8.22656C79.7227 9.30469 79.7461 10.207 79.7461 10.9336C79.7461 11.6367 79.7578 12.2109 79.7812 12.6562C79.7812 13.1719 79.793 13.582 79.8164 13.8867V15.2227C79.8164 15.7148 79.8164 16.3828 79.8164 17.2266C79.8398 18.0469 79.875 19.0898 79.9219 20.3555C79.6406 19.4883 79.3828 18.8086 79.1484 18.3164C78.9375 17.8008 78.75 17.4141 78.5859 17.1562C78.3984 16.8516 78.2344 16.6406 78.0938 16.5234C77.9297 16.4766 77.707 16.4297 77.4258 16.3828C77.168 16.3594 76.8398 16.3477 76.4414 16.3477C76.0664 16.3477 75.5859 16.4062 75 16.5234C74.9297 17.8125 74.918 18.8555 74.9648 19.6523C75.0352 20.4258 75.1289 21.0234 75.2461 21.4453C75.3633 21.9375 75.5039 22.2891 75.668 22.5C75.8789 22.7109 76.3008 22.8867 76.9336 23.0273C77.5664 23.1445 78.2812 23.1914 79.0781 23.168C79.8984 23.1211 80.7305 22.9805 81.5742 22.7461C82.418 22.5117 83.168 22.125 83.8242 21.5859C84.3164 21.1406 84.8438 20.5781 85.4062 19.8984C85.875 19.3125 86.3906 18.5742 86.9531 17.6836C87.5391 16.793 88.1133 15.7148 88.6758 14.4492C88.582 15.5039 88.5117 16.3828 88.4648 17.0859C88.4414 17.7656 88.4062 18.3164 88.3594 18.7383C88.3125 19.2305 88.2773 19.6055 88.2539 19.8633C88.2539 20.1445 88.2188 20.543 88.1484 21.0586C88.1016 21.5039 88.0195 22.1133 87.9023 22.8867C87.8086 23.6367 87.6797 24.5977 87.5156 25.7695C86.4141 25.793 85.3711 25.8164 84.3867 25.8398C83.4023 25.8398 82.5352 25.8516 81.7852 25.875C80.8945 25.8984 80.0742 25.9219 79.3242 25.9453C78.5508 25.9453 77.6953 25.9805 76.7578 26.0508C75.9375 26.0977 74.9648 26.168 73.8398 26.2617C72.7383 26.3555 71.5195 26.4844 70.1836 26.6484C70.3008 25.0547 70.3828 23.5547 70.4297 22.1484C70.5 20.7188 70.5469 19.4648 70.5703 18.3867C70.5938 17.1211 70.5938 15.9492 70.5703 14.8711C70.6875 12.1758 70.6406 9.99609 70.4297 8.33203C70.2188 6.66797 69.9727 5.60156 69.6914 5.13281C69.5508 4.96875 69.3516 4.76953 69.0938 4.53516C68.8828 4.34766 68.5898 4.125 68.2148 3.86719C67.8398 3.60937 67.3711 3.31641 66.8086 2.98828ZM88.5 1.33594C89.25 1.45313 89.9297 1.55859 90.5391 1.65234C91.1484 1.72266 91.6758 1.78125 92.1211 1.82812C92.6367 1.89844 93.0938 1.95703 93.4922 2.00391C93.9844 2.07422 94.7227 1.99219 95.707 1.75781C96.6914 1.5 97.7695 1.26562 98.9414 1.05469C100.137 0.820313 101.355 0.691406 102.598 0.667969C103.84 0.621094 104.977 0.84375 106.008 1.33594C107.039 1.82812 107.883 2.32031 108.539 2.8125C109.195 3.30469 109.711 3.83203 110.086 4.39453C110.484 4.93359 110.766 5.50781 110.93 6.11719C111.094 6.72656 111.188 7.39453 111.211 8.12109C111.188 9.19922 110.93 10.2422 110.438 11.25C110.227 11.6719 109.945 12.1172 109.594 12.5859C109.266 13.0312 108.855 13.4648 108.363 13.8867C107.871 14.3086 107.285 14.707 106.605 15.082C105.949 15.457 105.176 15.7852 104.285 16.0664C105.152 16.3242 105.867 16.6289 106.43 16.9805C107.016 17.332 107.484 17.6602 107.836 17.9648C108.258 18.3398 108.574 18.7031 108.785 19.0547C109.043 19.5469 109.219 19.9688 109.312 20.3203C109.406 20.6719 109.465 21.0117 109.488 21.3398C109.535 21.6445 109.594 21.9609 109.664 22.2891C109.734 22.6172 109.887 22.9922 110.121 23.4141C110.309 23.7422 110.531 24.082 110.789 24.4336C111.023 24.7383 111.293 25.0664 111.598 25.418C111.926 25.7695 112.324 26.1094 112.793 26.4375C112.137 26.4609 111.527 26.4727 110.965 26.4727C110.426 26.4727 109.957 26.4727 109.559 26.4727C109.09 26.4727 108.645 26.4609 108.223 26.4375C107.801 26.4141 107.273 26.4023 106.641 26.4023C106.102 26.4023 105.41 26.4023 104.566 26.4023C103.746 26.4023 102.75 26.4141 101.578 26.4375C102.094 26.0391 102.516 25.6406 102.844 25.2422C103.172 24.8438 103.43 24.4805 103.617 24.1523C103.828 23.7773 103.98 23.4141 104.074 23.0625C104.191 22.4297 104.203 21.7734 104.109 21.0938C104.039 20.5078 103.852 19.8633 103.547 19.1602C103.242 18.4336 102.75 17.707 102.07 16.9805C101.391 17.0977 100.816 17.1914 100.348 17.2617C99.9023 17.3086 99.5156 17.3555 99.1875 17.4023C98.8125 17.4492 98.5078 17.4844 98.2734 17.5078C98.0625 17.5312 97.8281 17.5547 97.5703 17.5781C97.3594 17.6016 97.125 17.6367 96.8672 17.6836C96.6328 17.707 96.4102 17.7422 96.1992 17.7891C96.1523 18.7969 96.1523 19.6758 96.1992 20.4258C96.2461 21.1523 96.3047 21.7617 96.375 22.2539C96.4688 22.8398 96.5742 23.3438 96.6914 23.7656C96.8086 24.1875 96.9727 24.5977 97.1836 24.9961C97.3477 25.3242 97.5586 25.6758 97.8164 26.0508C98.0742 26.4023 98.3672 26.6953 98.6953 26.9297C98.0859 26.9297 97.5 26.9297 96.9375 26.9297C96.3984 26.9297 95.9062 26.918 95.4609 26.8945C94.9453 26.8945 94.4531 26.8828 93.9844 26.8594C93.5156 26.8359 92.9883 26.8242 92.4023 26.8242C91.9102 26.8242 91.3242 26.8242 90.6445 26.8242C89.9883 26.8242 89.2734 26.8359 88.5 26.8594C89.1094 26.2266 89.5898 25.6875 89.9414 25.2422C90.293 24.7969 90.5625 24.4219 90.75 24.1172C90.9609 23.7891 91.0898 23.5078 91.1367 23.2734C91.1836 22.8984 91.2188 22.2305 91.2422 21.2695C91.2891 20.2852 91.3242 19.1602 91.3477 17.8945C91.3711 16.6289 91.3828 15.3047 91.3828 13.9219C91.3828 12.5391 91.3711 11.25 91.3477 10.0547C91.3242 8.83594 91.3008 7.79297 91.2773 6.92578C91.2539 6.05859 91.2305 5.50781 91.207 5.27344C91.1367 4.85156 90.9844 4.42969 90.75 4.00781C90.5625 3.63281 90.293 3.21094 89.9414 2.74219C89.5898 2.27344 89.1094 1.80469 88.5 1.33594ZM101.789 13.7109C102.023 13.5703 102.223 13.4297 102.387 13.2891C102.551 13.1484 102.691 12.9258 102.809 12.6211C102.926 12.293 103.02 11.8359 103.09 11.25C103.184 10.6641 103.289 9.86719 103.406 8.85938C103.5 7.85156 103.43 7.01953 103.195 6.36328C102.984 5.70703 102.691 5.19141 102.316 4.81641C101.965 4.41797 101.566 4.14844 101.121 4.00781C100.699 3.84375 100.324 3.76172 99.9961 3.76172C99.3398 3.76172 98.6953 3.96094 98.0625 4.35938C97.4297 4.75781 96.9492 5.29687 96.6211 5.97656C96.5039 6.28125 96.3984 6.78516 96.3047 7.48828C96.2344 8.09766 96.1875 8.94141 96.1641 10.0195C96.1406 11.0977 96.1758 12.5156 96.2695 14.2734C97.1602 14.4141 97.9453 14.4727 98.625 14.4492C99.3047 14.4023 99.8789 14.3203 100.348 14.2031C100.91 14.0859 101.391 13.9219 101.789 13.7109Z" fill="white"/>
</svg>
