<svg width="1170" height="105" viewBox="0 0 1170 105" fill="none" xmlns="http://www.w3.org/2000/svg">
<path d="M26.1137 58.4019C28.1809 58.5076 29.5876 58.5474 30.3338 58.5214C31.1155 58.4941 31.7894 58.4349 32.3555 58.344C32.9215 58.2531 33.5593 58.1775 34.2687 58.1171C34.3435 58.2212 34.3865 58.4332 34.3977 58.753C34.4088 59.0728 34.3814 59.305 34.3153 59.4496C32.965 59.4968 32.1367 59.7214 31.8306 60.1234C31.26 61.1039 30.8144 62.0979 30.4938 63.1052L25.333 80.3625C25.1702 80.7951 24.9535 81.2118 24.6829 81.6126C24.4465 81.9767 24.204 82.163 23.9553 82.1717C23.7065 82.1804 23.4877 82.0279 23.2989 81.7143L16.9791 67.3128L12.9616 80.6344C12.7707 81.2815 12.5565 81.7693 12.3189 82.0978C12.0814 82.4262 11.8737 82.5936 11.6961 82.5998C11.5184 82.606 11.3351 82.4523 11.1463 82.1387L4.17997 64.5044C3.78989 63.5219 3.34775 62.5767 2.85354 61.669C2.62421 61.2145 2.22279 60.9261 1.64928 60.8038C1.07578 60.6815 0.664655 60.6247 0.415918 60.6334C0.304353 60.495 0.260754 60.2653 0.28512 59.9442C0.273952 59.6244 0.30204 59.41 0.369386 59.3009C2.15228 59.4165 3.82548 59.447 5.38897 59.3924C6.988 59.3366 8.63722 59.1901 10.3366 58.9528C10.4114 59.057 10.4544 59.2689 10.4656 59.5887C10.5123 59.9073 10.4848 60.1395 10.3832 60.2854C8.96182 60.335 8.26169 60.6618 8.28278 61.2659C8.29271 61.5502 8.3952 61.938 8.59024 62.4292C8.82081 62.9193 9.03362 63.4099 9.22866 63.9012L13.0264 73.3211L17.259 60.0452C17.3532 59.6862 17.5025 59.3786 17.7071 59.1224C17.9103 58.8307 18.083 58.6823 18.2252 58.6774C18.4028 58.6712 18.5696 58.861 18.7253 59.2469L25.2788 74.2273L28.3122 63.2881C28.765 61.9915 28.9809 61.0412 28.9598 60.4371C28.9511 60.1884 28.6606 60.0207 28.0884 59.9339C27.3359 59.7823 26.6932 59.7158 26.1602 59.7344C26.0842 59.5948 26.0406 59.365 26.0294 59.0452C26.0183 58.7254 26.0463 58.511 26.1137 58.4019ZM39.6874 71.3227C39.7584 71.3202 39.9894 71.3122 40.3803 71.2985C40.8054 71.2481 41.2661 71.1964 41.7624 71.1435C42.8982 71.0683 43.7136 70.9864 44.2086 70.898C44.5272 70.8513 44.6803 70.6503 44.6679 70.2949C44.6542 69.9041 44.6044 69.4967 44.5185 69.0727C44.4325 68.6488 44.2951 68.2801 44.1063 67.9665C43.6881 67.1984 43.1592 66.8255 42.5196 66.8478C41.9155 66.8689 41.442 67.0633 41.0991 67.4311C40.7549 67.7633 40.4665 68.1647 40.2339 68.6353C39.8398 69.5741 39.6576 70.4699 39.6874 71.3227ZM48.1424 71.988C46.0166 72.2402 43.2144 72.4803 39.7358 72.7085C39.8115 74.8761 40.4714 76.454 41.7155 77.4423C42.6655 78.1563 43.6734 78.4946 44.7394 78.4574C45.841 78.4189 46.687 78.1937 47.2774 77.7818C47.8678 77.3698 48.3517 76.9615 48.7289 76.557C49.0156 76.6182 49.1646 76.8086 49.1758 77.1284C49.1869 77.4482 49.1252 77.7172 48.9905 77.9354C48.8901 78.1168 48.669 78.4091 48.3274 78.8124C47.9844 79.1802 47.5527 79.551 47.0321 79.925C45.714 80.896 44.4332 81.4032 43.1895 81.4467C41.9458 81.4901 40.8742 81.3674 39.9747 81.0786C39.0739 80.7543 38.2748 80.2841 37.5773 79.6681C36.0721 78.3332 35.2809 76.5641 35.204 74.361C35.1246 72.0869 35.8369 70.0697 37.3408 68.3094C38.9476 66.4389 40.7282 65.4695 42.6825 65.4012C44.779 65.328 46.3998 65.894 47.5448 67.0993C48.5034 68.0619 49.0057 69.2007 49.0516 70.5154C49.0652 70.9063 48.9882 71.247 48.8204 71.5374C48.6527 71.8279 48.4267 71.9781 48.1424 71.988ZM51.5114 79.6618C51.7734 79.0123 51.8671 77.6215 51.7927 75.4894L51.2938 61.2048C51.2665 60.4231 51.1959 59.9275 51.0818 59.718C50.9665 59.473 50.8188 59.318 50.6387 59.2532C50.4585 59.1883 50.2434 59.1424 49.9935 59.1156C49.4555 58.9921 49.0799 58.934 48.8667 58.9415C48.7956 58.944 48.7545 58.7853 48.7433 58.4655C48.6954 58.1114 48.7235 57.897 48.8276 57.8222C50.8113 57.575 52.401 57.2527 53.5968 56.8551C54.8268 56.4208 55.4774 56.2024 55.5484 56.2C55.7996 56.2623 55.9848 56.4693 56.1038 56.821C55.8898 57.8246 55.8064 59.0016 55.8535 60.3518L56.0527 66.055C56.0551 66.1261 56.0595 66.2505 56.0657 66.4281C56.1062 66.569 56.1785 66.6021 56.2826 66.5273C56.421 66.4157 56.6115 66.2668 56.854 66.0804C57.1321 65.8928 57.4273 65.6868 57.7397 65.4625C58.4355 65.0112 59.192 64.7714 60.0093 64.7428C60.8266 64.7143 61.6862 64.8799 62.5882 65.2398C63.489 65.5641 64.2887 66.052 64.9874 66.7036C66.4216 68.041 67.1766 69.7935 67.2523 71.9611C67.3453 74.6261 66.4248 76.7929 64.4908 78.4614C62.8005 79.9791 60.6761 80.7826 58.1177 80.872C57.1938 80.9043 56.3367 80.8097 55.5462 80.5882C54.7546 80.3313 54.0922 80.2121 53.5592 80.2307C53.0262 80.2493 52.6384 80.3518 52.3959 80.5381C52.3248 80.5406 52.1612 80.4396 51.905 80.2351C51.6476 79.995 51.5164 79.8039 51.5114 79.6618ZM58.0218 67.4271C57.3111 67.452 56.7157 67.7218 56.2356 68.2366C56.167 68.3102 56.1352 68.418 56.1401 68.5602L56.4417 77.1949C56.4628 77.799 56.6762 78.3074 57.082 78.7202C57.5233 79.1317 58.0637 79.3263 58.7033 79.3039C59.3429 79.2816 59.8704 79.1031 60.2856 78.7684C60.7351 78.3969 61.1105 77.9391 61.4117 77.3949C62.0116 76.2355 62.2873 74.9629 62.239 73.577C62.1546 71.1607 61.706 69.5221 60.8932 68.661C60.0805 67.8 59.1233 67.3887 58.0218 67.4271ZM83.6463 58.314C83.5827 58.5297 83.5393 58.8158 83.5162 59.1724C83.5286 59.5277 83.6223 62.2105 83.7972 67.2208L84.0746 75.1626C84.1106 76.1931 84.2445 76.9711 84.4763 77.4967C84.5916 77.7417 84.8649 77.9278 85.2963 78.0551C85.7632 78.1811 86.2276 78.236 86.6895 78.2199C89.5678 78.1194 91.6541 77.246 92.9486 75.5999C94.2418 73.9182 94.8282 71.3539 94.7078 67.9071C94.5912 64.5669 93.6656 62.0021 91.9309 60.2127C90.3066 58.5261 88.1442 57.73 85.4436 57.8243C85.0172 57.8392 84.627 57.8706 84.2729 57.9185C83.9543 57.9652 83.7455 58.0971 83.6463 58.314ZM81.0264 56.6444C82.5544 56.591 84.3476 56.4928 86.4061 56.3498C90.4925 56.2071 93.7964 57.0879 96.3177 58.9922C98.8415 60.9675 100.165 63.7319 100.29 67.2853C100.429 71.2651 99.2015 74.332 96.6084 76.486C94.2591 78.4892 91.0412 79.5622 86.9548 79.7049C83.5791 79.8228 80.1856 79.9413 76.7744 80.0604C76.6996 79.9563 76.6566 79.7443 76.6454 79.4245C76.6343 79.1047 76.6624 78.8902 76.7297 78.7812C76.8718 78.7762 77.1726 78.7301 77.6321 78.6429C78.4101 78.509 78.8659 78.3152 78.9993 78.0615C79.1621 77.6289 79.2125 76.5243 79.1504 74.7476L78.6981 61.7955C78.6386 60.0898 78.5113 58.9914 78.3162 58.5001C78.0551 58.1535 77.2849 58.0025 76.0057 58.0471C75.9296 57.9075 75.886 57.6778 75.8749 57.3579C75.8637 57.0381 75.8918 56.8237 75.9591 56.7146C76.7789 56.7571 77.6329 56.7629 78.5213 56.7319L81.0264 56.6444ZM106.444 68.9915C106.515 68.9891 106.746 68.981 107.136 68.9673C107.562 68.9169 108.022 68.8652 108.519 68.8123C109.654 68.7371 110.47 68.6553 110.965 68.5668C111.283 68.5201 111.436 68.3191 111.424 67.9638C111.41 67.5729 111.361 67.1655 111.275 66.7416C111.189 66.3176 111.051 65.9489 110.862 65.6353C110.444 64.8672 109.915 64.4943 109.276 64.5166C108.672 64.5377 108.198 64.7321 107.855 65.0999C107.511 65.4321 107.223 65.8335 106.99 66.3042C106.596 67.2429 106.414 68.1387 106.444 68.9915ZM114.899 69.6569C112.773 69.909 109.971 70.1492 106.492 70.3774C106.568 72.5449 107.228 74.1229 108.472 75.1111C109.422 75.8251 110.43 76.1635 111.496 76.1262C112.597 76.0878 113.443 75.8625 114.034 75.4506C114.624 75.0386 115.108 74.6304 115.485 74.2258C115.772 74.287 115.921 74.4775 115.932 74.7973C115.943 75.1171 115.881 75.3861 115.747 75.6042C115.646 75.7856 115.425 76.078 115.084 76.4812C114.741 76.849 114.309 77.2198 113.788 77.5938C112.47 78.5648 111.189 79.072 109.946 79.1155C108.702 79.1589 107.63 79.0362 106.731 78.7475C105.83 78.4231 105.031 77.953 104.334 77.3369C102.828 76.002 102.037 74.233 101.96 72.0299C101.881 69.7557 102.593 67.7385 104.097 65.9783C105.704 64.1077 107.484 63.1383 109.439 63.0701C111.535 62.9969 113.156 63.5629 114.301 64.7681C115.26 65.7308 115.762 66.8695 115.808 68.1842C115.821 68.5751 115.744 68.9158 115.577 69.2063C115.409 69.4967 115.183 69.6469 114.899 69.6569ZM117.814 73.5041C117.808 73.3265 117.982 73.2314 118.338 73.219C118.693 73.2066 118.946 73.3223 119.097 73.5661C119.394 74.9432 119.962 75.9373 120.802 76.5484C121.423 77.0248 122.107 77.2499 122.853 77.2239C123.6 77.1978 124.144 76.9831 124.485 76.5798C124.827 76.1766 124.99 75.744 124.974 75.282C124.957 74.8201 124.82 74.4513 124.561 74.1757C124.337 73.8634 124.043 73.6068 123.681 73.406C123.353 73.204 122.973 73.0038 122.539 72.8055C120.951 72.1494 119.606 71.3425 118.505 70.3848C117.771 69.7344 117.386 68.894 117.35 67.8636C117.313 66.7975 117.497 65.955 117.902 65.3361C118.307 64.7171 118.823 64.201 119.449 63.7878C120.631 62.9994 122.057 62.5761 123.727 62.5177C124.545 62.4892 125.258 62.5532 125.869 62.7098C126.478 62.8308 127.087 62.9519 127.696 63.0729C127.94 63.9538 128.149 64.8537 128.324 65.7726C128.498 66.6916 128.588 67.2398 128.595 67.4175C128.6 67.5597 128.442 67.6363 128.122 67.6475C127.803 67.6586 127.532 67.5613 127.312 67.3556C126.991 66.335 126.646 65.6 126.274 65.1505C125.498 64.3237 124.559 63.9296 123.458 63.968C122.854 63.9891 122.362 64.1664 121.982 64.4998C121.638 64.8321 121.475 65.2647 121.494 65.7977C121.512 66.3307 121.634 66.7534 121.858 67.0657C122.118 67.3769 122.412 67.6512 122.741 67.8888C123.104 68.0896 123.501 68.2713 123.934 68.4341C124.367 68.5969 124.8 68.7774 125.234 68.9758C125.666 69.1385 126.118 69.3362 126.588 69.5688C127.059 69.8014 127.478 70.0892 127.846 70.4321C128.692 71.2209 129.134 72.166 129.172 73.2676C129.21 74.3336 129.043 75.1755 128.674 75.7932C128.304 76.4109 127.806 76.9264 127.18 77.3396C125.998 78.128 124.412 78.5569 122.422 78.6264C121.605 78.655 120.82 78.5934 120.068 78.4418C119.314 78.2547 118.704 78.1159 118.239 78.0254C118.15 77.5304 118.074 76.8927 118.012 76.1122C117.948 75.2961 117.891 74.6933 117.842 74.3036C117.827 73.8772 117.818 73.6107 117.814 73.5041ZM137.391 62.7343C137.326 62.9145 137.225 63.5762 137.087 64.7195L137.366 72.7146C137.428 74.4913 137.517 75.5199 137.634 75.8005C137.749 76.0455 137.897 76.2182 138.079 76.3186C138.259 76.3835 138.457 76.4477 138.673 76.5113C139.03 76.57 139.405 76.5925 139.796 76.5789C139.872 76.7185 139.915 76.9482 139.926 77.268C139.938 77.5878 139.91 77.8023 139.842 77.9114C138.059 77.7957 136.528 77.7603 135.249 77.8049C133.792 77.8558 132.178 78.0011 130.408 78.2408C130.333 78.1367 130.29 77.9247 130.279 77.6049C130.268 77.2851 130.295 77.0529 130.361 76.9083C131.108 76.8822 131.656 76.7919 132.006 76.6374C132.355 76.4473 132.564 76.2977 132.631 76.1887C132.794 75.756 132.844 74.6514 132.782 72.8747L132.622 68.2908C132.612 68.0066 132.562 67.5814 132.471 67.0153C132.38 66.4493 132.296 66.0964 132.22 65.9568C131.955 65.5035 131.201 65.2986 129.957 65.342C129.885 65.309 129.843 65.1325 129.832 64.8127C129.855 64.4562 129.903 64.2766 129.974 64.2741C131.32 64.1204 132.626 63.8257 133.892 63.3902C135.156 62.9191 136.12 62.5119 136.784 62.1685C136.892 62.2003 137.02 62.2848 137.167 62.422C137.314 62.5592 137.389 62.6633 137.391 62.7343ZM131.617 56.3186C131.592 55.6079 131.803 55.0136 132.248 54.5355C132.729 54.0206 133.324 53.7508 134.035 53.726C134.745 53.7012 135.358 53.9288 135.873 54.4089C136.386 54.8535 136.656 55.4311 136.681 56.1418C136.705 56.8525 136.478 57.4652 135.998 57.9801C135.517 58.4949 134.922 58.7648 134.211 58.7896C133.501 58.8144 132.888 58.5867 132.373 58.1066C131.894 57.6253 131.642 57.0293 131.617 56.3186ZM154.433 64.3272C153.471 64.2897 152.865 64.2574 152.615 64.2306C152.365 64.2037 152.242 64.2259 152.244 64.2969C152.768 65.0258 153.044 65.7988 153.072 66.6161C153.101 67.4334 152.966 68.1674 152.669 68.8182C152.371 69.469 151.929 70.0359 151.341 70.5189C150.099 71.6296 148.607 72.2153 146.866 72.2761C146.191 72.2997 145.585 72.2675 145.048 72.1795C144.877 72.3634 144.687 72.5479 144.48 72.733C144.309 72.9169 144.228 73.1332 144.236 73.3819C144.244 73.5951 144.428 73.7844 144.79 73.9496C145.15 74.0794 145.597 74.1349 146.13 74.1163C146.698 74.0964 147.427 74.071 148.315 74.04C149.238 73.9722 150.056 73.9614 150.769 74.0077C151.481 74.0184 152.126 74.1737 152.706 74.4737C153.32 74.7368 153.829 75.057 154.234 75.4343C155.006 76.1544 155.409 76.9764 155.441 77.9003C155.473 78.8242 155.238 79.7396 154.736 80.6466C154.234 81.5535 153.55 82.3246 152.682 82.9597C150.811 84.377 148.667 85.1278 146.25 85.2122C144.509 85.273 143.075 84.9495 141.947 84.2418C140.855 83.5328 140.288 82.5742 140.246 81.3661C140.221 80.6554 140.517 79.9691 141.134 79.3071C141.789 78.6795 142.448 78.194 143.112 77.8506C142.501 77.694 141.971 77.2856 141.521 76.6253C141.105 75.9283 140.885 75.2067 140.859 74.4605C140.839 73.8919 141.786 73.005 143.701 71.7997C142.657 71.4448 141.819 70.887 141.187 70.1263C140.59 69.3289 140.276 68.486 140.245 67.5977C140.214 66.7093 140.348 65.9575 140.647 65.3423C140.98 64.6903 141.422 64.1056 141.973 63.5883C143.146 62.5511 144.639 62.0009 146.452 61.9376C148.051 61.8818 149.304 62.1226 150.212 62.6602C150.286 62.7288 150.358 62.7618 150.429 62.7593L154.838 62.1784C155.092 62.3119 155.221 62.4497 155.226 62.5918C155.23 62.6984 155.133 62.9864 154.936 63.4558C154.775 63.9239 154.607 64.2144 154.433 64.3272ZM144.56 78.0668C144.186 78.5779 144.009 79.1 144.028 79.633C144.069 80.8056 144.491 81.6981 145.295 82.3104C146.099 82.9227 147.017 83.2109 148.047 83.1749C149.113 83.1377 149.909 83.0032 150.434 82.7713C150.961 82.5751 151.38 82.3292 151.689 82.0338C152.206 81.5532 152.451 80.9221 152.424 80.1403C152.396 79.3586 152.003 78.7853 151.243 78.4205C150.483 78.0557 149.535 77.8931 148.398 77.9328L144.56 78.0668ZM146.336 63.2225C145.199 63.2622 144.586 64.0307 144.496 65.5281C144.475 65.9557 144.473 66.4005 144.489 66.8625C144.504 67.2889 144.556 67.7673 144.646 68.2979C144.77 68.7916 144.928 69.2486 145.121 69.6688C145.615 70.5766 146.288 71.0155 147.141 70.9858C148.278 70.9461 148.837 70.1438 148.818 68.5791C148.84 68.187 148.843 67.7777 148.829 67.3513C148.814 66.9249 148.762 66.4642 148.674 65.9692C148.584 65.4387 148.443 64.9633 148.25 64.5431C147.792 63.6341 147.154 63.1939 146.336 63.2225ZM161.912 76.8738C160.456 76.9247 158.842 77.07 157.071 77.3097C156.997 77.2056 156.954 76.9936 156.942 76.6738C156.931 76.354 156.959 76.1218 157.025 75.9772C157.771 75.9511 158.319 75.8608 158.67 75.7063C159.019 75.5162 159.227 75.3666 159.294 75.2576C159.457 74.8249 159.508 73.7203 159.446 71.9436L159.285 67.3597C159.276 67.0754 159.225 66.6503 159.134 66.0842C159.043 65.5182 158.96 65.1653 158.884 65.0256C158.619 64.5724 157.865 64.3675 156.621 64.4109C156.549 64.3779 156.507 64.2014 156.496 63.8816C156.519 63.525 156.566 63.3455 156.637 63.343C157.984 63.1893 159.29 62.8946 160.555 62.4591C161.82 61.988 162.784 61.5808 163.448 61.2374C163.554 61.2337 163.682 61.3182 163.83 61.4909C163.977 61.628 164.034 61.7328 164.001 61.8051C164.004 61.8762 163.991 62.0189 163.963 62.2334C163.969 62.411 163.941 62.6432 163.88 62.93C163.727 63.6469 163.704 64.0035 163.811 63.9997C163.846 63.9985 163.881 63.9795 163.916 63.9427C163.95 63.9059 164.002 63.8685 164.072 63.8305C164.55 63.2446 165.136 62.726 165.832 62.2748C167.05 61.4852 168.103 61.0748 168.991 61.0438C169.915 61.0116 170.685 61.1625 171.302 61.4968C171.952 61.7943 172.467 62.2744 172.846 62.9371C173.492 64.1242 173.867 66.1923 173.97 69.1417L174.05 71.4336C174.112 73.2103 174.201 74.2389 174.318 74.5195C174.433 74.7645 174.581 74.9372 174.763 75.0376C174.979 75.1012 175.212 75.1642 175.463 75.2266C175.892 75.2828 176.302 75.304 176.693 75.2904C176.804 75.4288 176.848 75.6585 176.824 75.9796C176.835 76.2994 176.807 76.5138 176.739 76.6229C175.063 76.5035 173.461 76.4706 171.933 76.5239C170.76 76.5649 169.289 76.7052 167.518 76.9449C167.444 76.8408 167.401 76.6288 167.389 76.309C167.378 75.9892 167.406 75.757 167.472 75.6124C167.721 75.6037 168.075 75.5558 168.534 75.4686C168.992 75.3458 169.269 75.1227 169.365 74.7992C169.493 74.4033 169.527 73.3348 169.466 71.5937L169.369 68.822C169.254 65.5174 168.414 63.8923 166.851 63.9469C166.176 63.9705 165.595 64.1509 165.109 64.4881C164.243 65.1587 163.816 65.6717 163.828 66.027L164.029 71.7835C164.091 73.5602 164.181 74.5888 164.297 74.8694C164.413 75.1144 164.561 75.2871 164.742 75.3875C164.922 75.4524 165.12 75.5166 165.336 75.5802C165.694 75.6389 166.068 75.6614 166.459 75.6477C166.535 75.7874 166.579 76.0171 166.59 76.3369C166.601 76.6567 166.573 76.8712 166.506 76.9803C164.723 76.8646 163.192 76.8292 161.912 76.8738Z" fill="white"/>
<path d="M290.524 49.7016C292.591 49.8073 294.034 49.8458 294.851 49.8173C295.704 49.7875 296.431 49.7265 297.033 49.6344C297.67 49.541 298.343 49.4641 299.052 49.4038C299.127 49.5079 299.17 49.7198 299.181 50.0396C299.193 50.3594 299.165 50.5917 299.099 50.7363C298.175 50.7685 297.503 50.8809 297.083 51.0735C296.698 51.2648 296.473 51.4506 296.409 51.6307C296.12 52.5302 296.01 53.9572 296.078 55.9115L296.316 62.734C296.434 66.1098 295.549 68.7734 293.66 70.7249C291.977 72.4558 289.768 73.3691 287.032 73.4646C285.539 73.5167 284.127 73.317 282.795 72.8654C281.461 72.3783 280.388 71.6865 279.574 70.7899C278.794 69.8566 278.222 68.7736 277.859 67.5411C277.53 66.2718 277.334 64.7133 277.269 62.8655L277.008 55.4034C276.982 54.6572 276.942 54.0182 276.888 53.4864C276.869 52.9534 276.803 52.5644 276.687 52.3194C276.572 52.0744 276.406 51.9201 276.191 51.8564C276.011 51.7916 275.795 51.728 275.544 51.6656C275.115 51.6094 274.705 51.5881 274.314 51.6018C274.238 51.4621 274.194 51.2324 274.183 50.9126C274.172 50.5928 274.2 50.3783 274.268 50.2693C276.05 50.3849 277.724 50.4154 279.287 50.3608C280.851 50.3062 282.518 50.159 284.288 49.9193C284.363 50.0235 284.406 50.2354 284.417 50.5552C284.428 50.875 284.401 51.1072 284.335 51.2519C283.695 51.2742 283.165 51.3639 282.743 51.5209C282.322 51.6779 282.095 51.8104 282.063 51.9182C281.903 52.4219 281.853 53.5265 281.912 55.2322L282.137 61.6816C282.179 62.8897 282.253 63.9723 282.357 64.9292C282.496 65.8493 282.758 66.7296 283.143 67.57C283.564 68.4092 284.013 69.0517 284.492 69.4975C285.004 69.9065 285.513 70.209 286.017 70.4048C286.741 70.7353 287.546 70.8851 288.435 70.854C289.323 70.823 290.099 70.6358 290.763 70.2924C291.427 69.9491 292.013 69.4127 292.521 68.6834C293.675 67.0777 294.202 64.8536 294.103 62.0108L293.894 56.0411C293.825 54.0512 293.615 52.6177 293.264 51.7405C293.149 51.4955 292.823 51.329 292.286 51.241C291.64 51.0857 291.068 51.0167 290.571 51.0341C290.495 50.8944 290.451 50.6647 290.44 50.3449C290.429 50.0251 290.457 49.8106 290.524 49.7016ZM301.446 67.6246C301.44 67.447 301.615 67.3519 301.97 67.3395C302.325 67.3271 302.578 67.4428 302.729 67.6866C303.026 69.0637 303.595 70.0578 304.434 70.6689C305.056 71.1453 305.74 71.3704 306.486 71.3444C307.232 71.3183 307.776 71.1036 308.118 70.7004C308.459 70.2971 308.622 69.8645 308.606 69.4025C308.59 68.9406 308.452 68.5718 308.194 68.2962C307.969 67.9839 307.676 67.7273 307.313 67.5265C306.986 67.3245 306.605 67.1243 306.171 66.926C304.583 66.2699 303.239 65.463 302.138 64.5053C301.404 63.8549 301.018 63.0145 300.982 61.9841C300.945 60.918 301.129 60.0755 301.535 59.4566C301.94 58.8376 302.456 58.3215 303.082 57.9083C304.264 57.1199 305.69 56.6966 307.36 56.6382C308.177 56.6097 308.891 56.6737 309.501 56.8303C310.11 56.9513 310.719 57.0724 311.328 57.1934C311.572 58.0743 311.782 58.9742 311.956 59.8931C312.131 60.8121 312.221 61.3604 312.227 61.538C312.232 61.6802 312.075 61.7568 311.755 61.768C311.435 61.7791 311.165 61.6818 310.944 61.4761C310.624 60.4555 310.278 59.7205 309.907 59.271C309.131 58.4442 308.192 58.0501 307.09 58.0885C306.486 58.1096 305.994 58.2869 305.615 58.6204C305.27 58.9526 305.108 59.3852 305.126 59.9182C305.145 60.4512 305.266 60.8739 305.491 61.1862C305.751 61.4974 306.045 61.7717 306.373 62.0093C306.736 62.2101 307.134 62.3919 307.566 62.5546C307.999 62.7174 308.432 62.898 308.866 63.0963C309.299 63.259 309.75 63.4567 310.221 63.6893C310.692 63.922 311.111 64.2097 311.479 64.5526C312.324 65.3414 312.766 66.2865 312.805 67.3881C312.842 68.4541 312.676 69.296 312.306 69.9137C311.936 70.5314 311.438 71.0469 310.813 71.4601C309.63 72.2485 308.044 72.6774 306.055 72.7469C305.237 72.7755 304.452 72.7139 303.7 72.5623C302.946 72.3752 302.337 72.2364 301.871 72.1459C301.783 71.6509 301.707 71.0132 301.644 70.2327C301.58 69.4166 301.523 68.8138 301.474 68.4242C301.459 67.9977 301.45 67.7312 301.446 67.6246ZM318.379 62.1237C318.45 62.1212 318.681 62.1131 319.072 62.0995C319.497 62.0491 319.958 61.9974 320.454 61.9445C321.59 61.8692 322.405 61.7874 322.9 61.699C323.219 61.6523 323.372 61.4512 323.36 61.0959C323.346 60.705 323.296 60.2976 323.21 59.8737C323.124 59.4498 322.987 59.081 322.798 58.7674C322.38 57.9993 321.851 57.6264 321.211 57.6488C320.607 57.6699 320.134 57.8643 319.791 58.232C319.447 58.5643 319.158 58.9657 318.926 59.4363C318.531 60.3751 318.349 61.2709 318.379 62.1237ZM326.834 62.789C324.708 63.0411 321.906 63.2813 318.427 63.5095C318.503 65.6771 319.163 67.255 320.407 68.2433C321.357 68.9572 322.365 69.2956 323.431 69.2584C324.533 69.2199 325.379 68.9947 325.969 68.5827C326.56 68.1708 327.043 67.7625 327.421 67.358C327.707 67.4191 327.856 67.6096 327.867 67.9294C327.879 68.2492 327.817 68.5182 327.682 68.7364C327.582 68.9178 327.361 69.2101 327.019 69.6134C326.676 69.9811 326.244 70.352 325.724 70.7259C324.406 71.697 323.125 72.2042 321.881 72.2476C320.638 72.2911 319.566 72.1684 318.666 71.8796C317.766 71.5553 316.967 71.0851 316.269 70.4691C314.764 69.1341 313.973 67.3651 313.896 65.162C313.816 62.8878 314.529 60.8706 316.032 59.1104C317.639 57.2399 319.42 56.2705 321.374 56.2022C323.471 56.129 325.091 56.695 326.236 57.9002C327.195 58.8629 327.697 60.0016 327.743 61.3164C327.757 61.7073 327.68 62.0479 327.512 62.3384C327.344 62.6289 327.118 62.7791 326.834 62.789ZM334.185 71.391C332.728 71.4419 331.114 71.5872 329.344 71.8269C329.269 71.7228 329.226 71.5108 329.215 71.191C329.203 70.8712 329.231 70.639 329.297 70.4944C330.043 70.4684 330.592 70.3781 330.942 70.2235C331.291 70.0334 331.499 69.8838 331.567 69.7748C331.729 69.3422 331.78 68.2375 331.718 66.4608L331.558 61.8769C331.548 61.5927 331.497 61.1675 331.406 60.6014C331.315 60.0354 331.232 59.6825 331.156 59.5429C330.891 59.0896 330.137 58.8847 328.893 58.9281C328.821 58.8951 328.779 58.7186 328.768 58.3988C328.791 58.0423 328.838 57.8627 328.909 57.8602C330.256 57.7065 331.562 57.4118 332.827 56.9763C334.092 56.5052 335.056 56.098 335.72 55.7546C335.828 55.7864 335.955 55.8709 336.102 56.0081C336.249 56.1453 336.306 56.25 336.273 56.3223C336.276 56.3934 336.264 56.5539 336.237 56.8039C336.21 57.0539 336.184 57.3394 336.16 57.6604C336.134 57.9459 336.109 58.2314 336.083 58.5169C336.058 58.8025 336.047 58.9985 336.05 59.1051C336.053 59.1762 336.09 59.2282 336.163 59.2613C336.234 59.2588 336.269 59.2398 336.267 59.2043C336.87 58.1159 337.377 57.3511 337.788 56.9098C338.682 56.0247 339.609 55.5654 340.568 55.5319C341.634 55.4947 342.37 55.6647 342.774 56.0419C343.073 56.4584 343.232 56.9332 343.251 57.4662C343.268 57.9636 343.23 58.3919 343.136 58.751C343.04 59.0745 342.891 59.3821 342.688 59.6738C342.282 60.2928 341.795 60.6122 341.227 60.6321C340.907 60.6432 340.619 60.5466 340.363 60.342C340.142 60.1363 339.922 59.9483 339.703 59.7781C339.519 59.6066 339.318 59.4535 339.1 59.3188C338.916 59.1474 338.664 59.0672 338.344 59.0784C338.024 59.0896 337.727 59.2245 337.451 59.4831C337.174 59.7063 336.935 59.9815 336.733 60.3087C336.329 60.9632 336.135 61.5392 336.153 62.0367L336.302 66.3007C336.364 68.0774 336.453 69.1061 336.569 69.3866C336.685 69.6316 336.833 69.8043 337.014 69.9047C337.195 69.9696 337.393 70.0338 337.608 70.0974C337.966 70.1561 338.34 70.1786 338.731 70.165C338.807 70.3046 338.851 70.5343 338.862 70.8541C338.873 71.174 338.845 71.3884 338.778 71.4975C336.995 71.3819 335.464 71.3464 334.185 71.391ZM357.571 47.5203L362.951 47.2257C366.54 47.1004 368.963 48.2254 370.22 50.6008C370.639 51.4044 370.864 52.2504 370.895 53.1387C370.926 54.0271 370.775 54.7973 370.442 55.4493C370.145 56.1001 369.757 56.7007 369.278 57.251C368.353 58.2795 367.362 58.9367 366.305 59.2227L371.651 65.6C372.765 66.9486 374.061 67.8817 375.537 68.3994C376.33 68.6919 377.011 68.8282 377.579 68.8084C377.691 68.9468 377.735 69.1943 377.712 69.5508C377.688 69.8719 377.659 70.0686 377.626 70.1409C376.634 70.2467 375.285 70.3294 373.579 70.3889C371.873 70.4485 370.566 70.2095 369.658 69.672C368.75 69.1345 368.054 68.5717 367.571 67.9838L361.602 60.5609C361.528 60.4923 361.418 60.3895 361.271 60.2523C361.159 60.1139 361.05 60.0465 360.944 60.0503L360.411 60.0689L360.599 65.4523C360.626 66.234 360.649 66.8914 360.668 67.4244C360.722 67.9562 360.806 68.3446 360.922 68.5896C361.036 68.799 361.183 68.954 361.365 69.0544C361.581 69.118 361.796 69.1816 362.012 69.2453C362.405 69.3027 362.833 69.3233 363.295 69.3072C363.371 69.4468 363.414 69.6766 363.426 69.9964C363.437 70.3162 363.409 70.5306 363.341 70.6397C359.99 70.4365 356.65 70.5532 353.321 70.9896C353.246 70.8855 353.203 70.6735 353.192 70.3537C353.181 70.0339 353.208 69.8017 353.274 69.6571C354.021 69.631 354.569 69.5407 354.919 69.3862C355.268 69.1961 355.477 69.0465 355.544 68.9375C355.707 68.5048 355.757 67.4002 355.695 65.6235L355.243 52.6714C355.183 50.9658 355.056 49.8673 354.861 49.3761C354.6 49.0294 353.829 48.8784 352.55 48.9231C352.474 48.7834 352.431 48.5537 352.419 48.2339C352.408 47.9141 352.436 47.6996 352.504 47.5906C353.323 47.6331 354.178 47.6388 355.066 47.6078L357.571 47.5203ZM365.038 50.4615C364.32 49.2414 363.303 48.6543 361.988 48.7002C361.562 48.7151 361.172 48.7465 360.817 48.7945C360.499 48.8412 360.308 48.9724 360.244 49.1881C360.112 49.4773 360.066 50.1905 360.105 51.3275L360.362 58.6831L362.015 58.6254C363.045 58.5894 363.919 58.1319 364.635 57.2531C365.387 56.373 365.737 55.1867 365.685 53.6943C365.631 52.1663 365.416 51.0887 365.038 50.4615ZM383.457 59.8511C383.528 59.8486 383.759 59.8406 384.15 59.8269C384.575 59.7765 385.035 59.7248 385.532 59.6719C386.667 59.5967 387.483 59.5148 387.978 59.4264C388.296 59.3797 388.45 59.1787 388.437 58.8233C388.423 58.4325 388.374 58.0251 388.288 57.6011C388.202 57.1772 388.064 56.8085 387.876 56.4949C387.457 55.7268 386.928 55.3539 386.289 55.3762C385.685 55.3973 385.211 55.5917 384.868 55.9595C384.524 56.2917 384.236 56.6931 384.003 57.1637C383.609 58.1025 383.427 58.9983 383.457 59.8511ZM391.912 60.5164C389.786 60.7686 386.984 61.0087 383.505 61.2369C383.581 63.4045 384.241 64.9824 385.485 65.9707C386.435 66.6847 387.443 67.023 388.509 66.9858C389.61 66.9474 390.456 66.7221 391.047 66.3102C391.637 65.8982 392.121 65.49 392.498 65.0854C392.785 65.1466 392.934 65.337 392.945 65.6568C392.956 65.9767 392.894 66.2456 392.76 66.4638C392.659 66.6452 392.438 66.9375 392.097 67.3408C391.754 67.7086 391.322 68.0794 390.801 68.4534C389.483 69.4244 388.202 69.9316 386.959 69.9751C385.715 70.0185 384.643 69.8958 383.744 69.607C382.843 69.2827 382.044 68.8125 381.347 68.1965C379.841 66.8616 379.05 65.0925 378.973 62.8894C378.894 60.6153 379.606 58.5981 381.11 56.8378C382.717 54.9673 384.497 53.9979 386.452 53.9296C388.548 53.8564 390.169 54.4224 391.314 55.6277C392.273 56.5903 392.775 57.7291 392.821 59.0438C392.834 59.4347 392.757 59.7754 392.59 60.0658C392.422 60.3563 392.196 60.5065 391.912 60.5164ZM394.827 64.3637C394.821 64.186 394.995 64.091 395.351 64.0786C395.706 64.0662 395.959 64.1819 396.11 64.4256C396.407 65.8028 396.975 66.7969 397.815 67.408C398.436 67.8843 399.12 68.1095 399.866 68.0834C400.613 68.0574 401.157 67.8427 401.498 67.4394C401.84 67.0361 402.003 66.6035 401.987 66.1416C401.97 65.6797 401.833 65.3109 401.574 65.0353C401.35 64.7229 401.056 64.4664 400.694 64.2656C400.366 64.0635 399.986 63.8634 399.552 63.6651C397.964 63.009 396.619 62.2021 395.518 61.2444C394.784 60.594 394.399 59.7536 394.363 58.7231C394.326 57.6571 394.51 56.8146 394.915 56.1957C395.32 55.5767 395.836 55.0606 396.462 54.6474C397.644 53.859 399.07 53.4356 400.74 53.3773C401.558 53.3488 402.271 53.4128 402.882 53.5694C403.491 53.6904 404.1 53.8114 404.709 53.9325C404.953 54.8134 405.162 55.7133 405.337 56.6322C405.511 57.5511 405.601 58.0994 405.608 58.2771C405.613 58.4192 405.455 58.4959 405.135 58.5071C404.816 58.5182 404.545 58.4209 404.325 58.2152C404.004 57.1946 403.659 56.4596 403.287 56.01C402.511 55.1833 401.572 54.7891 400.471 54.8276C399.867 54.8487 399.375 55.026 398.995 55.3594C398.651 55.6916 398.488 56.1243 398.507 56.6573C398.525 57.1903 398.647 57.613 398.871 57.9253C399.131 58.2364 399.425 58.5108 399.754 58.7483C400.117 58.9491 400.514 59.1309 400.947 59.2937C401.38 59.4565 401.813 59.637 402.247 59.8353C402.679 59.9981 403.131 60.1958 403.602 60.4284C404.072 60.661 404.491 60.9488 404.859 61.2917C405.705 62.0805 406.147 63.0256 406.186 64.1272C406.223 65.1932 406.056 66.0351 405.687 66.6528C405.317 67.2705 404.819 67.786 404.193 68.1992C403.011 68.9876 401.425 69.4165 399.435 69.486C398.618 69.5146 397.833 69.453 397.081 69.3014C396.327 69.1143 395.717 68.9755 395.252 68.885C395.163 68.39 395.087 67.7522 395.025 66.9717C394.961 66.1557 394.904 65.5529 394.855 65.1632C394.84 64.7368 394.831 64.4703 394.827 64.3637ZM411.76 58.8628C411.831 58.8603 412.062 58.8522 412.453 58.8386C412.878 58.7881 413.338 58.7365 413.835 58.6836C414.971 58.6083 415.786 58.5265 416.281 58.438C416.599 58.3913 416.753 58.1903 416.74 57.835C416.727 57.4441 416.677 57.0367 416.591 56.6128C416.505 56.1889 416.367 55.8201 416.179 55.5065C415.76 54.7384 415.231 54.3655 414.592 54.3879C413.988 54.4089 413.514 54.6034 413.171 54.9711C412.827 55.3033 412.539 55.7048 412.306 56.1754C411.912 57.1141 411.73 58.0099 411.76 58.8628ZM420.215 59.5281C418.089 59.7802 415.287 60.0204 411.808 60.2486C411.884 62.4161 412.544 63.9941 413.788 64.9824C414.738 65.6963 415.746 66.0347 416.812 65.9975C417.913 65.959 418.759 65.7338 419.35 65.3218C419.94 64.9098 420.424 64.5016 420.801 64.0971C421.088 64.1582 421.237 64.3487 421.248 64.6685C421.259 64.9883 421.197 65.2573 421.063 65.4754C420.962 65.6568 420.741 65.9492 420.4 66.3525C420.057 66.7202 419.625 67.0911 419.104 67.465C417.786 68.436 416.505 68.9433 415.262 68.9867C414.018 69.0301 412.947 68.9075 412.047 68.6187C411.146 68.2944 410.347 67.8242 409.65 67.2081C408.144 65.8732 407.353 64.1042 407.276 61.9011C407.197 59.6269 407.909 57.6097 409.413 55.8495C411.02 53.9789 412.8 53.0095 414.755 52.9413C416.851 52.8681 418.472 53.4341 419.617 54.6393C420.576 55.602 421.078 56.7407 421.124 58.0555C421.138 58.4463 421.06 58.787 420.893 59.0775C420.725 59.368 420.499 59.5182 420.215 59.5281ZM429.571 65.9788C430.033 65.9627 430.386 65.8614 430.628 65.6751C430.905 65.4519 431.041 65.2871 431.038 65.1805L430.866 60.2768C430.482 60.4681 430.079 60.6601 429.659 60.8526C429.273 61.0084 428.872 61.2359 428.456 61.535C427.692 62.0953 427.326 62.8197 427.357 63.708C427.424 64.5951 427.694 65.2083 428.169 65.5475C428.642 65.8512 429.109 65.9949 429.571 65.9788ZM437.441 65.1703C437.623 65.2707 437.717 65.4275 437.725 65.6407C437.732 65.8539 437.686 66.069 437.587 66.2859C437.381 66.5066 437.018 66.8039 436.497 67.1778C435.56 67.8509 434.772 68.1987 434.132 68.221C433.493 68.2433 432.9 68.0861 432.355 67.7494C431.844 67.3759 431.492 66.9791 431.299 66.5589C430.819 67.0737 430.123 67.5249 429.212 67.9125C428.336 68.2989 427.649 68.5008 427.152 68.5181C426.654 68.5355 426.117 68.4297 425.54 68.2009C424.963 67.972 424.472 67.6689 424.067 67.2917C423.148 66.4344 422.673 65.5615 422.642 64.6732C422.611 63.7848 422.764 63.0857 423.102 62.5758C423.474 62.0292 423.854 61.6957 424.241 61.5755C424.663 61.4185 425.136 61.224 425.662 60.9922C426.223 60.7592 426.819 60.5071 427.45 60.236C428.257 59.9232 429.379 59.4571 430.816 58.8377L430.759 57.1853C430.728 56.297 430.504 55.5043 430.088 54.8073C429.672 54.0747 429.143 53.7196 428.504 53.7419C427.864 53.7643 427.412 54.0647 427.148 54.6432C426.919 55.2204 426.762 55.8129 426.676 56.4207C426.435 57.6743 425.764 58.3203 424.662 58.3588C424.201 58.3749 423.769 58.2477 423.368 57.9771C423.002 57.6697 422.812 57.3383 422.8 56.983C422.783 56.4855 422.923 55.9114 423.22 55.2606C423.597 54.8561 424.222 54.4073 425.094 53.9144C426.874 52.9272 428.475 52.4088 429.896 52.3592C431.353 52.3083 432.596 52.763 433.626 53.7232C434.691 54.6821 435.252 55.9611 435.308 57.5601L435.537 64.1161C435.554 64.6136 435.656 64.9836 435.842 65.2262C436.027 65.4332 436.227 65.5329 436.44 65.5255C436.688 65.5168 436.9 65.4561 437.074 65.3433L437.441 65.1703ZM443.727 67.5657C442.27 67.6166 440.657 67.7619 438.886 68.0016C438.811 67.8975 438.768 67.6855 438.757 67.3657C438.746 67.0459 438.774 66.8137 438.84 66.6691C439.586 66.643 440.134 66.5527 440.485 66.3982C440.834 66.2081 441.042 66.0585 441.109 65.9495C441.272 65.5168 441.322 64.4122 441.26 62.6355L441.1 58.0516C441.09 57.7674 441.04 57.3422 440.949 56.7761C440.858 56.2101 440.775 55.8572 440.699 55.7176C440.434 55.2643 439.679 55.0594 438.436 55.1028C438.363 55.0698 438.322 54.8933 438.311 54.5735C438.334 54.217 438.381 54.0374 438.452 54.0349C439.798 53.8812 441.104 53.5865 442.37 53.151C443.634 52.6799 444.599 52.2727 445.262 51.9293C445.37 51.9611 445.498 52.0456 445.645 52.1828C445.792 52.3199 445.849 52.4247 445.816 52.497C445.818 52.5681 445.806 52.7286 445.779 52.9786C445.753 53.2285 445.727 53.5141 445.703 53.8351C445.677 54.1206 445.651 54.4061 445.626 54.6916C445.6 54.9771 445.589 55.1732 445.593 55.2798C445.595 55.3509 445.633 55.4029 445.705 55.436C445.776 55.4335 445.811 55.4145 445.81 55.379C446.412 54.2906 446.919 53.5258 447.331 53.0845C448.225 52.1994 449.152 51.7401 450.111 51.7066C451.177 51.6694 451.912 51.8394 452.317 52.2166C452.616 52.6331 452.775 53.1078 452.793 53.6408C452.811 54.1383 452.772 54.5666 452.678 54.9257C452.583 55.2492 452.433 55.5568 452.23 55.8485C451.825 56.4675 451.338 56.7869 450.769 56.8067C450.45 56.8179 450.162 56.7212 449.905 56.5167C449.685 56.311 449.465 56.123 449.245 55.9528C449.061 55.7813 448.86 55.6282 448.642 55.4935C448.458 55.3221 448.207 55.2419 447.887 55.2531C447.567 55.2642 447.269 55.3992 446.994 55.6578C446.717 55.881 446.477 56.1561 446.275 56.4834C445.871 57.1379 445.678 57.7139 445.695 58.2114L445.844 62.4754C445.906 64.2521 445.996 65.2807 446.112 65.5613C446.227 65.8063 446.376 65.979 446.557 66.0794C446.737 66.1443 446.935 66.2085 447.151 66.2721C447.509 66.3308 447.883 66.3533 448.274 66.3396C448.35 66.4793 448.394 66.709 448.405 67.0288C448.416 67.3486 448.388 67.5631 448.32 67.6722C446.538 67.5565 445.006 67.5211 443.727 67.5657ZM467.868 62.4535C468.154 62.5146 468.301 62.6518 468.309 62.865L468.328 63.398C468.335 63.6112 468.099 63.9752 467.619 64.4901C467.174 65.0037 466.674 65.4481 466.117 65.8233C464.835 66.7931 463.572 67.2997 462.328 67.3431C461.12 67.3853 460.066 67.262 459.167 66.9732C458.266 66.6489 457.467 66.1787 456.769 65.5627C455.227 64.1934 454.418 62.425 454.343 60.2575C454.266 58.0544 455.12 56.0322 456.906 54.191C458.725 52.2775 460.824 51.2791 463.205 51.196C464.875 51.1377 466.073 51.3093 466.799 51.7109C467.277 52.1567 467.526 52.6816 467.547 53.2857C467.567 53.8543 467.408 54.3935 467.07 54.9034C466.731 55.3777 466.277 55.6248 465.709 55.6447C465.14 55.6645 464.69 55.5024 464.358 55.1582C464.024 54.7785 463.71 54.4337 463.414 54.1238C462.75 53.4355 461.938 53.1081 460.978 53.1416C460.268 53.1664 459.682 53.7205 459.222 54.8039C458.828 55.7426 458.653 56.8339 458.696 58.0776C458.739 59.3212 458.935 60.3461 459.284 61.1523C459.632 61.9584 460.064 62.6015 460.578 63.0816C461.535 63.9732 462.599 64.3985 463.772 64.3576C464.944 64.3166 465.826 64.0902 466.416 63.6782C467.007 63.2662 467.49 62.858 467.868 62.4535ZM478.433 66.6206C476.757 66.5013 475.208 66.4664 473.786 66.5161C472.401 66.5644 470.822 66.7085 469.052 66.9482C468.977 66.8441 468.934 66.6321 468.923 66.3123C468.912 65.9925 468.939 65.7603 469.005 65.6157C469.752 65.5896 470.3 65.4993 470.65 65.3448C470.999 65.1547 471.19 65.0057 471.222 64.8979C471.387 64.5364 471.46 64.0891 471.442 63.5561C471.459 63.0218 471.453 62.3638 471.426 61.5821L470.92 47.0843C470.892 46.3025 470.822 45.8069 470.708 45.5974C470.592 45.3524 470.427 45.1981 470.211 45.1345C470.031 45.0696 469.834 45.0231 469.619 44.995C469.117 44.8703 468.741 44.8122 468.493 44.8209C468.422 44.8234 468.363 44.6654 468.316 44.3468C468.304 43.9915 468.349 43.7764 468.454 43.7016C470.826 43.3697 472.89 42.8885 474.647 42.2579C474.963 42.1401 475.139 42.0806 475.174 42.0794C475.426 42.1418 475.611 42.3488 475.73 42.7004C475.674 43.1293 475.617 43.5404 475.559 43.9338C475.471 44.4705 475.445 45.2541 475.481 46.2846L475.738 53.6401C475.809 53.6376 475.93 53.5444 476.102 53.3606C476.272 53.1411 476.548 52.8825 476.929 52.5846C477.308 52.2511 477.724 51.9342 478.176 51.6338C479.187 51.0293 480.136 50.7115 481.025 50.6805C481.913 50.6494 482.666 50.801 483.282 51.1353C483.933 51.4328 484.448 51.9129 484.827 52.5756C485.473 53.7627 485.847 55.8308 485.95 58.7802L486.03 61.0721C486.092 62.8488 486.182 63.8774 486.298 64.158C486.414 64.403 486.562 64.5757 486.743 64.6761C486.959 64.7397 487.192 64.8027 487.444 64.8651C487.873 64.9213 488.282 64.9425 488.673 64.9289C488.749 65.0685 488.793 65.2983 488.804 65.6181C488.815 65.9379 488.787 66.1523 488.72 66.2614C486.937 66.1458 485.388 66.1109 484.073 66.1568C482.794 66.2015 481.269 66.3437 479.499 66.5834C479.424 66.4793 479.381 66.2673 479.37 65.9475C479.359 65.6277 479.386 65.3955 479.452 65.2509C480.518 65.2136 481.116 64.9971 481.244 64.6013C481.441 64.1319 481.509 63.0089 481.447 61.2322L481.35 58.4605C481.234 55.1559 480.395 53.5308 478.831 53.5854C478.156 53.609 477.576 53.7894 477.089 54.1266C476.223 54.7972 475.796 55.3102 475.809 55.6655L476.01 61.422C476.072 63.1987 476.161 64.2273 476.278 64.5079C476.393 64.7529 476.541 64.9256 476.723 65.026C476.903 65.0909 477.101 65.1551 477.317 65.2187C477.674 65.2774 478.031 65.3005 478.386 65.2881C478.498 65.4265 478.541 65.6562 478.517 65.9773C478.528 66.2971 478.5 66.5115 478.433 66.6206Z" fill="white"/>
<path d="M587.932 52.9563L587.997 38.0116C587.977 37.4431 587.786 37.0762 587.425 36.9109C586.74 36.6502 586.095 36.5304 585.491 36.5515C585.378 36.3776 585.334 36.1301 585.358 35.809C585.381 35.4525 585.41 35.2558 585.444 35.219C586.263 35.226 586.904 35.257 587.369 35.3119C587.832 35.3313 588.472 35.3267 589.29 35.2982L592.96 34.9566L600.144 49.6481L600.252 49.6977C600.359 49.694 600.409 49.6211 600.405 49.4789L601.767 45.6957C603.681 40.3991 604.833 36.7299 605.225 34.6884C605.225 34.6884 605.385 34.6828 605.704 34.6716L607.359 34.6672C607.359 34.6672 607.589 34.6591 608.051 34.643C608.584 34.6244 610.27 34.4944 613.108 34.253C613.181 34.3216 613.242 34.5329 613.29 34.887C613.372 35.2043 613.38 35.4353 613.314 35.5799C613.136 35.5861 612.818 35.6328 612.358 35.72C611.934 35.806 611.636 35.9231 611.463 36.0715C611.117 36.3326 610.973 36.8001 611.032 37.474C611.09 38.1124 611.158 39.0351 611.235 40.242C611.312 41.4133 611.393 42.7091 611.478 44.1292C611.599 45.5481 611.702 46.9853 611.789 48.441C611.874 49.8611 611.968 51.0319 612.071 51.9533C612.247 53.9394 612.452 55.2131 612.685 55.7742C612.767 56.0915 613.361 56.2842 614.466 56.3524C614.68 56.3449 614.822 56.34 614.893 56.3375C615.123 56.8275 615.157 57.2711 614.993 57.6681C612.853 57.5294 611.215 57.4799 610.078 57.5196C608.941 57.5593 607.15 57.7285 604.705 58.0274C604.632 57.9588 604.572 57.7652 604.525 57.4466C604.514 57.1268 604.541 56.8769 604.606 56.6967C605.352 56.6706 605.918 56.5797 606.304 56.4239C606.724 56.2314 606.968 56.0806 607.035 55.9715C607.198 55.5389 607.273 55.1271 607.259 54.7362L607.183 52.5509L606.485 41.742C606.43 40.1785 606.296 39.4005 606.083 39.4079C606.012 39.4104 605.961 39.4833 605.931 39.6267L600.334 56.6324C600.103 57.1386 599.832 57.5216 599.52 57.7815C599.244 58.0046 599.034 58.1187 598.892 58.1236C598.75 58.1286 598.643 58.1146 598.57 58.0815L590.04 39.9682C590.032 41.7829 590.03 43.2594 590.034 44.3977C590.074 45.5348 590.092 46.5659 590.089 47.4911C590.074 50.1243 590.066 51.9212 590.064 52.8819C590.048 54.4834 590.121 55.5482 590.282 56.0762C590.368 56.5001 591.215 56.8086 592.822 57.0014C593.145 57.0613 593.341 57.0901 593.412 57.0876C593.489 57.2272 593.531 57.4392 593.541 57.7235C593.587 58.0065 593.577 58.2381 593.512 58.4182C592.799 58.372 592.086 58.3257 591.373 58.2795C590.66 58.2332 589.983 58.2213 589.344 58.2436C588.74 58.2647 587.215 58.4247 584.771 58.7235C584.543 58.3045 584.51 57.8787 584.673 57.4461C585.419 57.4201 586.071 57.2372 586.628 56.8976C587.186 56.5579 587.497 56.3158 587.564 56.1711C587.63 56.0265 587.676 55.8115 587.701 55.5259C587.762 55.2392 587.805 54.9353 587.829 54.6142C587.854 54.2932 587.878 53.9722 587.903 53.6511C587.927 53.3301 587.937 53.0985 587.932 52.9563ZM623.55 42.9072C621.951 42.963 621.108 44.3088 621.022 46.9445C620.976 47.6577 620.965 48.3696 620.99 49.0802C621.015 49.7909 621.096 50.5708 621.232 51.4199C621.403 52.2322 621.66 52.9704 622.003 53.6343C622.734 55.2098 623.668 55.9777 624.805 55.938C626.475 55.8796 627.372 54.5498 627.494 51.9483C627.506 51.272 627.5 50.5784 627.475 49.8677C627.45 49.1571 627.352 48.3778 627.18 47.53C627.008 46.6821 626.75 45.9262 626.407 45.2622C625.675 43.6512 624.722 42.8662 623.55 42.9072ZM623.926 41.4532C625.134 41.411 626.242 41.5679 627.251 41.9241C628.295 42.2789 629.203 42.7987 629.974 43.4833C631.554 44.9224 632.383 46.7612 632.461 48.9999C632.538 51.203 631.806 53.1497 630.264 54.8401C628.791 56.4925 626.883 57.3596 624.538 57.4415C622.086 57.5272 620.069 56.8327 618.488 55.3581C616.906 53.8835 616.077 52.0446 616 49.8415C615.925 47.674 616.64 45.7456 618.147 44.0564C619.654 42.4028 621.581 41.535 623.926 41.4532ZM634.632 55.6482C634.894 54.9986 634.987 53.6079 634.913 51.4758L634.414 37.1912C634.387 36.4094 634.316 35.9138 634.202 35.7044C634.087 35.4593 633.939 35.3044 633.759 35.2395C633.579 35.1747 633.364 35.1288 633.114 35.102C632.576 34.9784 632.2 34.9204 631.987 34.9279C631.916 34.9303 631.875 34.7717 631.864 34.4519C631.816 34.0978 631.844 33.8833 631.948 33.8085C633.931 33.5614 635.521 33.239 636.717 32.8415C637.947 32.4072 638.598 32.1888 638.669 32.1863C638.92 32.2487 639.105 32.4557 639.224 32.8073C639.01 33.811 638.927 34.9879 638.974 36.3382L639.173 42.0414C639.175 42.1125 639.18 42.2368 639.186 42.4145C639.226 42.5554 639.299 42.5884 639.403 42.5137C639.541 42.4021 639.732 42.2531 639.974 42.0668C640.252 41.8792 640.548 41.6732 640.86 41.4488C641.556 40.9976 642.312 40.7577 643.129 40.7292C643.947 40.7006 644.806 40.8663 645.708 41.2261C646.609 41.5505 647.409 42.0384 648.108 42.69C649.542 44.0274 650.297 45.7799 650.372 47.9475C650.466 50.6125 649.545 52.7793 647.611 54.4478C645.921 55.9655 643.796 56.769 641.238 56.8584C640.314 56.8906 639.457 56.796 638.666 56.5746C637.875 56.3176 637.212 56.1984 636.679 56.2171C636.146 56.2357 635.759 56.3382 635.516 56.5245C635.445 56.527 635.281 56.426 635.025 56.2215C634.768 55.9814 634.637 55.7903 634.632 55.6482ZM641.142 43.4135C640.431 43.4383 639.836 43.7082 639.356 44.223C639.287 44.2966 639.255 44.4044 639.26 44.5465L639.562 53.1813C639.583 53.7853 639.796 54.2938 640.202 54.7065C640.643 55.118 641.184 55.3126 641.824 55.2903C642.463 55.268 642.991 55.0894 643.406 54.7547C643.855 54.3833 644.231 53.9255 644.532 53.3813C645.132 52.2219 645.408 50.9492 645.359 49.5634C645.275 47.1471 644.826 45.5084 644.013 44.6474C643.201 43.7863 642.243 43.375 641.142 43.4135ZM658.557 40.8842C658.492 41.0644 658.39 41.7261 658.253 42.8694L658.532 50.8645C658.594 52.6412 658.683 53.6698 658.8 53.9504C658.915 54.1954 659.063 54.3681 659.245 54.4685C659.425 54.5333 659.623 54.5976 659.838 54.6612C660.196 54.7199 660.571 54.7424 660.961 54.7287C661.037 54.8684 661.081 55.0981 661.092 55.4179C661.103 55.7377 661.075 55.9522 661.008 56.0612C659.225 55.9456 657.694 55.9101 656.415 55.9548C654.958 56.0057 653.344 56.151 651.574 56.3907C651.499 56.2866 651.456 56.0746 651.445 55.7548C651.434 55.435 651.461 55.2028 651.527 55.0582C652.273 55.0321 652.822 54.9418 653.172 54.7873C653.521 54.5972 653.729 54.4476 653.797 54.3385C653.96 53.9059 654.01 52.8013 653.948 51.0246L653.788 46.4407C653.778 46.1564 653.727 45.7313 653.637 45.1652C653.546 44.5991 653.462 44.2463 653.386 44.1066C653.121 43.6534 652.367 43.4485 651.123 43.4919C651.051 43.4588 651.009 43.2824 650.998 42.9626C651.021 42.606 651.068 42.4265 651.139 42.424C652.486 42.2703 653.792 41.9756 655.058 41.5401C656.322 41.069 657.286 40.6617 657.95 40.3184C658.058 40.3502 658.185 40.4347 658.332 40.5718C658.48 40.709 658.554 40.8131 658.557 40.8842ZM652.783 34.4685C652.758 33.7578 652.968 33.1634 653.414 32.6854C653.894 32.1705 654.49 31.9007 655.2 31.8759C655.911 31.851 656.524 32.0787 657.039 32.5588C657.552 33.0033 657.821 33.581 657.846 34.2916C657.871 35.0023 657.643 35.6151 657.163 36.1299C656.683 36.6448 656.088 36.9146 655.377 36.9394C654.666 36.9643 654.054 36.7366 653.539 36.2565C653.06 35.7752 652.808 35.1792 652.783 34.4685ZM670.618 55.7256C668.835 55.61 667.215 55.5776 665.759 55.6285C664.337 55.6781 662.741 55.8228 660.971 56.0625C660.896 55.9584 660.853 55.7465 660.842 55.4266C660.831 55.1068 660.858 54.8746 660.924 54.73C661.67 54.704 662.219 54.6137 662.569 54.4591C662.918 54.269 663.109 54.1201 663.141 54.0122C663.306 53.6507 663.379 53.2034 663.361 52.6704C663.377 52.1362 663.372 51.4782 663.345 50.6964L662.839 36.1986C662.811 35.4168 662.741 34.9212 662.627 34.7117C662.511 34.4667 662.346 34.3124 662.13 34.2488C661.95 34.1839 661.753 34.1374 661.538 34.1094C661.036 33.9846 660.66 33.9266 660.412 33.9352C660.34 33.9377 660.282 33.7797 660.235 33.4611C660.222 33.1058 660.268 32.8907 660.372 32.8159C662.745 32.484 664.809 32.0028 666.566 31.3722C666.882 31.2545 667.058 31.195 667.093 31.1937C667.344 31.2561 667.53 31.4631 667.649 31.8147C667.592 32.2436 667.536 32.6547 667.478 33.0481C667.39 33.5848 667.364 34.3684 667.4 35.3989L667.929 50.5363C667.991 52.313 668.08 53.3417 668.197 53.6222C668.312 53.8672 668.46 54.0399 668.642 54.1403C668.857 54.2039 669.073 54.2676 669.289 54.3312C669.682 54.3886 670.11 54.4092 670.572 54.3931C670.648 54.5328 670.691 54.7625 670.702 55.0823C670.714 55.4021 670.686 55.6166 670.618 55.7256ZM674.885 45.4905C674.956 45.488 675.187 45.4799 675.578 45.4663C676.003 45.4159 676.464 45.3642 676.96 45.3113C678.096 45.2361 678.911 45.1542 679.406 45.0658C679.725 45.0191 679.878 44.8181 679.866 44.4627C679.852 44.0718 679.802 43.6644 679.716 43.2405C679.63 42.8166 679.493 42.4478 679.304 42.1342C678.886 41.3661 678.357 40.9933 677.717 41.0156C677.113 41.0367 676.64 41.2311 676.297 41.5989C675.953 41.9311 675.664 42.3325 675.432 42.8031C675.038 43.7419 674.855 44.6377 674.885 45.4905ZM683.34 46.1558C681.214 46.4079 678.412 46.6481 674.934 46.8763C675.009 49.0439 675.669 50.6218 676.913 51.6101C677.863 52.3241 678.871 52.6624 679.937 52.6252C681.039 52.5867 681.885 52.3615 682.475 51.9495C683.066 51.5376 683.549 51.1293 683.927 50.7248C684.213 50.7859 684.362 50.9764 684.374 51.2962C684.385 51.616 684.323 51.885 684.188 52.1032C684.088 52.2846 683.867 52.5769 683.525 52.9802C683.182 53.3479 682.75 53.7188 682.23 54.0927C680.912 55.0638 679.631 55.571 678.387 55.6144C677.144 55.6579 676.072 55.5352 675.173 55.2464C674.272 54.9221 673.473 54.4519 672.775 53.8359C671.27 52.5009 670.479 50.7319 670.402 48.5288C670.322 46.2546 671.035 44.2374 672.539 42.4772C674.145 40.6067 675.926 39.6373 677.88 39.569C679.977 39.4958 681.598 40.0618 682.743 41.267C683.701 42.2297 684.203 43.3684 684.249 44.6832C684.263 45.0741 684.186 45.4147 684.018 45.7052C683.851 45.9957 683.624 46.1459 683.34 46.1558ZM701.75 53.3577C702.603 53.3279 703.358 53.0525 704.016 52.5315C704.672 51.9749 704.979 51.0748 704.935 49.8311C704.898 48.765 704.202 47.6687 702.846 46.542C702.296 46.0631 701.711 45.6388 701.094 45.269C700.476 44.8992 699.894 44.546 699.349 44.2093C698.802 43.837 698.202 43.4488 697.547 43.0448C696.928 42.6395 696.361 42.179 695.845 41.6633C694.773 40.5267 694.209 39.1411 694.152 37.5066C694.091 35.7654 694.838 34.2273 696.392 32.8922C697.842 31.632 699.527 30.9683 701.446 30.9013C702.476 30.8653 703.439 30.9384 704.335 31.1206C705.267 31.3015 706.269 31.48 707.342 31.656C707.481 32.5761 707.585 33.5153 707.654 34.4735C707.759 35.4304 707.865 36.4407 707.974 37.5042C707.836 37.6513 707.715 37.7267 707.608 37.7304C706.933 37.754 706.574 37.6776 706.533 37.5011C706.314 36.3347 705.795 35.2322 704.976 34.1934C704.008 32.9465 702.902 32.3447 701.658 32.3882C700.947 32.413 700.28 32.6498 699.655 33.0985C699.03 33.5472 698.738 34.3579 698.779 35.5305C698.832 37.0585 700.586 38.8828 704.04 41.0036C704.622 41.3746 705.223 41.7628 705.842 42.1681C706.495 42.5366 707.08 42.9787 707.596 43.4944C708.778 44.7339 709.4 46.2597 709.463 48.072C709.529 49.9553 708.784 51.5467 707.229 52.8462C705.743 54.1077 704.023 54.7726 702.068 54.8408C700.007 54.9128 697.758 54.6712 695.319 54.1159C694.898 52.2451 694.618 50.8495 694.479 49.9294C694.376 49.008 694.302 48.4235 694.258 48.176C694.325 48.067 694.481 47.9548 694.726 47.8395C695.007 47.7229 695.236 47.6616 695.414 47.6554C695.591 47.6492 695.701 47.7343 695.743 47.9107C695.96 49.0416 696.606 50.2109 697.68 51.4186C698.936 52.7622 700.293 53.4086 701.75 53.3577ZM718.023 39.6081C716.424 39.6639 715.582 41.0097 715.496 43.6454C715.45 44.3586 715.439 45.0705 715.464 45.7812C715.489 46.4918 715.569 47.2717 715.706 48.1208C715.876 48.9331 716.133 49.6713 716.477 50.3352C717.208 51.9107 718.142 52.6786 719.279 52.6389C720.949 52.5805 721.845 51.2507 721.968 48.6492C721.98 47.9729 721.973 47.2793 721.949 46.5687C721.924 45.858 721.825 45.0787 721.654 44.2309C721.482 43.383 721.224 42.6271 720.881 41.9631C720.148 40.3521 719.196 39.5671 718.023 39.6081ZM718.4 38.1541C719.608 38.1119 720.716 38.2688 721.725 38.625C722.769 38.9799 723.676 39.4996 724.447 40.1842C726.027 41.6233 726.857 43.4621 726.935 45.7008C727.012 47.9039 726.279 49.8506 724.737 51.541C723.265 53.1934 721.356 54.0606 719.011 54.1425C716.559 54.2281 714.543 53.5336 712.961 52.059C711.38 50.5844 710.551 48.7455 710.474 46.5424C710.398 44.3749 711.114 42.4465 712.62 40.7573C714.128 39.1037 716.054 38.236 718.4 38.1541ZM737.413 53.3931C735.631 53.2775 734.011 53.2451 732.554 53.296C731.132 53.3456 729.536 53.4903 727.766 53.73C727.691 53.6259 727.648 53.4139 727.637 53.0941C727.626 52.7743 727.653 52.5421 727.719 52.3975C728.466 52.3714 729.014 52.2811 729.364 52.1266C729.713 51.9365 729.904 51.7875 729.936 51.6797C730.101 51.3181 730.174 50.8709 730.156 50.3379C730.173 49.8036 730.167 49.1456 730.14 48.3639L729.634 33.866C729.607 33.0843 729.536 32.5887 729.422 32.3792C729.307 32.1342 729.141 31.9799 728.925 31.9162C728.745 31.8514 728.548 31.8049 728.334 31.7768C727.831 31.6521 727.455 31.594 727.207 31.6027C727.136 31.6052 727.077 31.4471 727.03 31.1286C727.018 30.7732 727.064 30.5582 727.168 30.4834C729.54 30.1515 731.604 29.6703 733.361 29.0397C733.677 28.9219 733.853 28.8624 733.888 28.8612C734.14 28.9236 734.325 29.1306 734.444 29.4822C734.388 29.9111 734.331 30.3222 734.273 30.7155C734.185 31.2523 734.159 32.0359 734.195 33.0664L734.724 48.2038C734.786 49.9805 734.875 51.0091 734.992 51.2897C735.107 51.5347 735.256 51.7074 735.437 51.8078C735.653 51.8714 735.868 51.935 736.084 51.9986C736.477 52.0561 736.905 52.0767 737.367 52.0606C737.443 52.2002 737.487 52.43 737.498 52.7498C737.509 53.0696 737.481 53.284 737.413 53.3931ZM745.862 39.1162C748.165 38.8579 750.418 38.1566 752.619 37.0124C752.763 37.043 752.908 37.1269 753.055 37.2641C753.202 37.4012 753.277 37.5054 753.279 37.5764C753.214 37.7566 753.142 38.2394 753.063 39.0248C752.983 39.7748 752.951 40.3985 752.968 40.896L753.248 48.8911C753.257 49.1754 753.266 49.4241 753.274 49.6373C753.317 49.8493 753.43 50.041 753.614 50.2124C753.835 50.4182 754.371 50.5062 755.224 50.4764C755.3 50.6161 755.342 50.8103 755.351 51.059C755.359 51.2722 755.294 51.4701 755.158 51.6527C754.449 51.7131 753.302 51.9666 751.716 52.4133C750.131 52.8601 749.285 53.0853 749.178 53.089C748.965 53.0964 748.849 52.8159 748.829 52.2473L748.808 51.661C748.803 51.5189 748.766 51.4668 748.696 51.5049C747.132 52.5556 745.497 53.1108 743.791 53.1704C741.481 53.251 739.997 52.0043 739.338 49.4302C739.168 48.6534 739.069 47.8564 739.041 47.0391L738.916 43.4679C738.906 43.1837 738.856 42.7585 738.765 42.1924C738.674 41.6264 738.591 41.2735 738.515 41.1339C738.324 40.7847 737.713 40.5926 736.68 40.5575C736.466 40.5295 736.323 40.5167 736.252 40.5191C736.215 40.4848 736.191 40.3078 736.18 39.988C736.167 39.6326 736.197 39.4537 736.268 39.4513C737.614 39.2975 738.92 39.0029 740.186 38.5673C741.45 38.0962 742.414 37.689 743.078 37.3456C743.222 37.3762 743.349 37.4607 743.461 37.5991C743.608 37.7363 743.683 37.8404 743.685 37.9115C743.619 38.0561 743.559 38.3606 743.504 38.825C743.449 39.2894 743.409 39.6822 743.385 40.0032C743.396 40.323 743.41 40.7317 743.427 41.2291L743.569 45.28C743.635 47.1633 743.863 48.5962 744.253 49.5788C744.642 50.5258 745.387 50.98 746.488 50.9416C746.986 50.9242 747.478 50.7647 747.966 50.463C748.489 50.1602 748.746 49.8666 748.736 49.5823L748.51 43.1329C748.5 42.8486 748.45 42.4235 748.359 41.8574C748.268 41.2913 748.185 40.9385 748.109 40.7988C747.879 40.3443 747.125 40.1394 745.846 40.1841C745.774 40.151 745.732 39.9746 745.721 39.6548C745.708 39.2995 745.755 39.1199 745.862 39.1162ZM754.27 38.7693C754.54 38.3685 754.9 37.9646 755.348 37.5575L756.894 37.5036L756.828 35.638C757.482 35.0104 758.1 34.3484 758.68 33.6522C759.296 32.9547 759.862 32.3302 760.376 31.7786C760.584 31.629 760.778 31.5688 760.957 31.5982C761.134 31.592 761.243 31.6416 761.282 31.7469L761.477 37.3435L765.475 37.2039C765.617 37.1989 765.694 37.3741 765.707 37.7295C765.718 38.0493 765.465 38.4317 764.946 38.8767L761.535 38.9958L761.839 47.6839C761.901 49.4606 762.571 50.3266 763.85 50.2819C764.241 50.2682 764.628 50.148 765.012 49.9211C765.394 49.6588 765.619 49.4908 765.688 49.4172C765.835 49.5544 765.911 49.6763 765.914 49.7829C765.925 50.1027 765.862 50.3362 765.725 50.4833C765.624 50.6291 765.452 50.813 765.211 51.0349C765.005 51.2555 764.746 51.478 764.434 51.7024C763.53 52.3032 762.758 52.6148 762.118 52.6371C761.514 52.6582 760.925 52.5899 760.35 52.432C759.812 52.3085 759.322 52.041 758.881 51.6295C757.855 50.7759 757.311 49.443 757.247 47.6307L756.951 39.1559L754.446 39.2434C754.337 39.176 754.278 39.018 754.27 38.7693ZM773.955 36.8544C773.89 37.0346 773.789 37.6963 773.651 38.8396L773.93 46.8347C773.992 48.6114 774.081 49.64 774.198 49.9206C774.313 50.1656 774.462 50.3383 774.643 50.4387C774.823 50.5035 775.021 50.5678 775.237 50.6314C775.595 50.6901 775.969 50.7126 776.36 50.6989C776.436 50.8386 776.479 51.0683 776.491 51.3881C776.502 51.7079 776.474 51.9224 776.406 52.0314C774.623 51.9158 773.092 51.8803 771.813 51.925C770.356 51.9759 768.743 52.1212 766.972 52.3609C766.897 52.2568 766.854 52.0448 766.843 51.725C766.832 51.4052 766.859 51.173 766.926 51.0284C767.672 51.0023 768.22 50.912 768.57 50.7575C768.92 50.5674 769.128 50.4178 769.195 50.3087C769.358 49.8761 769.408 48.7715 769.346 46.9948L769.186 42.4109C769.176 42.1266 769.126 41.7015 769.035 41.1354C768.944 40.5693 768.861 40.2165 768.784 40.0768C768.52 39.6236 767.765 39.4187 766.522 39.4621C766.449 39.429 766.408 39.2526 766.396 38.9328C766.42 38.5762 766.467 38.3967 766.538 38.3942C767.884 38.2405 769.19 37.9458 770.456 37.5103C771.72 37.0392 772.684 36.6319 773.348 36.2886C773.456 36.3204 773.584 36.4049 773.731 36.542C773.878 36.6792 773.953 36.7833 773.955 36.8544ZM768.181 30.4387C768.156 29.728 768.367 29.1336 768.813 28.6555C769.293 28.1407 769.888 27.8709 770.599 27.8461C771.309 27.8212 771.922 28.0489 772.437 28.529C772.951 28.9735 773.22 29.5512 773.245 30.2618C773.269 30.9725 773.042 31.5853 772.562 32.1001C772.082 32.615 771.486 32.8848 770.776 32.9096C770.065 32.9344 769.452 32.7068 768.937 32.2267C768.458 31.7454 768.206 31.1494 768.181 30.4387ZM784.233 37.296C782.634 37.3518 781.792 38.6976 781.706 41.3333C781.659 42.0465 781.649 42.7584 781.674 43.4691C781.698 44.1797 781.779 44.9596 781.915 45.8087C782.086 46.621 782.343 47.3592 782.686 48.0232C783.417 49.5986 784.351 50.3665 785.489 50.3268C787.159 50.2684 788.055 48.9386 788.178 46.3372C788.19 45.6608 788.183 44.9672 788.158 44.2566C788.133 43.5459 788.035 42.7666 787.863 41.9188C787.691 41.0709 787.434 40.315 787.09 39.651C786.358 38.04 785.406 37.255 784.233 37.296ZM784.609 35.842C785.817 35.7998 786.926 35.9567 787.934 36.3129C788.978 36.6678 789.886 37.1875 790.657 37.8721C792.237 39.3112 793.066 41.1501 793.144 43.3887C793.221 45.5918 792.489 47.5385 790.947 49.2289C789.475 50.8813 787.566 51.7485 785.221 51.8304C782.769 51.916 780.752 51.2215 779.171 49.7469C777.59 48.2723 776.761 46.4334 776.684 44.2303C776.608 42.0628 777.323 40.1344 778.83 38.4452C780.337 36.7916 782.264 35.9239 784.609 35.842ZM799.296 50.9653C797.84 51.0161 796.226 51.1614 794.455 51.4012C794.381 51.297 794.338 51.0851 794.326 50.7653C794.315 50.4455 794.343 50.2132 794.409 50.0686C795.155 50.0426 795.703 49.9523 796.054 49.7977C796.403 49.6076 796.611 49.4581 796.678 49.349C796.841 48.9164 796.892 47.8117 796.83 46.035L796.669 41.4512C796.66 41.1669 796.609 40.7417 796.518 40.1757C796.427 39.6096 796.344 39.2567 796.268 39.1171C796.003 38.6638 795.249 38.4589 794.005 38.5023C793.933 38.4693 793.891 38.2929 793.88 37.9731C793.903 37.6165 793.95 37.437 794.021 37.4345C795.368 37.2807 796.674 36.9861 797.939 36.5505C799.204 36.0794 800.168 35.6722 800.832 35.3288C800.938 35.3251 801.066 35.4096 801.214 35.5823C801.361 35.7195 801.418 35.8242 801.385 35.8965C801.388 35.9676 801.375 36.1104 801.347 36.3248C801.353 36.5025 801.325 36.7347 801.264 37.0214C801.111 37.7383 801.088 38.0949 801.195 38.0912C801.23 38.0899 801.265 38.0709 801.3 38.0341C801.334 37.9974 801.386 37.96 801.456 37.922C801.933 37.336 802.52 36.8175 803.216 36.3663C804.434 35.5766 805.487 35.1663 806.375 35.1353C807.299 35.103 808.069 35.254 808.685 35.5882C809.336 35.8857 809.851 36.3658 810.23 37.0285C810.876 38.2156 811.251 40.2838 811.354 43.2331L811.434 45.525C811.496 47.3017 811.585 48.3303 811.702 48.6109C811.817 48.8559 811.965 49.0286 812.147 49.129C812.363 49.1926 812.596 49.2556 812.847 49.318C813.276 49.3742 813.686 49.3955 814.077 49.3818C814.188 49.5202 814.232 49.75 814.208 50.071C814.219 50.3908 814.191 50.6052 814.123 50.7143C812.447 50.595 810.845 50.562 809.317 50.6153C808.144 50.6563 806.673 50.7966 804.902 51.0363C804.828 50.9322 804.785 50.7203 804.773 50.4004C804.762 50.0806 804.79 49.8484 804.856 49.7038C805.105 49.6951 805.459 49.6472 805.918 49.56C806.376 49.4373 806.653 49.2141 806.749 48.8906C806.877 48.4948 806.911 47.4263 806.85 45.6851L806.753 42.9135C806.638 39.6088 805.798 37.9838 804.235 38.0384C803.56 38.062 802.979 38.2423 802.493 38.5795C801.627 39.2501 801.2 39.7631 801.212 40.1185L801.413 45.875C801.475 47.6516 801.565 48.6803 801.681 48.9608C801.797 49.2058 801.945 49.3785 802.126 49.4789C802.306 49.5438 802.504 49.608 802.72 49.6717C803.078 49.7303 803.452 49.7528 803.843 49.7392C803.919 49.8788 803.963 50.1086 803.974 50.4284C803.985 50.7482 803.957 50.9626 803.89 51.0717C802.107 50.9561 800.576 50.9206 799.296 50.9653ZM814.732 45.5166C814.726 45.3389 814.9 45.2439 815.256 45.2315C815.611 45.2191 815.864 45.3348 816.015 45.5785C816.312 46.9557 816.88 47.9498 817.72 48.5608C818.341 49.0372 819.025 49.2624 819.771 49.2363C820.518 49.2103 821.062 48.9956 821.403 48.5923C821.745 48.189 821.908 47.7564 821.892 47.2945C821.875 46.8325 821.738 46.4638 821.479 46.1882C821.255 45.8758 820.961 45.6192 820.599 45.4185C820.271 45.2164 819.891 45.0162 819.457 44.8179C817.869 44.1619 816.524 43.3549 815.423 42.3972C814.689 41.7469 814.304 40.9065 814.268 39.876C814.231 38.81 814.415 37.9675 814.82 37.3485C815.225 36.7296 815.741 36.2135 816.367 35.8003C817.549 35.0119 818.975 34.5885 820.645 34.5302C821.463 34.5017 822.176 34.5657 822.787 34.7222C823.396 34.8433 824.005 34.9643 824.614 35.0854C824.858 35.9663 825.067 36.8662 825.242 37.7851C825.416 38.704 825.506 39.2523 825.513 39.43C825.518 39.5721 825.36 39.6488 825.04 39.6599C824.721 39.6711 824.45 39.5738 824.23 39.368C823.909 38.3475 823.564 37.6124 823.192 37.1629C822.416 36.3362 821.477 35.942 820.376 35.9805C819.772 36.0016 819.28 36.1789 818.9 36.5123C818.556 36.8445 818.393 37.2771 818.412 37.8101C818.43 38.3431 818.552 38.7658 818.776 39.0782C819.036 39.3893 819.33 39.6637 819.659 39.9012C820.022 40.102 820.419 40.2838 820.852 40.4466C821.285 40.6094 821.718 40.7899 822.152 40.9882C822.584 41.151 823.036 41.3487 823.506 41.5813C823.977 41.8139 824.396 42.1017 824.764 42.4446C825.61 43.2333 826.052 44.1785 826.09 45.28C826.128 46.3461 825.961 47.1879 825.592 47.8057C825.222 48.4234 824.724 48.9388 824.098 49.3521C822.916 50.1405 821.33 50.5694 819.34 50.6389C818.523 50.6674 817.738 50.6059 816.986 50.4543C816.232 50.2671 815.622 50.1283 815.157 50.0379C815.068 49.5429 814.992 48.9051 814.93 48.1246C814.866 47.3086 814.809 46.7057 814.76 46.3161C814.745 45.8897 814.736 45.6232 814.732 45.5166Z" fill="white"/>
<path d="M938.524 24.7016C940.591 24.8073 942.033 24.8458 942.85 24.8173C943.703 24.7875 944.43 24.7265 945.032 24.6344C945.669 24.541 946.342 24.4641 947.052 24.4038C947.127 24.5079 947.17 24.7198 947.181 25.0396C947.192 25.3594 947.164 25.5917 947.098 25.7363C946.174 25.7685 945.502 25.8809 945.082 26.0735C944.698 26.2648 944.473 26.4506 944.408 26.6307C944.119 27.5302 944.009 28.9572 944.077 30.9115L944.315 37.734C944.433 41.1098 943.548 43.7734 941.659 45.7249C939.976 47.4558 937.767 48.3691 935.031 48.4646C933.538 48.5167 932.126 48.317 930.794 47.8654C929.461 47.3783 928.387 46.6865 927.573 45.7899C926.793 44.8566 926.222 43.7736 925.859 42.5411C925.53 41.2718 925.333 39.7133 925.268 37.8655L925.008 30.4034C924.982 29.6572 924.942 29.0182 924.887 28.4864C924.869 27.9534 924.802 27.5644 924.687 27.3194C924.571 27.0744 924.406 26.9201 924.19 26.8564C924.01 26.7916 923.794 26.728 923.543 26.6656C923.114 26.6094 922.704 26.5881 922.313 26.6018C922.237 26.4621 922.194 26.2324 922.183 25.9126C922.172 25.5928 922.2 25.3783 922.267 25.2693C924.05 25.3849 925.723 25.4154 927.287 25.3608C928.85 25.3062 930.517 25.159 932.288 24.9193C932.362 25.0235 932.405 25.2354 932.416 25.5552C932.428 25.875 932.4 26.1072 932.334 26.2519C931.694 26.2742 931.164 26.3639 930.742 26.5209C930.321 26.6779 930.094 26.8104 930.063 26.9182C929.902 27.4219 929.852 28.5265 929.911 30.2322L930.137 36.6816C930.179 37.8897 930.252 38.9723 930.357 39.9292C930.496 40.8493 930.758 41.7296 931.143 42.57C931.563 43.4092 932.013 44.0517 932.491 44.4975C933.003 44.9065 933.512 45.209 934.017 45.4048C934.74 45.7353 935.546 45.8851 936.434 45.854C937.322 45.823 938.098 45.6358 938.762 45.2924C939.426 44.9491 940.013 44.4127 940.521 43.6834C941.674 42.0777 942.201 39.8536 942.102 37.0108L941.894 31.0411C941.824 29.0512 941.614 27.6177 941.263 26.7405C941.148 26.4955 940.822 26.329 940.285 26.241C939.639 26.0857 939.068 26.0167 938.57 26.0341C938.494 25.8944 938.451 25.6647 938.439 25.3449C938.428 25.0251 938.456 24.8106 938.524 24.7016ZM948.541 24.3518C950.324 24.4674 952.015 24.4973 953.614 24.4414C955.142 24.3881 956.791 24.2415 958.561 24.0018C958.636 24.106 958.679 24.3179 958.69 24.6377C958.701 24.9575 958.674 25.1897 958.608 25.3344C957.933 25.3579 957.402 25.4476 957.016 25.6034C956.63 25.7592 956.421 25.891 956.39 25.9988C956.226 26.3959 956.135 26.8616 956.118 27.3958C956.137 27.9288 956.159 28.5684 956.185 29.3147L956.638 42.2668C956.665 43.0485 956.688 43.7059 956.706 44.2389C956.761 44.7707 956.845 45.1591 956.961 45.4041C957.075 45.6135 957.222 45.7685 957.404 45.8689C957.619 45.9325 957.835 45.9961 958.051 46.0598C958.444 46.1172 958.872 46.1378 959.334 46.1217C959.41 46.2613 959.453 46.4911 959.465 46.8109C959.476 47.1307 959.448 47.3451 959.38 47.4542C956.029 47.251 952.689 47.3677 949.36 47.8041C949.285 47.7 949.242 47.488 949.231 47.1682C949.22 46.8484 949.247 46.6162 949.313 46.4716C950.059 46.4455 950.608 46.3552 950.958 46.2007C951.307 46.0106 951.515 45.861 951.583 45.752C951.746 45.3194 951.796 44.2147 951.734 42.438L951.282 29.4859C951.222 27.7803 951.095 26.6818 950.9 26.1906C950.637 25.8084 949.866 25.6396 948.587 25.6843C948.511 25.5446 948.468 25.3149 948.456 24.9951C948.445 24.6753 948.473 24.4608 948.541 24.3518ZM963.175 47.6419C963.145 47.7852 962.991 47.9507 962.713 48.1383C962.47 48.3247 962.136 48.4253 961.709 48.4402C961.105 48.4613 960.8 48.383 960.794 48.2053L970.246 20.8722C970.378 20.5829 970.566 20.3807 970.811 20.2654C971.056 20.1501 971.374 20.0856 971.765 20.072C972.156 20.0583 972.371 20.0864 972.409 20.1562C972.482 20.2248 972.555 20.2756 972.627 20.3087L963.175 47.6419ZM990.484 22.8871C992.551 22.9928 993.994 23.0313 994.811 23.0028C995.664 22.973 996.391 22.912 996.993 22.8199C997.63 22.7265 998.303 22.6496 999.012 22.5893C999.087 22.6934 999.13 22.9053 999.141 23.2251C999.152 23.5449 999.125 23.7772 999.059 23.9218C998.135 23.954 997.463 24.0664 997.043 24.259C996.658 24.4503 996.433 24.6361 996.368 24.8162C996.08 25.7157 995.969 27.1427 996.038 29.097L996.276 35.9195C996.394 39.2953 995.508 41.9589 993.62 43.9104C991.937 45.6413 989.728 46.5546 986.991 46.6501C985.499 46.7022 984.087 46.5025 982.755 46.0509C981.421 45.5638 980.348 44.872 979.534 43.9754C978.754 43.0421 978.182 41.9591 977.819 40.7266C977.49 39.4573 977.293 37.8988 977.229 36.051L976.968 28.5889C976.942 27.8427 976.902 27.2037 976.848 26.6719C976.829 26.1389 976.762 25.7499 976.647 25.5049C976.532 25.2599 976.366 25.1056 976.151 25.0419C975.971 24.9771 975.755 24.9135 975.504 24.8511C975.075 24.7949 974.665 24.7736 974.274 24.7873C974.198 24.6476 974.154 24.4179 974.143 24.0981C974.132 23.7783 974.16 23.5638 974.227 23.4548C976.01 23.5704 977.684 23.6009 979.247 23.5463C980.811 23.4917 982.478 23.3445 984.248 23.1048C984.323 23.209 984.366 23.4209 984.377 23.7407C984.388 24.0605 984.361 24.2927 984.295 24.4374C983.655 24.4597 983.124 24.5494 982.703 24.7064C982.282 24.8634 982.055 24.9959 982.023 25.1037C981.863 25.6074 981.812 26.712 981.872 28.4177L982.097 34.8671C982.139 36.0752 982.213 37.1578 982.317 38.1147C982.456 39.0348 982.718 39.9151 983.103 40.7555C983.524 41.5947 983.973 42.2372 984.451 42.683C984.964 43.092 985.472 43.3945 985.977 43.5903C986.7 43.9208 987.506 44.0706 988.394 44.0395C989.283 44.0085 990.059 43.8213 990.723 43.4779C991.387 43.1346 991.973 42.5982 992.481 41.8689C993.635 40.2632 994.162 38.0391 994.063 35.1963L993.854 29.2266C993.785 27.2367 993.575 25.8032 993.224 24.926C993.108 24.681 992.782 24.5145 992.246 24.4265C991.6 24.2712 991.028 24.2022 990.531 24.2196C990.455 24.0799 990.411 23.8502 990.4 23.5304C990.389 23.2106 990.417 22.9961 990.484 22.8871ZM1000.28 23.9324C1000.1 23.9031 999.961 23.8903 999.855 23.894C999.748 23.8977 999.688 23.6864 999.673 23.2599C999.658 22.8335 999.703 22.6007 999.808 22.5615C1003.22 22.5845 1005.13 22.5891 1005.52 22.5755C1005.91 22.5618 1007.52 22.4343 1010.36 22.1929C1010.4 22.2983 1010.43 22.5464 1010.44 22.9373C1010.45 23.3281 1010.41 23.5254 1010.3 23.5292C1009.13 23.5701 1008.52 23.8228 1008.46 24.2872C1008.47 24.536 1008.59 24.7987 1008.81 25.0756L1012.91 30.8561C1013.31 30.2726 1013.77 29.6518 1014.28 28.9936C1014.83 28.2986 1015.34 27.6404 1015.81 27.0189C1016.87 25.5591 1017.39 24.6871 1017.38 24.4028C1017.37 24.083 1017.07 23.8264 1016.5 23.6331C1015.92 23.4397 1015.33 23.3536 1014.73 23.3747C1014.62 23.3784 1014.56 23.2381 1014.55 22.9538C1014.53 22.4208 1014.56 22.1176 1014.63 22.044C1016.16 22.1683 1017.71 22.2032 1019.27 22.1486C1020.87 22.0927 1022.29 21.9543 1023.53 21.7332C1023.6 21.8373 1023.65 22.0848 1023.66 22.4757C1023.67 22.8665 1023.63 23.0638 1023.52 23.0676C1023.45 23.07 1023.27 23.094 1022.99 23.1395C1022.74 23.1482 1022.42 23.2126 1022.04 23.3329C1021.09 23.6862 1020.29 24.2477 1019.64 25.0175L1013.92 32.3683C1016.05 35.389 1017.53 37.472 1018.35 38.6174C1019.21 39.7259 1019.88 40.6097 1020.37 41.2687C1020.85 41.9277 1021.19 42.3785 1021.37 42.621C1021.6 42.8268 1021.89 43.03 1022.25 43.2308C1022.61 43.3961 1022.97 43.5258 1023.33 43.62C1023.87 43.7791 1024.39 43.8499 1024.89 43.8325C1024.96 44.0077 1025.01 44.2375 1025.02 44.5217C1025.03 44.7705 1025 44.9849 1024.93 45.1651C1023.51 45.0726 1021.78 45.0617 1019.75 45.1324C1017.73 45.2031 1015.72 45.3443 1013.74 45.5559C1013.63 45.4531 1013.58 45.2056 1013.61 44.8135C1013.63 44.4213 1013.68 44.224 1013.75 44.2216C1013.85 44.2178 1014.01 44.1945 1014.22 44.1515C1014.44 44.1085 1014.65 44.0478 1014.86 43.9693C1015.42 43.7007 1015.69 43.442 1015.68 43.1933C1015.68 43.0511 1015.64 42.9102 1015.56 42.7706L1010.63 35.8987C1009.71 37.1048 1008.66 38.6179 1007.48 40.438C1006.33 42.2214 1005.76 43.2019 1005.77 43.3796C1005.77 43.5572 1005.88 43.7134 1006.1 43.8481C1006.32 43.9828 1006.57 44.0985 1006.86 44.1952C1007.33 44.3567 1007.95 44.4238 1008.74 44.3965C1008.96 44.8155 1009.01 45.2584 1008.89 45.7253C1007.68 45.6254 1006.2 45.6058 1004.46 45.6666C1002.72 45.7274 1001.14 45.8537 999.721 46.0455C999.646 45.9413 999.603 45.7294 999.592 45.4096C999.581 45.0898 999.609 44.8576 999.675 44.7129C1000.67 44.6782 1001.48 44.4898 1002.11 44.1476C1002.74 43.7699 1003.19 43.3807 1003.46 42.9799L1009.39 34.1807L1004.23 26.8365C1003.89 26.3502 1003.53 25.8468 1003.16 25.3262C1002.82 24.8043 1002.54 24.4938 1002.33 24.3947C1002.14 24.2587 1001.93 24.1596 1001.68 24.0972C1001.46 24.0336 1001.23 23.9883 1000.98 23.9615C1000.73 23.9346 1000.5 23.9249 1000.28 23.9324ZM1041.73 43.2977C1042.58 43.268 1043.34 42.9925 1044 42.4715C1044.65 41.9149 1044.96 41.0148 1044.91 39.7711C1044.88 38.7051 1044.18 37.6087 1042.83 36.482C1042.27 36.0031 1041.69 35.5788 1041.07 35.209C1040.46 34.8393 1039.87 34.486 1039.33 34.1493C1038.78 33.777 1038.18 33.3889 1037.53 32.9848C1036.91 32.5795 1036.34 32.119 1035.82 31.6034C1034.75 30.4667 1034.19 29.0811 1034.13 27.4466C1034.07 25.7054 1034.82 24.1673 1036.37 22.8322C1037.82 21.572 1039.51 20.9083 1041.43 20.8413C1042.46 20.8053 1043.42 20.8784 1044.31 21.0606C1045.25 21.2416 1046.25 21.42 1047.32 21.596C1047.46 22.5162 1047.56 23.4553 1047.63 24.4135C1047.74 25.3704 1047.84 26.3807 1047.95 27.4442C1047.82 27.5913 1047.69 27.6667 1047.59 27.6704C1046.91 27.694 1046.55 27.6176 1046.51 27.4412C1046.29 26.2747 1045.77 25.1722 1044.96 24.1335C1043.99 22.8865 1042.88 22.2847 1041.64 22.3282C1040.93 22.353 1040.26 22.5898 1039.63 23.0385C1039.01 23.4873 1038.72 24.2979 1038.76 25.4706C1038.81 26.9985 1040.57 28.8229 1044.02 30.9436C1044.6 31.3146 1045.2 31.7028 1045.82 32.1081C1046.47 32.4767 1047.06 32.9187 1047.58 33.4344C1048.76 34.6739 1049.38 36.1998 1049.44 38.012C1049.51 39.8953 1048.76 41.4867 1047.21 42.7862C1045.72 44.0477 1044 44.7126 1042.05 44.7809C1039.99 44.8528 1037.74 44.6112 1035.3 44.056C1034.88 42.1851 1034.6 40.7896 1034.46 39.8694C1034.36 38.948 1034.28 38.3635 1034.24 38.1161C1034.3 38.007 1034.46 37.8948 1034.71 37.7795C1034.99 37.663 1035.22 37.6016 1035.39 37.5954C1035.57 37.5892 1035.68 37.6743 1035.72 37.8507C1035.94 38.9816 1036.59 40.1509 1037.66 41.3586C1038.92 42.7022 1040.27 43.3486 1041.73 43.2977ZM1058 29.5481C1056.4 29.6039 1055.56 30.9497 1055.48 33.5854C1055.43 34.2986 1055.42 35.0105 1055.44 35.7212C1055.47 36.4319 1055.55 37.2117 1055.69 38.0608C1055.86 38.8731 1056.11 39.6113 1056.46 40.2753C1057.19 41.8507 1058.12 42.6186 1059.26 42.5789C1060.93 42.5206 1061.82 41.1907 1061.95 38.5893C1061.96 37.9129 1061.95 37.2193 1061.93 36.5087C1061.9 35.798 1061.8 35.0187 1061.63 34.1709C1061.46 33.323 1061.2 32.5671 1060.86 31.9031C1060.13 30.2922 1059.18 29.5071 1058 29.5481ZM1058.38 28.0941C1059.59 28.0519 1060.7 28.2089 1061.7 28.565C1062.75 28.9199 1063.66 29.4396 1064.43 30.1242C1066.01 31.5633 1066.84 33.4022 1066.91 35.6408C1066.99 37.8439 1066.26 39.7906 1064.72 41.481C1063.24 43.1334 1061.34 44.0006 1058.99 44.0825C1056.54 44.1681 1054.52 43.4736 1052.94 41.999C1051.36 40.5244 1050.53 38.6855 1050.45 36.4824C1050.38 34.3149 1051.09 32.3865 1052.6 30.6974C1054.11 29.0437 1056.03 28.176 1058.38 28.0941ZM1077.39 43.3331C1075.61 43.2175 1073.99 43.1851 1072.53 43.236C1071.11 43.2856 1069.52 43.4303 1067.75 43.67C1067.67 43.5659 1067.63 43.3539 1067.62 43.0341C1067.61 42.7143 1067.63 42.4821 1067.7 42.3375C1068.45 42.3114 1068.99 42.2211 1069.34 42.0666C1069.69 41.8765 1069.88 41.7275 1069.92 41.6197C1070.08 41.2582 1070.15 40.8109 1070.14 40.2779C1070.15 39.7436 1070.15 39.0856 1070.12 38.3039L1069.61 23.8061C1069.59 23.0243 1069.52 22.5287 1069.4 22.3192C1069.29 22.0742 1069.12 21.9199 1068.9 21.8563C1068.72 21.7914 1068.53 21.7449 1068.31 21.7168C1067.81 21.5921 1067.43 21.534 1067.19 21.5427C1067.12 21.5452 1067.06 21.3872 1067.01 21.0686C1067 20.7133 1067.04 20.4982 1067.15 20.4234C1069.52 20.0915 1071.58 19.6103 1073.34 18.9797C1073.66 18.8619 1073.83 18.8024 1073.87 18.8012C1074.12 18.8636 1074.3 19.0706 1074.42 19.4222C1074.37 19.8511 1074.31 20.2622 1074.25 20.6556C1074.16 21.1923 1074.14 21.9759 1074.17 23.0064L1074.7 38.1438C1074.77 39.9205 1074.85 40.9491 1074.97 41.2297C1075.09 41.4747 1075.23 41.6474 1075.42 41.7478C1075.63 41.8114 1075.85 41.875 1076.06 41.9387C1076.46 41.9961 1076.88 42.0167 1077.35 42.0006C1077.42 42.1402 1077.47 42.37 1077.48 42.6898C1077.49 43.0096 1077.46 43.224 1077.39 43.3331ZM1085.84 29.0562C1088.14 28.7979 1090.4 28.0967 1092.6 26.9525C1092.74 26.983 1092.89 27.0669 1093.03 27.2041C1093.18 27.3412 1093.26 27.4454 1093.26 27.5164C1093.19 27.6966 1093.12 28.1794 1093.04 28.9649C1092.96 29.7148 1092.93 30.3385 1092.95 30.836L1093.23 38.8311C1093.24 39.1154 1093.25 39.3641 1093.25 39.5773C1093.3 39.7893 1093.41 39.981 1093.59 40.1525C1093.81 40.3582 1094.35 40.4462 1095.2 40.4164C1095.28 40.5561 1095.32 40.7503 1095.33 40.999C1095.34 41.2122 1095.27 41.4101 1095.14 41.5928C1094.43 41.6531 1093.28 41.9066 1091.7 42.3534C1090.11 42.8001 1089.26 43.0253 1089.16 43.029C1088.94 43.0365 1088.83 42.7559 1088.81 42.1874L1088.79 41.6011C1088.78 41.4589 1088.75 41.4069 1088.68 41.4449C1087.11 42.4957 1085.48 43.0508 1083.77 43.1104C1081.46 43.1911 1079.98 41.9443 1079.32 39.3702C1079.15 38.5934 1079.05 37.7964 1079.02 36.9791L1078.9 33.408C1078.89 33.1237 1078.84 32.6985 1078.74 32.1325C1078.65 31.5664 1078.57 31.2135 1078.49 31.0739C1078.3 30.7248 1077.69 30.5326 1076.66 30.4976C1076.44 30.4695 1076.3 30.4567 1076.23 30.4592C1076.19 30.4249 1076.17 30.2478 1076.16 29.928C1076.15 29.5727 1076.18 29.3938 1076.25 29.3913C1077.59 29.2375 1078.9 28.9429 1080.17 28.5073C1081.43 28.0362 1082.39 27.629 1083.06 27.2856C1083.2 27.3162 1083.33 27.4007 1083.44 27.5391C1083.59 27.6763 1083.66 27.7804 1083.66 27.8515C1083.6 27.9961 1083.54 28.3006 1083.48 28.765C1083.43 29.2295 1083.39 29.6222 1083.36 29.9432C1083.38 30.263 1083.39 30.6717 1083.41 31.1692L1083.55 35.22C1083.61 37.1033 1083.84 38.5362 1084.23 39.5188C1084.62 40.4658 1085.37 40.92 1086.47 40.8816C1086.97 40.8642 1087.46 40.7047 1087.95 40.4031C1088.47 40.1002 1088.72 39.8066 1088.71 39.5223L1088.49 33.0729C1088.48 32.7887 1088.43 32.3635 1088.34 31.7974C1088.25 31.2314 1088.16 30.8785 1088.09 30.7389C1087.86 30.2844 1087.1 30.0794 1085.83 30.1241C1085.75 30.0911 1085.71 29.9146 1085.7 29.5948C1085.69 29.2395 1085.73 29.06 1085.84 29.0562ZM1094.25 28.7093C1094.52 28.3085 1094.88 27.9046 1095.33 27.4976L1096.87 27.4436L1096.81 25.5781C1097.46 24.9504 1098.08 24.2885 1098.66 23.5922C1099.28 22.8947 1099.84 22.2702 1100.36 21.7186C1100.56 21.569 1100.76 21.5089 1100.94 21.5382C1101.11 21.532 1101.22 21.5816 1101.26 21.6869L1101.46 27.2835L1105.45 27.1439C1105.6 27.139 1105.67 27.3141 1105.69 27.6695C1105.7 27.9893 1105.44 28.3717 1104.93 28.8167L1101.51 28.9358L1101.82 37.6239C1101.88 39.4006 1102.55 40.2666 1103.83 40.2219C1104.22 40.2083 1104.61 40.088 1104.99 39.8612C1105.37 39.5988 1105.6 39.4308 1105.67 39.3573C1105.81 39.4944 1105.89 39.6163 1105.89 39.7229C1105.9 40.0427 1105.84 40.2762 1105.7 40.4233C1105.6 40.5691 1105.43 40.753 1105.19 40.9749C1104.98 41.1955 1104.73 41.4181 1104.41 41.6424C1103.51 42.2432 1102.74 42.5548 1102.1 42.5771C1101.49 42.5982 1100.9 42.5299 1100.33 42.3721C1099.79 42.2485 1099.3 41.981 1098.86 41.5695C1097.83 40.7159 1097.29 39.383 1097.23 37.5707L1096.93 29.0959L1094.43 29.1834C1094.32 29.1161 1094.26 28.958 1094.25 28.7093ZM1113.93 26.7944C1113.87 26.9746 1113.77 27.6363 1113.63 28.7796L1113.91 36.7747C1113.97 38.5514 1114.06 39.58 1114.18 39.8606C1114.29 40.1056 1114.44 40.2783 1114.62 40.3787C1114.8 40.4436 1115 40.5078 1115.22 40.5714C1115.57 40.6301 1115.95 40.6526 1116.34 40.6389C1116.42 40.7786 1116.46 41.0083 1116.47 41.3281C1116.48 41.6479 1116.45 41.8624 1116.39 41.9715C1114.6 41.8558 1113.07 41.8203 1111.79 41.865C1110.34 41.9159 1108.72 42.0612 1106.95 42.3009C1106.88 42.1968 1106.83 41.9848 1106.82 41.665C1106.81 41.3452 1106.84 41.113 1106.9 40.9684C1107.65 40.9423 1108.2 40.852 1108.55 40.6975C1108.9 40.5074 1109.11 40.3578 1109.17 40.2487C1109.34 39.8161 1109.39 38.7115 1109.33 36.9348L1109.17 32.3509C1109.16 32.0666 1109.11 31.6415 1109.01 31.0754C1108.92 30.5093 1108.84 30.1565 1108.76 30.0168C1108.5 29.5636 1107.74 29.3587 1106.5 29.4021C1106.43 29.369 1106.39 29.1926 1106.38 28.8728C1106.4 28.5162 1106.45 28.3367 1106.52 28.3342C1107.86 28.1805 1109.17 27.8858 1110.44 27.4503C1111.7 26.9792 1112.66 26.572 1113.33 26.2286C1113.44 26.2604 1113.56 26.3449 1113.71 26.4821C1113.86 26.6192 1113.93 26.7234 1113.93 26.7944ZM1108.16 20.3787C1108.14 19.668 1108.35 19.0736 1108.79 18.5956C1109.27 18.0807 1109.87 17.8109 1110.58 17.7861C1111.29 17.7613 1111.9 17.9889 1112.42 18.469C1112.93 18.9136 1113.2 19.4912 1113.22 20.2019C1113.25 20.9125 1113.02 21.5253 1112.54 22.0402C1112.06 22.555 1111.47 22.8248 1110.75 22.8496C1110.04 22.8745 1109.43 22.6468 1108.92 22.1667C1108.44 21.6854 1108.19 21.0894 1108.16 20.3787ZM1124.21 27.236C1122.61 27.2918 1121.77 28.6376 1121.69 31.2733C1121.64 31.9865 1121.63 32.6984 1121.65 33.4091C1121.68 34.1198 1121.76 34.8996 1121.89 35.7487C1122.07 36.5611 1122.32 37.2992 1122.67 37.9632C1123.4 39.5386 1124.33 40.3065 1125.47 40.2668C1127.14 40.2085 1128.03 38.8786 1128.16 36.2772C1128.17 35.6008 1128.16 34.9073 1128.14 34.1966C1128.11 33.4859 1128.01 32.7066 1127.84 31.8588C1127.67 31.0109 1127.41 30.255 1127.07 29.591C1126.34 27.9801 1125.38 27.195 1124.21 27.236ZM1124.59 25.782C1125.8 25.7398 1126.91 25.8968 1127.91 26.2529C1128.96 26.6078 1129.87 27.1275 1130.64 27.8122C1132.22 29.2512 1133.05 31.0901 1133.12 33.3287C1133.2 35.5318 1132.47 37.4786 1130.93 39.169C1129.45 40.8213 1127.55 41.6885 1125.2 41.7704C1122.75 41.856 1120.73 41.1615 1119.15 39.6869C1117.57 38.2123 1116.74 36.3735 1116.66 34.1704C1116.59 32.0028 1117.3 30.0744 1118.81 28.3853C1120.32 26.7316 1122.24 25.8639 1124.59 25.782ZM1139.28 40.9053C1137.82 40.9562 1136.21 41.1015 1134.43 41.3412C1134.36 41.237 1134.32 41.0251 1134.31 40.7053C1134.29 40.3855 1134.32 40.1533 1134.39 40.0086C1135.13 39.9826 1135.68 39.8923 1136.03 39.7377C1136.38 39.5477 1136.59 39.3981 1136.66 39.289C1136.82 38.8564 1136.87 37.7517 1136.81 35.975L1136.65 31.3912C1136.64 31.1069 1136.59 30.6817 1136.5 30.1157C1136.41 29.5496 1136.32 29.1968 1136.25 29.0571C1135.98 28.6038 1135.23 28.3989 1133.98 28.4424C1133.91 28.4093 1133.87 28.2329 1133.86 27.9131C1133.88 27.5565 1133.93 27.377 1134 27.3745C1135.35 27.2207 1136.65 26.9261 1137.92 26.4905C1139.18 26.0195 1140.15 25.6122 1140.81 25.2688C1140.92 25.2651 1141.05 25.3496 1141.19 25.5223C1141.34 25.6595 1141.4 25.7642 1141.36 25.8365C1141.37 25.9076 1141.35 26.0504 1141.33 26.2648C1141.33 26.4425 1141.3 26.6747 1141.24 26.9614C1141.09 27.6783 1141.07 28.0349 1141.17 28.0312C1141.21 28.0299 1141.24 28.0109 1141.28 27.9742C1141.31 27.9374 1141.37 27.9 1141.44 27.862C1141.91 27.2761 1142.5 26.7575 1143.2 26.3063C1144.41 25.5166 1145.47 25.1063 1146.35 25.0753C1147.28 25.043 1148.05 25.194 1148.66 25.5282C1149.32 25.8257 1149.83 26.3058 1150.21 26.9686C1150.86 28.1556 1151.23 30.2238 1151.33 33.1731L1151.41 35.465C1151.48 37.2417 1151.56 38.2704 1151.68 38.5509C1151.8 38.7959 1151.94 38.9686 1152.13 39.069C1152.34 39.1326 1152.58 39.1957 1152.83 39.258C1153.26 39.3142 1153.67 39.3355 1154.06 39.3218C1154.17 39.4602 1154.21 39.69 1154.19 40.011C1154.2 40.3308 1154.17 40.5453 1154.1 40.6543C1152.43 40.535 1150.82 40.502 1149.3 40.5554C1148.12 40.5963 1146.65 40.7366 1144.88 40.9764C1144.81 40.8722 1144.76 40.6603 1144.75 40.3405C1144.74 40.0207 1144.77 39.7884 1144.84 39.6438C1145.08 39.6351 1145.44 39.5872 1145.9 39.5C1146.36 39.3773 1146.63 39.1541 1146.73 38.8306C1146.86 38.4348 1146.89 37.3663 1146.83 35.6251L1146.73 32.8535C1146.62 29.5488 1145.78 27.9238 1144.21 27.9784C1143.54 28.002 1142.96 28.1823 1142.47 28.5195C1141.61 29.1902 1141.18 29.7031 1141.19 30.0585L1141.39 35.815C1141.45 37.5917 1141.54 38.6203 1141.66 38.9008C1141.78 39.1458 1141.92 39.3186 1142.11 39.419C1142.29 39.4838 1142.48 39.5481 1142.7 39.6117C1143.06 39.6703 1143.43 39.6928 1143.82 39.6792C1143.9 39.8188 1143.94 40.0486 1143.95 40.3684C1143.96 40.6882 1143.94 40.9026 1143.87 41.0117C1142.09 40.8961 1140.56 40.8606 1139.28 40.9053ZM1154.71 35.4566C1154.7 35.2789 1154.88 35.1839 1155.23 35.1715C1155.59 35.1591 1155.84 35.2748 1155.99 35.5185C1156.29 36.8957 1156.86 37.8898 1157.7 38.5009C1158.32 38.9772 1159 39.2024 1159.75 39.1763C1160.5 39.1503 1161.04 38.9356 1161.38 38.5323C1161.72 38.129 1161.89 37.6964 1161.87 37.2345C1161.85 36.7725 1161.72 36.4038 1161.46 36.1282C1161.23 35.8158 1160.94 35.5593 1160.58 35.3585C1160.25 35.1564 1159.87 34.9563 1159.44 34.7579C1157.85 34.1019 1156.5 33.295 1155.4 32.3372C1154.67 31.6869 1154.28 30.8465 1154.25 29.816C1154.21 28.75 1154.39 27.9075 1154.8 27.2886C1155.2 26.6696 1155.72 26.1535 1156.35 25.7403C1157.53 24.9519 1158.95 24.5285 1160.62 24.4702C1161.44 24.4417 1162.16 24.5057 1162.77 24.6623C1163.38 24.7833 1163.98 24.9043 1164.59 25.0254C1164.84 25.9063 1165.05 26.8062 1165.22 27.7251C1165.4 28.644 1165.49 29.1923 1165.49 29.37C1165.5 29.5121 1165.34 29.5888 1165.02 29.5999C1164.7 29.6111 1164.43 29.5138 1164.21 29.3081C1163.89 28.2875 1163.54 27.5525 1163.17 27.1029C1162.4 26.2762 1161.46 25.882 1160.36 25.9205C1159.75 25.9416 1159.26 26.1189 1158.88 26.4523C1158.54 26.7845 1158.37 27.2171 1158.39 27.7502C1158.41 28.2832 1158.53 28.7058 1158.76 29.0182C1159.02 29.3293 1159.31 29.6037 1159.64 29.8412C1160 30.042 1160.4 30.2238 1160.83 30.3866C1161.26 30.5494 1161.7 30.7299 1162.13 30.9282C1162.56 31.091 1163.02 31.2887 1163.49 31.5213C1163.96 31.7539 1164.38 32.0417 1164.74 32.3846C1165.59 33.1734 1166.03 34.1185 1166.07 35.2201C1166.11 36.2861 1165.94 37.1279 1165.57 37.7457C1165.2 38.3634 1164.7 38.8789 1164.08 39.2921C1162.9 40.0805 1161.31 40.5094 1159.32 40.5789C1158.5 40.6074 1157.72 40.5459 1156.96 40.3943C1156.21 40.2072 1155.6 40.0683 1155.14 39.9779C1155.05 39.4829 1154.97 38.8451 1154.91 38.0646C1154.84 37.2486 1154.79 36.6458 1154.74 36.2561C1154.72 35.8297 1154.71 35.5632 1154.71 35.4566Z" fill="white"/>
<path d="M228 48L231.592 59.0557H243.217L233.812 65.8885L237.405 76.9443L228 70.1115L218.595 76.9443L222.188 65.8885L212.783 59.0557H224.408L228 48Z" fill="white"/>
<path d="M540 37L543.592 48.0557H555.217L545.812 54.8885L549.405 65.9443L540 59.1115L530.595 65.9443L534.188 54.8885L524.783 48.0557H536.408L540 37Z" fill="white"/>
<path d="M879 23L882.592 34.0557H894.217L884.812 40.8885L888.405 51.9443L879 45.1115L869.595 51.9443L873.188 40.8885L863.783 34.0557H875.408L879 23Z" fill="white"/>
</svg>
