<svg width="1284" height="149" viewBox="0 0 1284 149" fill="none" xmlns="http://www.w3.org/2000/svg">
<rect x="-40.0989" y="24.3945" width="1349.2" height="123.48" transform="rotate(-1 -40.0989 24.3945)" fill="#DE112F" stroke="black"/>
<path d="M84.1137 79.402C86.1809 79.5077 87.5876 79.5475 88.3338 79.5214C89.1155 79.4941 89.7894 79.435 90.3555 79.3441C90.9215 79.2532 91.5593 79.1775 92.2687 79.1172C92.3435 79.2213 92.3865 79.4333 92.3977 79.7531C92.4088 80.0729 92.3814 80.3051 92.3153 80.4497C90.965 80.4968 90.1367 80.7214 89.8306 81.1235C89.26 82.104 88.8144 83.0979 88.4938 84.1053L83.333 101.363C83.1702 101.795 82.9535 102.212 82.6829 102.613C82.4465 102.977 82.204 103.163 81.9553 103.172C81.7065 103.18 81.4877 103.028 81.2989 102.714L74.9791 88.3128L70.9616 101.634C70.7707 102.282 70.5565 102.769 70.3189 103.098C70.0814 103.426 69.8737 103.594 69.6961 103.6C69.5184 103.606 69.3351 103.452 69.1463 103.139L62.18 85.5045C61.7899 84.5219 61.3477 83.5768 60.8535 82.669C60.6242 82.2145 60.2228 81.9262 59.6493 81.8039C59.0758 81.6816 58.6647 81.6248 58.4159 81.6335C58.3044 81.4951 58.2608 81.2653 58.2851 80.9443C58.274 80.6245 58.302 80.41 58.3694 80.301C60.1523 80.4166 61.8255 80.4471 63.389 80.3925C64.988 80.3367 66.6372 80.1901 68.3366 79.9529C68.4114 80.057 68.4544 80.269 68.4656 80.5888C68.5123 80.9073 68.4848 81.1396 68.3832 81.2854C66.9618 81.3351 66.2617 81.6619 66.2828 82.266C66.2927 82.5503 66.3952 82.938 66.5902 83.4293C66.8208 83.9193 67.0336 84.41 67.2287 84.9012L71.0264 94.3211L75.259 81.0453C75.3532 80.6862 75.5025 80.3786 75.7071 80.1224C75.9103 79.8307 76.083 79.6824 76.2252 79.6774C76.4028 79.6712 76.5696 79.8611 76.7253 80.247L83.2788 95.2274L86.3122 84.2882C86.765 82.9916 86.9809 82.0413 86.9598 81.4372C86.9511 81.1885 86.6606 81.0207 86.0884 80.934C85.3359 80.7824 84.6932 80.7159 84.1602 80.7345C84.0842 80.5948 84.0406 80.3651 84.0294 80.0453C84.0183 79.7255 84.0463 79.511 84.1137 79.402ZM97.6874 92.3228C97.7584 92.3203 97.9894 92.3122 98.3803 92.2986C98.8054 92.2482 99.2661 92.1965 99.7624 92.1436C100.898 92.0683 101.714 91.9865 102.209 91.8981C102.527 91.8514 102.68 91.6503 102.668 91.295C102.654 90.9041 102.604 90.4967 102.518 90.0728C102.432 89.6489 102.295 89.2801 102.106 88.9665C101.688 88.1984 101.159 87.8255 100.52 87.8479C99.9155 87.869 99.442 88.0634 99.0991 88.4311C98.7549 88.7633 98.4665 89.1648 98.2339 89.6354C97.8398 90.5742 97.6576 91.47 97.6874 92.3228ZM106.142 92.9881C104.017 93.2402 101.214 93.4804 97.7358 93.7086C97.8115 95.8762 98.4714 97.4541 99.7155 98.4424C100.665 99.1563 101.673 99.4947 102.739 99.4575C103.841 99.419 104.687 99.1938 105.277 98.7818C105.868 98.3699 106.352 97.9616 106.729 97.5571C107.016 97.6182 107.165 97.8087 107.176 98.1285C107.187 98.4483 107.125 98.7173 106.99 98.9355C106.89 99.1169 106.669 99.4092 106.327 99.8125C105.984 100.18 105.553 100.551 105.032 100.925C103.714 101.896 102.433 102.403 101.189 102.447C99.9458 102.49 98.8742 102.367 97.9747 102.079C97.0739 101.754 96.2748 101.284 95.5773 100.668C94.0721 99.3332 93.2809 97.5642 93.204 95.3611C93.1246 93.0869 93.8369 91.0697 95.3408 89.3095C96.9476 87.439 98.7282 86.4696 100.683 86.4013C102.779 86.3281 104.4 86.8941 105.545 88.0993C106.503 89.062 107.006 90.2007 107.052 91.5155C107.065 91.9063 106.988 92.247 106.82 92.5375C106.653 92.828 106.427 92.9782 106.142 92.9881ZM109.511 100.662C109.773 100.012 109.867 98.6215 109.793 96.4895L109.294 82.2049C109.267 81.4231 109.196 80.9275 109.082 80.718C108.967 80.473 108.819 80.3181 108.639 80.2532C108.459 80.1884 108.243 80.1425 107.993 80.1157C107.455 79.9921 107.08 79.9341 106.867 79.9415C106.796 79.944 106.755 79.7854 106.743 79.4656C106.695 79.1115 106.723 78.897 106.828 78.8222C108.811 78.5751 110.401 78.2527 111.597 77.8552C112.827 77.4209 113.477 77.2025 113.548 77.2C113.8 77.2624 113.985 77.4694 114.104 77.821C113.89 78.8247 113.806 80.0016 113.854 81.3519L114.053 87.0551C114.055 87.1262 114.059 87.2505 114.066 87.4282C114.106 87.5691 114.179 87.6021 114.283 87.5274C114.421 87.4158 114.612 87.2668 114.854 87.0805C115.132 86.8929 115.427 86.6869 115.74 86.4625C116.435 86.0113 117.192 85.7714 118.009 85.7429C118.827 85.7143 119.686 85.88 120.588 86.2398C121.489 86.5642 122.289 87.0521 122.987 87.7037C124.422 89.0411 125.177 90.7936 125.252 92.9612C125.345 95.6262 124.425 97.793 122.491 99.4615C120.801 100.979 118.676 101.783 116.118 101.872C115.194 101.904 114.337 101.81 113.546 101.588C112.755 101.331 112.092 101.212 111.559 101.231C111.026 101.249 110.638 101.352 110.396 101.538C110.325 101.541 110.161 101.44 109.905 101.235C109.648 100.995 109.516 100.804 109.511 100.662ZM116.022 88.4272C115.311 88.452 114.716 88.7219 114.236 89.2367C114.167 89.3103 114.135 89.4181 114.14 89.5602L114.442 98.195C114.463 98.799 114.676 99.3075 115.082 99.7202C115.523 100.132 116.064 100.326 116.703 100.304C117.343 100.282 117.87 100.103 118.286 99.7684C118.735 99.397 119.11 98.9391 119.412 98.395C120.012 97.2356 120.287 95.9629 120.239 94.5771C120.155 92.1608 119.706 90.5221 118.893 89.6611C118.08 88.8 117.123 88.3887 116.022 88.4272ZM141.646 79.314C141.583 79.5297 141.539 79.8159 141.516 80.1724C141.529 80.5278 141.622 83.2106 141.797 88.2209L142.075 96.1627C142.111 97.1932 142.244 97.9712 142.476 98.4968C142.592 98.7418 142.865 98.9279 143.296 99.0551C143.763 99.1812 144.228 99.2361 144.69 99.22C147.568 99.1194 149.654 98.2461 150.949 96.5999C152.242 94.9182 152.828 92.354 152.708 88.9072C152.591 85.567 151.666 83.0022 149.931 81.2127C148.307 79.5262 146.144 78.73 143.444 78.8243C143.017 78.8392 142.627 78.8707 142.273 78.9186C141.954 78.9653 141.745 79.0971 141.646 79.314ZM139.026 77.6445C140.554 77.5911 142.348 77.4929 144.406 77.3499C148.492 77.2072 151.796 78.0879 154.318 79.9922C156.841 81.9676 158.165 84.7319 158.29 88.2853C158.429 92.2651 157.201 95.332 154.608 97.4861C152.259 99.4893 149.041 100.562 144.955 100.705C141.579 100.823 138.186 100.941 134.774 101.06C134.7 100.956 134.657 100.744 134.645 100.425C134.634 100.105 134.662 99.8903 134.73 99.7812C134.872 99.7763 135.173 99.7302 135.632 99.643C136.41 99.5091 136.866 99.3153 136.999 99.0616C137.162 98.629 137.212 97.5243 137.15 95.7476L136.698 82.7955C136.639 81.0899 136.511 79.9914 136.316 79.5002C136.055 79.1535 135.285 79.0025 134.006 79.0472C133.93 78.9075 133.886 78.6778 133.875 78.358C133.864 78.0382 133.892 77.8238 133.959 77.7147C134.779 77.7572 135.633 77.763 136.521 77.7319L139.026 77.6445ZM164.444 89.9916C164.515 89.9891 164.746 89.981 165.136 89.9674C165.562 89.917 166.022 89.8653 166.519 89.8124C167.654 89.7372 168.47 89.6553 168.965 89.5669C169.283 89.5202 169.436 89.3192 169.424 88.9638C169.41 88.5729 169.361 88.1655 169.275 87.7416C169.189 87.3177 169.051 86.9489 168.862 86.6353C168.444 85.8672 167.915 85.4944 167.276 85.5167C166.672 85.5378 166.198 85.7322 165.855 86.1C165.511 86.4322 165.223 86.8336 164.99 87.3042C164.596 88.243 164.414 89.1388 164.444 89.9916ZM172.899 90.6569C170.773 90.909 167.971 91.1492 164.492 91.3774C164.568 93.545 165.228 95.1229 166.472 96.1112C167.422 96.8252 168.43 97.1635 169.496 97.1263C170.597 97.0878 171.443 96.8626 172.034 96.4506C172.624 96.0387 173.108 95.6304 173.485 95.2259C173.772 95.287 173.921 95.4775 173.932 95.7973C173.943 96.1171 173.881 96.3861 173.747 96.6043C173.646 96.7857 173.425 97.078 173.084 97.4813C172.741 97.849 172.309 98.2199 171.788 98.5938C170.47 99.5649 169.189 100.072 167.946 100.116C166.702 100.159 165.63 100.036 164.731 99.7475C163.83 99.4232 163.031 98.953 162.334 98.337C160.828 97.002 160.037 95.233 159.96 93.0299C159.881 90.7557 160.593 88.7385 162.097 86.9783C163.704 85.1078 165.484 84.1384 167.439 84.0701C169.535 83.9969 171.156 84.5629 172.301 85.7681C173.26 86.7308 173.762 87.8695 173.808 89.1843C173.821 89.5752 173.744 89.9158 173.577 90.2063C173.409 90.4968 173.183 90.647 172.899 90.6569ZM175.814 94.5042C175.808 94.3265 175.982 94.2315 176.338 94.2191C176.693 94.2067 176.946 94.3224 177.097 94.5661C177.394 95.9433 177.962 96.9374 178.802 97.5484C179.423 98.0248 180.107 98.25 180.853 98.2239C181.6 98.1979 182.144 97.9832 182.485 97.5799C182.827 97.1766 182.99 96.744 182.974 96.2821C182.957 95.8201 182.82 95.4514 182.561 95.1758C182.337 94.8634 182.043 94.6068 181.681 94.4061C181.353 94.204 180.973 94.0038 180.539 93.8055C178.951 93.1495 177.606 92.3426 176.505 91.3848C175.771 90.7345 175.386 89.8941 175.35 88.8636C175.313 87.7976 175.497 86.9551 175.902 86.3361C176.307 85.7172 176.823 85.2011 177.449 84.7879C178.631 83.9995 180.057 83.5761 181.727 83.5178C182.545 83.4893 183.258 83.5533 183.869 83.7098C184.478 83.8309 185.087 83.9519 185.696 84.073C185.94 84.9539 186.149 85.8538 186.324 86.7727C186.498 87.6916 186.588 88.2399 186.595 88.4176C186.6 88.5597 186.442 88.6364 186.122 88.6475C185.803 88.6587 185.532 88.5614 185.312 88.3556C184.991 87.3351 184.646 86.6 184.274 86.1505C183.498 85.3238 182.559 84.9296 181.458 84.9681C180.854 84.9892 180.362 85.1665 179.982 85.4999C179.638 85.8321 179.475 86.2647 179.494 86.7977C179.512 87.3307 179.634 87.7534 179.858 88.0658C180.118 88.3769 180.412 88.6513 180.741 88.8888C181.104 89.0896 181.501 89.2714 181.934 89.4342C182.367 89.597 182.8 89.7775 183.234 89.9758C183.666 90.1386 184.118 90.3363 184.588 90.5689C185.059 90.8015 185.478 91.0893 185.846 91.4322C186.692 92.2209 187.134 93.1661 187.172 94.2676C187.21 95.3337 187.043 96.1755 186.674 96.7933C186.304 97.411 185.806 97.9264 185.18 98.3397C183.998 99.1281 182.412 99.557 180.422 99.6265C179.605 99.655 178.82 99.5935 178.068 99.4419C177.314 99.2547 176.704 99.1159 176.239 99.0255C176.15 98.5305 176.074 97.8927 176.012 97.1122C175.948 96.2962 175.891 95.6933 175.842 95.3037C175.827 94.8773 175.818 94.6108 175.814 94.5042ZM195.391 83.7344C195.326 83.9146 195.225 84.5763 195.087 85.7196L195.366 93.7147C195.428 95.4914 195.517 96.52 195.634 96.8006C195.749 97.0456 195.897 97.2183 196.079 97.3187C196.259 97.3835 196.457 97.4478 196.673 97.5114C197.03 97.5701 197.405 97.5926 197.796 97.5789C197.872 97.7186 197.915 97.9483 197.926 98.2681C197.938 98.5879 197.91 98.8024 197.842 98.9114C196.059 98.7958 194.528 98.7603 193.249 98.805C191.792 98.8559 190.178 99.0012 188.408 99.2409C188.333 99.1368 188.29 98.9248 188.279 98.605C188.268 98.2852 188.295 98.053 188.361 97.9084C189.108 97.8823 189.656 97.792 190.006 97.6375C190.355 97.4474 190.564 97.2978 190.631 97.1887C190.794 96.7561 190.844 95.6515 190.782 93.8748L190.622 89.2909C190.612 89.0066 190.562 88.5815 190.471 88.0154C190.38 87.4493 190.296 87.0965 190.22 86.9568C189.955 86.5036 189.201 86.2987 187.957 86.3421C187.885 86.309 187.843 86.1326 187.832 85.8128C187.855 85.4562 187.903 85.2767 187.974 85.2742C189.32 85.1204 190.626 84.8258 191.892 84.3903C193.156 83.9192 194.12 83.5119 194.784 83.1686C194.892 83.2004 195.02 83.2849 195.167 83.422C195.314 83.5592 195.389 83.6633 195.391 83.7344ZM189.617 77.3187C189.592 76.608 189.803 76.0136 190.248 75.5355C190.729 75.0207 191.324 74.7509 192.035 74.7261C192.745 74.7012 193.358 74.9289 193.873 75.409C194.386 75.8535 194.656 76.4312 194.681 77.1418C194.705 77.8525 194.478 78.4653 193.998 78.9801C193.517 79.495 192.922 79.7648 192.211 79.7896C191.501 79.8144 190.888 79.5868 190.373 79.1067C189.894 78.6254 189.642 78.0294 189.617 77.3187ZM212.433 85.3273C211.471 85.2897 210.865 85.2575 210.615 85.2307C210.365 85.2038 210.242 85.2259 210.244 85.297C210.768 86.0258 211.044 86.7989 211.072 87.6162C211.101 88.4334 210.966 89.1675 210.669 89.8183C210.371 90.469 209.929 91.0359 209.341 91.519C208.099 92.6297 206.607 93.2154 204.866 93.2762C204.191 93.2998 203.585 93.2676 203.048 93.1796C202.877 93.3635 202.687 93.548 202.48 93.7331C202.309 93.9169 202.228 94.1333 202.236 94.382C202.244 94.5952 202.428 94.7844 202.79 94.9497C203.15 95.0794 203.597 95.135 204.13 95.1164C204.698 95.0965 205.427 95.0711 206.315 95.04C207.238 94.9722 208.056 94.9615 208.769 95.0077C209.481 95.0184 210.126 95.1738 210.706 95.4737C211.32 95.7369 211.829 96.0571 212.234 96.4343C213.006 97.1545 213.409 97.9765 213.441 98.9004C213.473 99.8243 213.238 100.74 212.736 101.647C212.234 102.554 211.55 103.325 210.682 103.96C208.811 105.377 206.667 106.128 204.25 106.212C202.509 106.273 201.075 105.95 199.947 105.242C198.855 104.533 198.288 103.574 198.246 102.366C198.221 101.655 198.517 100.969 199.134 100.307C199.789 99.6795 200.448 99.194 201.112 98.8506C200.501 98.6941 199.971 98.2856 199.521 97.6254C199.105 96.9284 198.885 96.2067 198.859 95.4605C198.839 94.892 199.786 94.0051 201.701 92.7997C200.657 92.4448 199.819 91.8871 199.187 91.1264C198.59 90.329 198.276 89.4861 198.245 88.5978C198.214 87.7094 198.348 86.9576 198.647 86.3424C198.98 85.6903 199.422 85.1057 199.973 84.5883C201.146 83.5512 202.639 83.001 204.452 82.9377C206.051 82.8819 207.304 83.1227 208.212 83.6602C208.286 83.7288 208.358 83.7619 208.429 83.7594L212.838 83.1785C213.092 83.3119 213.221 83.4497 213.226 83.5919C213.23 83.6985 213.133 83.9865 212.936 84.4559C212.775 84.924 212.607 85.2145 212.433 85.3273ZM202.56 99.0669C202.186 99.578 202.009 100.1 202.028 100.633C202.069 101.806 202.491 102.698 203.295 103.31C204.099 103.923 205.017 104.211 206.047 104.175C207.113 104.138 207.909 104.003 208.434 103.771C208.961 103.575 209.38 103.329 209.689 103.034C210.206 102.553 210.451 101.922 210.424 101.14C210.396 100.359 210.003 99.7853 209.243 99.4205C208.483 99.0557 207.535 98.8932 206.398 98.9329L202.56 99.0669ZM204.336 84.2225C203.199 84.2622 202.586 85.0308 202.496 86.5282C202.475 86.9558 202.473 87.4006 202.489 87.8625C202.504 88.2889 202.556 88.7674 202.646 89.2979C202.77 89.7917 202.928 90.2487 203.121 90.6689C203.615 91.5766 204.288 92.0156 205.141 91.9858C206.278 91.9461 206.837 91.1439 206.818 89.5792C206.84 89.187 206.843 88.7778 206.829 88.3514C206.814 87.925 206.762 87.4643 206.674 86.9693C206.584 86.4388 206.443 85.9634 206.25 85.5432C205.792 84.6342 205.154 84.194 204.336 84.2225ZM219.912 97.8739C218.456 97.9248 216.842 98.0701 215.071 98.3098C214.997 98.2057 214.954 97.9937 214.942 97.6739C214.931 97.3541 214.959 97.1219 215.025 96.9773C215.771 96.9512 216.319 96.8609 216.67 96.7064C217.019 96.5163 217.227 96.3667 217.294 96.2576C217.457 95.825 217.508 94.7203 217.446 92.9437L217.285 88.3598C217.276 88.0755 217.225 87.6503 217.134 87.0843C217.043 86.5182 216.96 86.1654 216.884 86.0257C216.619 85.5725 215.865 85.3675 214.621 85.411C214.549 85.3779 214.507 85.2015 214.496 84.8817C214.519 84.5251 214.566 84.3456 214.637 84.3431C215.984 84.1893 217.29 83.8947 218.555 83.4591C219.82 82.9881 220.784 82.5808 221.448 82.2375C221.554 82.2337 221.682 82.3182 221.83 82.4909C221.977 82.6281 222.034 82.7328 222.001 82.8052C222.004 82.8762 221.991 83.019 221.963 83.2334C221.969 83.4111 221.941 83.6433 221.88 83.9301C221.727 84.6469 221.704 85.0035 221.811 84.9998C221.846 84.9986 221.881 84.9795 221.916 84.9428C221.95 84.906 222.002 84.8686 222.072 84.8306C222.55 84.2447 223.136 83.7261 223.832 83.2749C225.05 82.4852 226.103 82.0749 226.991 82.0439C227.915 82.0116 228.685 82.1626 229.302 82.4969C229.952 82.7943 230.467 83.2744 230.846 83.9372C231.492 85.1242 231.867 87.1924 231.97 90.1417L232.05 92.4337C232.112 94.2103 232.201 95.239 232.318 95.5195C232.433 95.7645 232.581 95.9372 232.763 96.0376C232.979 96.1013 233.212 96.1643 233.463 96.2266C233.892 96.2828 234.302 96.3041 234.693 96.2904C234.804 96.4288 234.848 96.6586 234.824 96.9796C234.835 97.2994 234.807 97.5139 234.739 97.623C233.063 97.5036 231.461 97.4706 229.933 97.524C228.76 97.5649 227.289 97.7052 225.518 97.945C225.444 97.8408 225.401 97.6289 225.389 97.3091C225.378 96.9893 225.406 96.7571 225.472 96.6124C225.721 96.6038 226.075 96.5558 226.534 96.4686C226.992 96.3459 227.269 96.1228 227.365 95.7992C227.493 95.4034 227.527 94.3349 227.466 92.5937L227.369 89.8221C227.254 86.5174 226.414 84.8924 224.851 84.947C224.176 84.9706 223.595 85.151 223.109 85.4881C222.243 86.1588 221.816 86.6717 221.828 87.0271L222.029 92.7836C222.091 94.5603 222.181 95.5889 222.297 95.8694C222.413 96.1145 222.561 96.2872 222.742 96.3876C222.922 96.4524 223.12 96.5167 223.336 96.5803C223.694 96.639 224.068 96.6615 224.459 96.6478C224.535 96.7875 224.579 97.0172 224.59 97.337C224.601 97.6568 224.573 97.8712 224.506 97.9803C222.723 97.8647 221.192 97.8292 219.912 97.8739Z" fill="white"/>
<path d="M348.524 70.7016C350.591 70.8073 352.034 70.8459 352.851 70.8174C353.704 70.7876 354.431 70.7266 355.033 70.6344C355.67 70.541 356.343 70.4642 357.052 70.4038C357.127 70.5079 357.17 70.7199 357.181 71.0397C357.193 71.3595 357.165 71.5917 357.099 71.7363C356.175 71.7686 355.503 71.881 355.083 72.0736C354.698 72.2649 354.473 72.4506 354.409 72.6308C354.12 73.5303 354.01 74.9572 354.078 76.9116L354.316 83.7341C354.434 87.1098 353.549 89.7735 351.66 91.725C349.977 93.4559 347.768 94.3691 345.032 94.4647C343.539 94.5168 342.127 94.3171 340.795 93.8655C339.461 93.3784 338.388 92.6866 337.574 91.79C336.794 90.8566 336.222 89.7737 335.859 88.5412C335.53 87.2719 335.334 85.7133 335.269 83.8656L335.008 76.4035C334.982 75.6572 334.942 75.0183 334.888 74.4865C334.869 73.9535 334.803 73.5645 334.687 73.3195C334.572 73.0744 334.406 72.9201 334.191 72.8565C334.011 72.7916 333.795 72.728 333.544 72.6656C333.115 72.6095 332.705 72.5882 332.314 72.6018C332.238 72.4622 332.194 72.2325 332.183 71.9127C332.172 71.5928 332.2 71.3784 332.268 71.2693C334.05 71.3849 335.724 71.4155 337.287 71.3609C338.851 71.3063 340.518 71.1591 342.288 70.9194C342.363 71.0235 342.406 71.2355 342.417 71.5553C342.428 71.8751 342.401 72.1073 342.335 72.2519C341.695 72.2743 341.165 72.3639 340.743 72.521C340.322 72.678 340.095 72.8104 340.063 72.9183C339.903 73.4219 339.853 74.5266 339.912 76.2322L340.137 82.6816C340.179 83.8898 340.253 84.9723 340.357 85.9293C340.496 86.8494 340.758 87.7297 341.143 88.5701C341.564 89.4093 342.013 90.0517 342.492 90.4976C343.004 90.9066 343.513 91.209 344.017 91.4049C344.741 91.7354 345.546 91.8851 346.435 91.8541C347.323 91.8231 348.099 91.6359 348.763 91.2925C349.427 90.9491 350.013 90.4128 350.521 89.6835C351.675 88.0778 352.202 85.8536 352.103 83.0109L351.894 77.0412C351.825 75.0513 351.615 73.6178 351.264 72.7406C351.149 72.4956 350.823 72.3291 350.286 72.2411C349.64 72.0858 349.068 72.0168 348.571 72.0341C348.495 71.8945 348.451 71.6648 348.44 71.345C348.429 71.0251 348.457 70.8107 348.524 70.7016ZM359.446 88.6247C359.44 88.447 359.615 88.352 359.97 88.3396C360.325 88.3272 360.578 88.4429 360.729 88.6866C361.026 90.0638 361.595 91.0579 362.434 91.6689C363.056 92.1453 363.74 92.3705 364.486 92.3444C365.232 92.3184 365.776 92.1037 366.118 91.7004C366.459 91.2971 366.622 90.8645 366.606 90.4026C366.59 89.9406 366.452 89.5719 366.194 89.2963C365.969 88.9839 365.676 88.7274 365.313 88.5266C364.986 88.3245 364.605 88.1244 364.171 87.926C362.583 87.27 361.239 86.4631 360.138 85.5053C359.404 84.855 359.018 84.0146 358.982 82.9841C358.945 81.9181 359.129 81.0756 359.535 80.4566C359.94 79.8377 360.456 79.3216 361.082 78.9084C362.264 78.12 363.69 77.6966 365.36 77.6383C366.177 77.6098 366.891 77.6738 367.501 77.8303C368.11 77.9514 368.719 78.0724 369.328 78.1935C369.572 79.0744 369.782 79.9743 369.956 80.8932C370.131 81.8121 370.221 82.3604 370.227 82.5381C370.232 82.6802 370.075 82.7569 369.755 82.768C369.435 82.7792 369.165 82.6819 368.944 82.4762C368.624 81.4556 368.278 80.7206 367.907 80.271C367.131 79.4443 366.192 79.0501 365.09 79.0886C364.486 79.1097 363.994 79.287 363.615 79.6204C363.27 79.9526 363.108 80.3852 363.126 80.9182C363.145 81.4513 363.266 81.8739 363.491 82.1863C363.751 82.4974 364.045 82.7718 364.373 83.0093C364.736 83.2101 365.134 83.3919 365.566 83.5547C365.999 83.7175 366.432 83.898 366.866 84.0963C367.299 84.2591 367.75 84.4568 368.221 84.6894C368.692 84.922 369.111 85.2098 369.479 85.5527C370.324 86.3415 370.766 87.2866 370.805 88.3881C370.842 89.4542 370.676 90.296 370.306 90.9138C369.936 91.5315 369.438 92.047 368.813 92.4602C367.63 93.2486 366.044 93.6775 364.055 93.747C363.237 93.7755 362.452 93.714 361.7 93.5624C360.946 93.3752 360.337 93.2364 359.871 93.146C359.783 92.651 359.707 92.0132 359.644 91.2327C359.58 90.4167 359.523 89.8138 359.474 89.4242C359.459 88.9978 359.45 88.7313 359.446 88.6247ZM376.379 83.1237C376.45 83.1213 376.681 83.1132 377.072 83.0995C377.497 83.0491 377.958 82.9975 378.454 82.9445C379.59 82.8693 380.405 82.7875 380.9 82.699C381.219 82.6523 381.372 82.4513 381.36 82.096C381.346 81.7051 381.296 81.2977 381.21 80.8738C381.124 80.4498 380.987 80.0811 380.798 79.7675C380.38 78.9994 379.851 78.6265 379.211 78.6488C378.607 78.6699 378.134 78.8644 377.791 79.2321C377.447 79.5643 377.158 79.9657 376.926 80.4364C376.531 81.3751 376.349 82.2709 376.379 83.1237ZM384.834 83.7891C382.708 84.0412 379.906 84.2814 376.427 84.5096C376.503 86.6771 377.163 88.2551 378.407 89.2434C379.357 89.9573 380.365 90.2957 381.431 90.2584C382.533 90.22 383.379 89.9948 383.969 89.5828C384.56 89.1708 385.043 88.7626 385.421 88.358C385.707 88.4192 385.856 88.6097 385.867 88.9295C385.879 89.2493 385.817 89.5183 385.682 89.7364C385.582 89.9178 385.361 90.2102 385.019 90.6134C384.676 90.9812 384.244 91.352 383.724 91.726C382.406 92.697 381.125 93.2043 379.881 93.2477C378.638 93.2911 377.566 93.1684 376.666 92.8797C375.766 92.5553 374.967 92.0852 374.269 91.4691C372.764 90.1342 371.973 88.3652 371.896 86.1621C371.816 83.8879 372.529 81.8707 374.032 80.1105C375.639 78.2399 377.42 77.2705 379.374 77.2023C381.471 77.1291 383.091 77.6951 384.236 78.9003C385.195 79.863 385.697 81.0017 385.743 82.3164C385.757 82.7073 385.68 83.048 385.512 83.3385C385.344 83.6289 385.118 83.7791 384.834 83.7891ZM392.185 92.3911C390.728 92.442 389.114 92.5873 387.344 92.827C387.269 92.7229 387.226 92.5109 387.215 92.1911C387.203 91.8713 387.231 91.6391 387.297 91.4945C388.043 91.4684 388.592 91.3781 388.942 91.2236C389.291 91.0335 389.499 90.8839 389.567 90.7748C389.729 90.3422 389.78 89.2376 389.718 87.4609L389.558 82.877C389.548 82.5927 389.497 82.1676 389.406 81.6015C389.315 81.0354 389.232 80.6826 389.156 80.5429C388.891 80.0897 388.137 79.8848 386.893 79.9282C386.821 79.8951 386.779 79.7187 386.768 79.3989C386.791 79.0423 386.838 78.8628 386.909 78.8603C388.256 78.7066 389.562 78.4119 390.827 77.9764C392.092 77.5053 393.056 77.0981 393.72 76.7547C393.828 76.7865 393.955 76.871 394.102 77.0081C394.249 77.1453 394.306 77.2501 394.273 77.3224C394.276 77.3934 394.264 77.554 394.237 77.8039C394.21 78.0539 394.184 78.3394 394.16 78.6605C394.134 78.946 394.109 79.2315 394.083 79.517C394.058 79.8025 394.047 79.9986 394.05 80.1052C394.053 80.1762 394.09 80.2283 394.163 80.2614C394.234 80.2589 394.269 80.2399 394.267 80.2043C394.87 79.116 395.377 78.3512 395.788 77.9099C396.682 77.0248 397.609 76.5655 398.568 76.532C399.634 76.4948 400.37 76.6648 400.774 77.042C401.073 77.4585 401.232 77.9332 401.251 78.4662C401.268 78.9637 401.23 79.392 401.136 79.751C401.04 80.0746 400.891 80.3822 400.688 80.6739C400.282 81.2929 399.795 81.6123 399.227 81.6321C398.907 81.6433 398.619 81.5466 398.363 81.3421C398.142 81.1363 397.922 80.9483 397.703 80.7781C397.519 80.6067 397.318 80.4536 397.1 80.3189C396.916 80.1474 396.664 80.0673 396.344 80.0784C396.024 80.0896 395.727 80.2245 395.451 80.4832C395.174 80.7063 394.935 80.9815 394.733 81.3088C394.329 81.9633 394.135 82.5393 394.153 83.0367L394.302 87.3008C394.364 89.0775 394.453 90.1061 394.569 90.3867C394.685 90.6317 394.833 90.8044 395.014 90.9048C395.195 90.9696 395.393 91.0339 395.608 91.0975C395.966 91.1562 396.34 91.1787 396.731 91.165C396.807 91.3047 396.851 91.5344 396.862 91.8542C396.873 92.174 396.845 92.3885 396.778 92.4975C394.995 92.3819 393.464 92.3464 392.185 92.3911ZM415.571 68.5204L420.951 68.2258C424.54 68.1005 426.963 69.2255 428.22 71.6008C428.639 72.4045 428.864 73.2505 428.895 74.1388C428.926 75.0272 428.775 75.7973 428.442 76.4494C428.145 77.1001 427.757 77.7007 427.278 78.2511C426.353 79.2796 425.362 79.9368 424.305 80.2227L429.651 86.6C430.765 87.9486 432.061 88.8818 433.537 89.3994C434.33 89.6919 435.011 89.8283 435.579 89.8084C435.691 89.9468 435.735 90.1943 435.712 90.5509C435.688 90.8719 435.659 91.0686 435.626 91.1409C434.634 91.2467 433.285 91.3294 431.579 91.389C429.873 91.4486 428.566 91.2096 427.658 90.6721C426.75 90.1345 426.054 89.5718 425.571 88.9839L419.602 81.561C419.528 81.4924 419.418 81.3895 419.271 81.2524C419.159 81.1139 419.05 81.0466 418.944 81.0503L418.411 81.0689L418.599 86.4523C418.626 87.2341 418.649 87.8914 418.668 88.4245C418.722 88.9562 418.806 89.3446 418.922 89.5896C419.036 89.7991 419.183 89.954 419.365 90.0544C419.581 90.1181 419.796 90.1817 420.012 90.2453C420.405 90.3027 420.833 90.3234 421.295 90.3072C421.371 90.4469 421.414 90.6766 421.426 90.9964C421.437 91.3162 421.409 91.5307 421.341 91.6398C417.99 91.4366 414.65 91.5532 411.321 91.9897C411.246 91.8856 411.203 91.6736 411.192 91.3538C411.181 91.034 411.208 90.8018 411.274 90.6572C412.021 90.6311 412.569 90.5408 412.919 90.3863C413.268 90.1962 413.477 90.0466 413.544 89.9375C413.707 89.5049 413.757 88.4003 413.695 86.6236L413.243 73.6715C413.183 71.9658 413.056 70.8674 412.861 70.3761C412.6 70.0295 411.829 69.8785 410.55 69.9231C410.474 69.7835 410.431 69.5538 410.419 69.234C410.408 68.9141 410.436 68.6997 410.504 68.5906C411.323 68.6331 412.178 68.6389 413.066 68.6079L415.571 68.5204ZM423.038 71.4616C422.32 70.2415 421.303 69.6544 419.988 69.7003C419.562 69.7152 419.172 69.7466 418.817 69.7945C418.499 69.8412 418.308 69.9724 418.244 70.1881C418.112 70.4774 418.066 71.1905 418.105 72.3276L418.362 79.6831L420.015 79.6254C421.045 79.5894 421.919 79.132 422.635 78.2531C423.387 77.373 423.737 76.1867 423.685 74.6943C423.631 73.1664 423.416 72.0888 423.038 71.4616ZM441.457 80.8512C441.528 80.8487 441.759 80.8406 442.15 80.827C442.575 80.7766 443.035 80.7249 443.532 80.672C444.667 80.5967 445.483 80.5149 445.978 80.4265C446.296 80.3798 446.45 80.1787 446.437 79.8234C446.423 79.4325 446.374 79.0251 446.288 78.6012C446.202 78.1773 446.064 77.8085 445.876 77.4949C445.457 76.7268 444.928 76.3539 444.289 76.3763C443.685 76.3974 443.211 76.5918 442.868 76.9595C442.524 77.2918 442.236 77.6932 442.003 78.1638C441.609 79.1026 441.427 79.9984 441.457 80.8512ZM449.912 81.5165C447.786 81.7686 444.984 82.0088 441.505 82.237C441.581 84.4046 442.241 85.9825 443.485 86.9708C444.435 87.6847 445.443 88.0231 446.509 87.9859C447.61 87.9474 448.456 87.7222 449.047 87.3102C449.637 86.8983 450.121 86.49 450.498 86.0855C450.785 86.1466 450.934 86.3371 450.945 86.6569C450.956 86.9767 450.894 87.2457 450.76 87.4639C450.659 87.6453 450.438 87.9376 450.097 88.3409C449.754 88.7086 449.322 89.0795 448.801 89.4534C447.483 90.4245 446.202 90.9317 444.959 90.9751C443.715 91.0186 442.643 90.8959 441.744 90.6071C440.843 90.2828 440.044 89.8126 439.347 89.1966C437.841 87.8616 437.05 86.0926 436.973 83.8895C436.894 81.6153 437.606 79.5981 439.11 77.8379C440.717 75.9674 442.497 74.998 444.452 74.9297C446.548 74.8565 448.169 75.4225 449.314 76.6277C450.273 77.5904 450.775 78.7291 450.821 80.0439C450.834 80.4348 450.757 80.7754 450.59 81.0659C450.422 81.3564 450.196 81.5066 449.912 81.5165ZM452.827 85.3638C452.821 85.1861 452.995 85.0911 453.351 85.0787C453.706 85.0663 453.959 85.1819 454.11 85.4257C454.407 86.8028 454.975 87.7969 455.815 88.408C456.436 88.8844 457.12 89.1096 457.866 89.0835C458.613 89.0574 459.157 88.8428 459.498 88.4395C459.84 88.0362 460.003 87.6036 459.987 87.1417C459.97 86.6797 459.833 86.311 459.574 86.0354C459.35 85.723 459.056 85.4664 458.694 85.2656C458.366 85.0636 457.986 84.8634 457.552 84.6651C455.964 84.009 454.619 83.2021 453.518 82.2444C452.784 81.5941 452.399 80.7537 452.363 79.7232C452.326 78.6572 452.51 77.8147 452.915 77.1957C453.32 76.5768 453.836 76.0607 454.462 75.6475C455.644 74.8591 457.07 74.4357 458.74 74.3774C459.558 74.3488 460.271 74.4129 460.882 74.5694C461.491 74.6905 462.1 74.8115 462.709 74.9325C462.953 75.8135 463.162 76.7134 463.337 77.6323C463.511 78.5512 463.601 79.0995 463.608 79.2772C463.613 79.4193 463.455 79.4959 463.135 79.5071C462.816 79.5183 462.545 79.421 462.325 79.2152C462.004 78.1947 461.659 77.4596 461.287 77.0101C460.511 76.1833 459.572 75.7892 458.471 75.8277C457.867 75.8488 457.375 76.026 456.995 76.3595C456.651 76.6917 456.488 77.1243 456.507 77.6573C456.525 78.1903 456.647 78.613 456.871 78.9254C457.131 79.2365 457.425 79.5108 457.754 79.7484C458.117 79.9492 458.514 80.131 458.947 80.2938C459.38 80.4565 459.813 80.6371 460.247 80.8354C460.679 80.9982 461.131 81.1959 461.602 81.4285C462.072 81.6611 462.491 81.9489 462.859 82.2918C463.705 83.0805 464.147 84.0257 464.186 85.1272C464.223 86.1932 464.056 87.0351 463.687 87.6528C463.317 88.2706 462.819 88.786 462.193 89.1992C461.011 89.9876 459.425 90.4166 457.435 90.4861C456.618 90.5146 455.833 90.4531 455.081 90.3015C454.327 90.1143 453.717 89.9755 453.252 89.885C453.163 89.3901 453.087 88.7523 453.025 87.9718C452.961 87.1558 452.904 86.5529 452.855 86.1633C452.84 85.7369 452.831 85.4704 452.827 85.3638ZM469.76 79.8628C469.831 79.8603 470.062 79.8523 470.453 79.8386C470.878 79.7882 471.338 79.7365 471.835 79.6836C472.971 79.6084 473.786 79.5265 474.281 79.4381C474.599 79.3914 474.753 79.1904 474.74 78.835C474.727 78.4442 474.677 78.0368 474.591 77.6128C474.505 77.1889 474.367 76.8202 474.179 76.5066C473.76 75.7385 473.231 75.3656 472.592 75.3879C471.988 75.409 471.514 75.6034 471.171 75.9712C470.827 76.3034 470.539 76.7048 470.306 77.1754C469.912 78.1142 469.73 79.01 469.76 79.8628ZM478.215 80.5281C476.089 80.7803 473.287 81.0204 469.808 81.2486C469.884 83.4162 470.544 84.9941 471.788 85.9824C472.738 86.6964 473.746 87.0347 474.812 86.9975C475.913 86.959 476.759 86.7338 477.35 86.3219C477.94 85.9099 478.424 85.5016 478.801 85.0971C479.088 85.1583 479.237 85.3487 479.248 85.6685C479.259 85.9884 479.197 86.2573 479.063 86.4755C478.962 86.6569 478.741 86.9492 478.4 87.3525C478.057 87.7203 477.625 88.0911 477.104 88.4651C475.786 89.4361 474.505 89.9433 473.262 89.9868C472.018 90.0302 470.947 89.9075 470.047 89.6187C469.146 89.2944 468.347 88.8242 467.65 88.2082C466.144 86.8733 465.353 85.1042 465.276 82.9011C465.197 80.627 465.909 78.6098 467.413 76.8495C469.02 74.979 470.8 74.0096 472.755 73.9413C474.851 73.8681 476.472 74.4341 477.617 75.6394C478.576 76.602 479.078 77.7408 479.124 79.0555C479.138 79.4464 479.06 79.7871 478.893 80.0775C478.725 80.368 478.499 80.5182 478.215 80.5281ZM487.571 86.9789C488.033 86.9627 488.386 86.8615 488.628 86.6751C488.905 86.452 489.041 86.2871 489.038 86.1805L488.866 81.2769C488.482 81.4682 488.079 81.6601 487.659 81.8527C487.273 82.0085 486.872 82.2359 486.456 82.5351C485.692 83.0954 485.326 83.8197 485.357 84.7081C485.424 85.5952 485.694 86.2083 486.169 86.5476C486.642 86.8512 487.109 86.995 487.571 86.9789ZM495.441 86.1704C495.623 86.2708 495.717 86.4276 495.725 86.6408C495.732 86.854 495.686 87.0691 495.587 87.286C495.381 87.5066 495.018 87.8039 494.497 88.1779C493.56 88.851 492.772 89.1987 492.132 89.2211C491.493 89.2434 490.9 89.0862 490.355 88.7495C489.844 88.376 489.492 87.9791 489.299 87.5589C488.819 88.0738 488.123 88.525 487.212 88.9126C486.336 89.2989 485.649 89.5008 485.152 89.5182C484.654 89.5356 484.117 89.4298 483.54 89.2009C482.963 88.972 482.472 88.669 482.067 88.2918C481.148 87.4344 480.673 86.5616 480.642 85.6732C480.611 84.7849 480.764 84.0858 481.102 83.5759C481.474 83.0292 481.854 82.6958 482.241 82.5755C482.663 82.4185 483.136 82.2241 483.662 81.9923C484.223 81.7592 484.819 81.5072 485.45 81.2361C486.257 80.9233 487.379 80.4572 488.816 79.8377L488.759 78.1854C488.728 77.2971 488.504 76.5044 488.088 75.8073C487.672 75.0748 487.143 74.7197 486.504 74.742C485.864 74.7643 485.412 75.0647 485.148 75.6432C484.919 76.2204 484.762 76.813 484.676 77.4208C484.435 78.6744 483.764 79.3204 482.662 79.3589C482.201 79.375 481.769 79.2478 481.368 78.9771C481.002 78.6697 480.812 78.3384 480.8 77.983C480.783 77.4856 480.923 76.9114 481.22 76.2607C481.597 75.8561 482.222 75.4074 483.094 74.9144C484.874 73.9273 486.475 73.4089 487.896 73.3592C489.353 73.3084 490.596 73.763 491.626 74.7232C492.691 75.6822 493.252 76.9612 493.308 78.5602L493.537 85.1162C493.554 85.6137 493.656 85.9837 493.842 86.2262C494.027 86.4332 494.227 86.533 494.44 86.5256C494.688 86.5169 494.9 86.4561 495.074 86.3433L495.441 86.1704ZM501.727 88.5658C500.27 88.6167 498.657 88.762 496.886 89.0017C496.811 88.8976 496.768 88.6856 496.757 88.3658C496.746 88.046 496.774 87.8138 496.84 87.6692C497.586 87.6431 498.134 87.5528 498.485 87.3983C498.834 87.2082 499.042 87.0586 499.109 86.9495C499.272 86.5169 499.322 85.4123 499.26 83.6356L499.1 79.0517C499.09 78.7674 499.04 78.3422 498.949 77.7762C498.858 77.2101 498.775 76.8573 498.699 76.7176C498.434 76.2644 497.679 76.0594 496.436 76.1029C496.363 76.0698 496.322 75.8934 496.311 75.5736C496.334 75.217 496.381 75.0375 496.452 75.035C497.798 74.8812 499.104 74.5866 500.37 74.1511C501.634 73.68 502.599 73.2727 503.262 72.9294C503.37 72.9612 503.498 73.0457 503.645 73.1828C503.792 73.32 503.849 73.4247 503.816 73.4971C503.818 73.5681 503.806 73.7286 503.779 73.9786C503.753 74.2286 503.727 74.5141 503.703 74.8352C503.677 75.1207 503.651 75.4062 503.626 75.6917C503.6 75.9772 503.589 76.1733 503.593 76.2799C503.595 76.3509 503.633 76.403 503.705 76.436C503.776 76.4336 503.811 76.4146 503.81 76.379C504.412 75.2907 504.919 74.5258 505.331 74.0846C506.225 73.1995 507.152 72.7402 508.111 72.7067C509.177 72.6695 509.912 72.8395 510.317 73.2167C510.616 73.6332 510.775 74.1079 510.793 74.6409C510.811 75.1384 510.772 75.5667 510.678 75.9257C510.583 76.2492 510.433 76.5569 510.23 76.8486C509.825 77.4675 509.338 77.787 508.769 77.8068C508.45 77.818 508.162 77.7213 507.905 77.5168C507.685 77.311 507.465 77.123 507.245 76.9528C507.061 76.7813 506.86 76.6283 506.642 76.4936C506.458 76.3221 506.207 76.242 505.887 76.2531C505.567 76.2643 505.269 76.3992 504.994 76.6579C504.717 76.881 504.477 77.1562 504.275 77.4835C503.871 78.138 503.678 78.7139 503.695 79.2114L503.844 83.4755C503.906 85.2522 503.996 86.2808 504.112 86.5613C504.227 86.8064 504.376 86.9791 504.557 87.0795C504.737 87.1443 504.935 87.2086 505.151 87.2722C505.509 87.3309 505.883 87.3534 506.274 87.3397C506.35 87.4794 506.394 87.7091 506.405 88.0289C506.416 88.3487 506.388 88.5631 506.32 88.6722C504.538 88.5566 503.006 88.5211 501.727 88.5658ZM525.868 83.4535C526.154 83.5147 526.301 83.6518 526.309 83.865L526.328 84.3981C526.335 84.6113 526.099 84.9753 525.619 85.4901C525.174 86.0037 524.674 86.4481 524.117 86.8233C522.835 87.7931 521.572 88.2997 520.328 88.3432C519.12 88.3854 518.066 88.2621 517.167 87.9733C516.266 87.649 515.467 87.1788 514.769 86.5627C513.227 85.1935 512.418 83.4251 512.343 81.2575C512.266 79.0544 513.12 77.0323 514.906 75.1911C516.725 73.2775 518.824 72.2792 521.205 72.1961C522.875 72.1377 524.073 72.3094 524.799 72.711C525.277 73.1568 525.526 73.6817 525.547 74.2858C525.567 74.8543 525.408 75.3935 525.07 75.9034C524.731 76.3778 524.277 76.6249 523.709 76.6447C523.14 76.6646 522.69 76.5024 522.358 76.1583C522.024 75.7785 521.71 75.4338 521.414 75.1239C520.75 74.4355 519.938 74.1081 518.978 74.1416C518.268 74.1664 517.682 74.7205 517.222 75.8039C516.828 76.7427 516.653 77.8339 516.696 79.0776C516.739 80.3213 516.935 81.3462 517.284 82.1523C517.632 82.9584 518.064 83.6015 518.578 84.0816C519.535 84.9733 520.599 85.3986 521.772 85.3576C522.944 85.3167 523.826 85.0902 524.416 84.6783C525.007 84.2663 525.49 83.8581 525.868 83.4535ZM536.433 87.6207C534.757 87.5013 533.208 87.4665 531.786 87.5161C530.401 87.5645 528.822 87.7086 527.052 87.9483C526.977 87.8442 526.934 87.6322 526.923 87.3124C526.912 86.9926 526.939 86.7604 527.005 86.6158C527.752 86.5897 528.3 86.4994 528.65 86.3448C528.999 86.1548 529.19 86.0058 529.222 85.898C529.387 85.5364 529.46 85.0891 529.442 84.5561C529.459 84.0219 529.453 83.3639 529.426 82.5821L528.92 68.0843C528.892 67.3026 528.822 66.807 528.708 66.5975C528.592 66.3525 528.427 66.1981 528.211 66.1345C528.031 66.0697 527.834 66.0232 527.619 65.9951C527.117 65.8703 526.741 65.8123 526.493 65.821C526.422 65.8235 526.363 65.6654 526.316 65.3469C526.304 64.9915 526.349 64.7764 526.454 64.7017C528.826 64.3698 530.89 63.8886 532.647 63.258C532.963 63.1402 533.139 63.0807 533.174 63.0795C533.426 63.1418 533.611 63.3488 533.73 63.7004C533.674 64.1293 533.617 64.5405 533.559 64.9338C533.471 65.4705 533.445 66.2542 533.481 67.2846L533.738 74.6402C533.809 74.6377 533.93 74.5445 534.102 74.3606C534.272 74.1412 534.548 73.8825 534.929 73.5846C535.308 73.2512 535.724 72.9342 536.176 72.6338C537.187 72.0293 538.136 71.7115 539.025 71.6805C539.913 71.6495 540.666 71.8011 541.282 72.1353C541.933 72.4328 542.448 72.9129 542.827 73.5757C543.473 74.7627 543.847 76.8309 543.95 79.7802L544.03 82.0721C544.092 83.8488 544.182 84.8775 544.298 85.158C544.414 85.403 544.562 85.5757 544.743 85.6761C544.959 85.7398 545.192 85.8028 545.444 85.8651C545.873 85.9213 546.282 85.9426 546.673 85.9289C546.749 86.0686 546.793 86.2983 546.804 86.6181C546.815 86.9379 546.787 87.1524 546.72 87.2615C544.937 87.1458 543.388 87.111 542.073 87.1569C540.794 87.2016 539.269 87.3437 537.499 87.5835C537.424 87.4793 537.381 87.2674 537.37 86.9476C537.359 86.6278 537.386 86.3956 537.452 86.2509C538.518 86.2137 539.116 85.9972 539.244 85.6013C539.441 85.132 539.509 84.0089 539.447 82.2322L539.35 79.4606C539.234 76.1559 538.395 74.5309 536.831 74.5855C536.156 74.6091 535.576 74.7895 535.089 75.1266C534.223 75.7973 533.796 76.3102 533.809 76.6656L534.01 82.4221C534.072 84.1988 534.161 85.2274 534.278 85.5079C534.393 85.753 534.541 85.9257 534.723 86.0261C534.903 86.0909 535.101 86.1552 535.317 86.2188C535.674 86.2774 536.031 86.3006 536.386 86.2882C536.498 86.4266 536.541 86.6563 536.517 86.9774C536.528 87.2972 536.5 87.5116 536.433 87.6207Z" fill="white"/>
<path d="M645.932 73.9564L645.997 59.0117C645.977 58.4431 645.786 58.0762 645.425 57.911C644.74 57.6503 644.095 57.5305 643.491 57.5516C643.378 57.3776 643.334 57.1301 643.358 56.8091C643.381 56.4525 643.41 56.2558 643.444 56.2191C644.263 56.2261 644.904 56.257 645.369 56.312C645.832 56.3314 646.472 56.3268 647.289 56.2983L650.96 55.9566L658.144 70.6482L658.252 70.6978C658.359 70.694 658.409 70.6211 658.404 70.479L659.767 66.6958C661.681 61.3991 662.833 57.73 663.225 55.6884C663.225 55.6884 663.384 55.6828 663.704 55.6717L665.358 55.6673C665.358 55.6673 665.589 55.6592 666.051 55.6431C666.584 55.6245 668.27 55.4945 671.107 55.253C671.181 55.3216 671.242 55.533 671.29 55.8871C671.372 56.2044 671.38 56.4354 671.314 56.58C671.136 56.5862 670.818 56.6329 670.358 56.7201C669.934 56.806 669.636 56.9232 669.463 57.0715C669.117 57.3327 668.973 57.8002 669.032 58.4741C669.09 59.1125 669.158 60.0351 669.235 61.242C669.312 62.4134 669.393 63.7092 669.478 65.1293C669.599 66.5481 669.702 67.9854 669.789 69.4411C669.874 70.8612 669.968 72.0319 670.071 72.9533C670.247 74.9395 670.452 76.2131 670.685 76.7742C670.767 77.0916 671.361 77.2843 672.466 77.3524C672.679 77.345 672.822 77.34 672.893 77.3375C673.123 77.8276 673.157 78.2711 672.992 78.6682C670.853 78.5294 669.215 78.4799 668.078 78.5196C666.941 78.5593 665.15 78.7286 662.705 79.0274C662.632 78.9588 662.572 78.7653 662.525 78.4467C662.514 78.1269 662.541 77.8769 662.606 77.6968C663.352 77.6707 663.918 77.5798 664.304 77.424C664.724 77.2314 664.968 77.0806 665.035 76.9715C665.198 76.5389 665.272 76.1272 665.259 75.7363L665.182 73.551L664.485 62.7421C664.43 61.1786 664.296 60.4006 664.083 60.408C664.012 60.4105 663.961 60.4834 663.931 60.6268L658.334 77.6325C658.103 78.1386 657.831 78.5217 657.52 78.7816C657.244 79.0047 657.034 79.1187 656.892 79.1237C656.75 79.1287 656.643 79.1146 656.57 79.0816L648.04 60.9683C648.032 62.783 648.03 64.2595 648.034 65.3978C648.074 66.5349 648.092 67.566 648.089 68.4911C648.074 71.1243 648.066 72.9213 648.064 73.8819C648.048 75.4835 648.121 76.5482 648.282 77.0763C648.368 77.5002 649.215 77.8086 650.822 78.0015C651.145 78.0614 651.341 78.0901 651.412 78.0876C651.488 78.2273 651.531 78.4393 651.541 78.7235C651.587 79.0066 651.577 79.2381 651.512 79.4183C650.799 79.372 650.086 79.3258 649.373 79.2795C648.66 79.2333 647.983 79.2213 647.344 79.2437C646.74 79.2648 645.215 79.4247 642.771 79.7236C642.543 79.3046 642.51 78.8788 642.673 78.4462C643.419 78.4201 644.071 78.2373 644.628 77.8976C645.186 77.558 645.497 77.3158 645.564 77.1712C645.63 77.0266 645.675 76.8115 645.701 76.526C645.762 76.2393 645.805 75.9354 645.829 75.6143C645.854 75.2933 645.878 74.9722 645.902 74.6512C645.927 74.3301 645.937 74.0985 645.932 73.9564ZM681.55 63.9072C679.951 63.9631 679.108 65.3088 679.022 67.9446C678.976 68.6577 678.965 69.3696 678.99 70.0803C679.015 70.791 679.096 71.5709 679.232 72.42C679.403 73.2323 679.66 73.9704 680.003 74.6344C680.734 76.2099 681.668 76.9777 682.805 76.938C684.475 76.8797 685.372 75.5498 685.494 72.9484C685.506 72.272 685.5 71.5785 685.475 70.8678C685.45 70.1571 685.352 69.3779 685.18 68.53C685.008 67.6822 684.75 66.9263 684.407 66.2623C683.675 64.6513 682.722 63.8663 681.55 63.9072ZM681.926 62.4532C683.134 62.411 684.242 62.568 685.251 62.9241C686.295 63.279 687.203 63.7988 687.974 64.4834C689.554 65.9224 690.383 67.7613 690.461 69.9999C690.538 72.203 689.805 74.1498 688.264 75.8402C686.791 77.4926 684.883 78.3597 682.537 78.4416C680.086 78.5272 678.069 77.8327 676.488 76.3581C674.906 74.8835 674.077 73.0447 674 70.8416C673.925 68.674 674.64 66.7457 676.146 65.0565C677.654 63.4029 679.581 62.5351 681.926 62.4532ZM692.632 76.6482C692.893 75.9987 692.987 74.6079 692.913 72.4759L692.414 58.1913C692.387 57.4095 692.316 56.9139 692.202 56.7044C692.087 56.4594 691.939 56.3045 691.759 56.2396C691.579 56.1747 691.364 56.1289 691.114 56.102C690.576 55.9785 690.2 55.9205 689.987 55.9279C689.916 55.9304 689.875 55.7717 689.863 55.4519C689.816 55.0978 689.844 54.8834 689.948 54.8086C691.931 54.5614 693.521 54.2391 694.717 53.8416C695.947 53.4073 696.597 53.1889 696.669 53.1864C696.92 53.2488 697.105 53.4558 697.224 53.8074C697.01 54.811 696.926 55.988 696.974 57.3383L697.173 63.0415C697.175 63.1125 697.18 63.2369 697.186 63.4146C697.226 63.5555 697.299 63.5885 697.403 63.5137C697.541 63.4022 697.732 63.2532 697.974 63.0668C698.252 62.8792 698.547 62.6733 698.86 62.4489C699.556 61.9977 700.312 61.7578 701.129 61.7292C701.947 61.7007 702.806 61.8664 703.708 62.2262C704.609 62.5505 705.409 63.0385 706.108 63.69C707.542 65.0275 708.297 66.78 708.372 68.9475C708.465 71.6126 707.545 73.7793 705.611 75.4479C703.921 76.9656 701.796 77.7691 699.238 77.8584C698.314 77.8907 697.457 77.7961 696.666 77.5747C695.875 77.3177 695.212 77.1985 694.679 77.2171C694.146 77.2357 693.759 77.3382 693.516 77.5246C693.445 77.527 693.281 77.426 693.025 77.2215C692.768 76.9815 692.637 76.7904 692.632 76.6482ZM699.142 64.4136C698.431 64.4384 697.836 64.7082 697.356 65.2231C697.287 65.2966 697.255 65.4045 697.26 65.5466L697.562 74.1813C697.583 74.7854 697.796 75.2938 698.202 75.7066C698.643 76.1181 699.184 76.3127 699.823 76.2904C700.463 76.268 700.99 76.0895 701.406 75.7548C701.855 75.3833 702.231 74.9255 702.532 74.3813C703.132 73.2219 703.407 71.9493 703.359 70.5635C703.275 68.1472 702.826 66.5085 702.013 65.6474C701.201 64.7864 700.243 64.3751 699.142 64.4136ZM716.557 61.8843C716.492 62.0644 716.39 62.7261 716.252 63.8694L716.532 71.8646C716.594 73.6412 716.683 74.6699 716.8 74.9504C716.915 75.1954 717.063 75.3681 717.245 75.4685C717.425 75.5334 717.623 75.5976 717.838 75.6613C718.196 75.7199 718.57 75.7424 718.961 75.7288C719.037 75.8684 719.081 76.0982 719.092 76.418C719.103 76.7378 719.075 76.9522 719.008 77.0613C717.225 76.9457 715.694 76.9102 714.415 76.9549C712.958 77.0057 711.344 77.151 709.574 77.3907C709.499 77.2866 709.456 77.0747 709.445 76.7549C709.434 76.4351 709.461 76.2028 709.527 76.0582C710.273 76.0322 710.822 75.9419 711.172 75.7873C711.521 75.5972 711.729 75.4477 711.797 75.3386C711.959 74.906 712.01 73.8013 711.948 72.0246L711.788 67.4408C711.778 67.1565 711.727 66.7313 711.636 66.1653C711.546 65.5992 711.462 65.2463 711.386 65.1067C711.121 64.6534 710.367 64.4485 709.123 64.4919C709.051 64.4589 709.009 64.2825 708.998 63.9627C709.021 63.6061 709.068 63.4265 709.139 63.4241C710.486 63.2703 711.792 62.9757 713.057 62.5401C714.322 62.069 715.286 61.6618 715.95 61.3184C716.058 61.3502 716.185 61.4347 716.332 61.5719C716.479 61.7091 716.554 61.8132 716.557 61.8843ZM710.783 55.4685C710.758 54.7579 710.968 54.1635 711.414 53.6854C711.894 53.1706 712.49 52.9007 713.2 52.8759C713.911 52.8511 714.524 53.0787 715.039 53.5588C715.552 54.0034 715.821 54.581 715.846 55.2917C715.871 56.0024 715.643 56.6152 715.163 57.13C714.683 57.6448 714.088 57.9147 713.377 57.9395C712.666 57.9643 712.054 57.7367 711.539 57.2566C711.06 56.7752 710.807 56.1792 710.783 55.4685ZM728.618 76.7257C726.835 76.6101 725.215 76.5777 723.758 76.6286C722.337 76.6782 720.741 76.8229 718.971 77.0626C718.896 76.9585 718.853 76.7465 718.842 76.4267C718.831 76.1069 718.858 75.8747 718.924 75.7301C719.67 75.704 720.219 75.6137 720.569 75.4592C720.918 75.2691 721.109 75.1201 721.14 75.0123C721.306 74.6507 721.379 74.2035 721.36 73.6705C721.377 73.1362 721.372 72.4782 721.345 71.6965L720.839 57.1986C720.811 56.4169 720.741 55.9213 720.627 55.7118C720.511 55.4668 720.346 55.3125 720.13 55.2488C719.95 55.184 719.753 55.1375 719.538 55.1094C719.036 54.9847 718.66 54.9266 718.411 54.9353C718.34 54.9378 718.282 54.7797 718.235 54.4612C718.222 54.1058 718.268 53.8908 718.372 53.816C720.744 53.4841 722.809 53.0029 724.566 52.3723C724.882 52.2545 725.058 52.195 725.093 52.1938C725.344 52.2562 725.53 52.4632 725.649 52.8148C725.592 53.2437 725.536 53.6548 725.478 54.0481C725.39 54.5849 725.364 55.3685 725.4 56.399L725.929 71.5364C725.991 73.3131 726.08 74.3417 726.197 74.6223C726.312 74.8673 726.46 75.04 726.642 75.1404C726.857 75.204 727.073 75.2676 727.289 75.3312C727.682 75.3887 728.11 75.4093 728.572 75.3932C728.648 75.5328 728.691 75.7626 728.702 76.0824C728.714 76.4022 728.686 76.6166 728.618 76.7257ZM732.885 66.4906C732.956 66.4881 733.187 66.48 733.578 66.4664C734.003 66.4159 734.464 66.3643 734.96 66.3114C736.096 66.2361 736.911 66.1543 737.406 66.0658C737.725 66.0191 737.878 65.8181 737.866 65.4628C737.852 65.0719 737.802 64.6645 737.716 64.2406C737.63 63.8167 737.493 63.4479 737.304 63.1343C736.886 62.3662 736.357 61.9933 735.717 62.0156C735.113 62.0367 734.64 62.2312 734.297 62.5989C733.953 62.9311 733.664 63.3325 733.432 63.8032C733.038 64.7419 732.855 65.6377 732.885 66.4906ZM741.34 67.1559C739.214 67.408 736.412 67.6482 732.934 67.8764C733.009 70.0439 733.669 71.6219 734.913 72.6102C735.863 73.3241 736.871 73.6625 737.937 73.6252C739.039 73.5868 739.885 73.3616 740.475 72.9496C741.066 72.5376 741.549 72.1294 741.927 71.7249C742.213 71.786 742.362 71.9765 742.374 72.2963C742.385 72.6161 742.323 72.8851 742.188 73.1032C742.088 73.2846 741.867 73.577 741.525 73.9802C741.182 74.348 740.75 74.7188 740.23 75.0928C738.912 76.0638 737.631 76.5711 736.387 76.6145C735.144 76.6579 734.072 76.5352 733.172 76.2465C732.272 75.9221 731.473 75.452 730.775 74.8359C729.27 73.501 728.479 71.732 728.402 69.5289C728.322 67.2547 729.035 65.2375 730.539 63.4773C732.145 61.6067 733.926 60.6373 735.88 60.5691C737.977 60.4959 739.598 61.0619 740.743 62.2671C741.701 63.2298 742.203 64.3685 742.249 65.6833C742.263 66.0741 742.186 66.4148 742.018 66.7053C741.85 66.9958 741.624 67.146 741.34 67.1559ZM759.75 74.3578C760.603 74.328 761.358 74.0526 762.016 73.5315C762.672 72.9749 762.979 72.0748 762.935 70.8311C762.898 69.7651 762.202 68.6687 760.846 67.542C760.295 67.0632 759.711 66.6389 759.094 66.2691C758.476 65.8993 757.894 65.5461 757.349 65.2093C756.802 64.8371 756.202 64.4489 755.547 64.0448C754.928 63.6395 754.361 63.179 753.845 62.6634C752.773 61.5268 752.209 60.1412 752.152 58.5066C752.091 56.7655 752.838 55.2273 754.392 53.8923C755.842 52.632 757.527 51.9684 759.446 51.9014C760.476 51.8654 761.439 51.9385 762.335 52.1207C763.267 52.3016 764.269 52.4801 765.342 52.656C765.481 53.5762 765.585 54.5154 765.654 55.4735C765.759 56.4305 765.865 57.4407 765.974 58.5042C765.836 58.6513 765.714 58.7268 765.608 58.7305C764.933 58.7541 764.574 58.6776 764.533 58.5012C764.314 57.3348 763.795 56.2322 762.976 55.1935C762.008 53.9465 760.902 53.3448 759.658 53.3882C758.947 53.413 758.279 53.6498 757.655 54.0986C757.03 54.5473 756.738 55.358 756.779 56.5306C756.832 58.0586 758.586 59.8829 762.04 62.0037C762.622 62.3747 763.223 62.7628 763.842 63.1682C764.495 63.5367 765.08 63.9788 765.596 64.4944C766.777 65.7339 767.4 67.2598 767.463 69.072C767.529 70.9553 766.784 72.5467 765.229 73.8463C763.743 75.1078 762.023 75.7727 760.068 75.8409C758.007 75.9129 755.758 75.6712 753.319 75.116C752.898 73.2451 752.618 71.8496 752.479 70.9294C752.376 70.008 752.302 69.4236 752.258 69.1761C752.325 69.067 752.481 68.9548 752.726 68.8395C753.007 68.723 753.236 68.6616 753.413 68.6554C753.591 68.6492 753.701 68.7343 753.743 68.9108C753.96 70.0417 754.606 71.2109 755.68 72.4186C756.936 73.7623 758.293 74.4087 759.75 74.3578ZM776.023 60.6081C774.424 60.664 773.582 62.0097 773.496 64.6455C773.45 65.3586 773.439 66.0705 773.464 66.7812C773.489 67.4919 773.569 68.2718 773.706 69.1209C773.876 69.9332 774.133 70.6713 774.477 71.3353C775.208 72.9108 776.142 73.6786 777.279 73.6389C778.949 73.5806 779.845 72.2507 779.968 69.6493C779.98 68.9729 779.973 68.2794 779.949 67.5687C779.924 66.858 779.825 66.0788 779.654 65.2309C779.482 64.3831 779.224 63.6272 778.881 62.9632C778.148 61.3522 777.196 60.5672 776.023 60.6081ZM776.399 59.1541C777.608 59.1119 778.716 59.2689 779.725 59.625C780.769 59.9799 781.676 60.4997 782.447 61.1843C784.027 62.6234 784.857 64.4622 784.935 66.7008C785.012 68.9039 784.279 70.8507 782.737 72.5411C781.265 74.1935 779.356 75.0606 777.011 75.1425C774.559 75.2281 772.543 74.5336 770.961 73.059C769.38 71.5844 768.551 69.7456 768.474 67.5425C768.398 65.3749 769.114 63.4466 770.62 61.7574C772.128 60.1038 774.054 59.236 776.399 59.1541ZM795.413 74.3932C793.63 74.2775 792.011 74.2452 790.554 74.296C789.132 74.3457 787.536 74.4903 785.766 74.7301C785.691 74.6259 785.648 74.414 785.637 74.0942C785.626 73.7744 785.653 73.5422 785.719 73.3975C786.466 73.3715 787.014 73.2812 787.364 73.1266C787.713 72.9366 787.904 72.7876 787.936 72.6797C788.101 72.3182 788.174 71.8709 788.156 71.3379C788.173 70.8037 788.167 70.1457 788.14 69.3639L787.634 54.8661C787.607 54.0844 787.536 53.5887 787.422 53.3793C787.307 53.1342 787.141 52.9799 786.925 52.9163C786.745 52.8514 786.548 52.805 786.333 52.7769C785.831 52.6521 785.455 52.5941 785.207 52.6028C785.136 52.6052 785.077 52.4472 785.03 52.1286C785.018 51.7733 785.063 51.5582 785.168 51.4834C787.54 51.1516 789.604 50.6703 791.361 50.0398C791.677 49.922 791.853 49.8625 791.888 49.8612C792.14 49.9236 792.325 50.1306 792.444 50.4822C792.388 50.9111 792.331 51.3222 792.273 51.7156C792.185 52.2523 792.159 53.0359 792.195 54.0664L792.724 69.2039C792.786 70.9806 792.875 72.0092 792.992 72.2897C793.107 72.5347 793.255 72.7074 793.437 72.8078C793.653 72.8715 793.868 72.9351 794.084 72.9987C794.477 73.0561 794.905 73.0768 795.367 73.0606C795.443 73.2003 795.486 73.43 795.498 73.7498C795.509 74.0696 795.481 74.2841 795.413 74.3932ZM803.862 60.1163C806.165 59.858 808.418 59.1567 810.619 58.0125C810.763 58.0431 810.908 58.1269 811.055 58.2641C811.202 58.4013 811.277 58.5054 811.279 58.5765C811.214 58.7566 811.142 59.2394 811.063 60.0249C810.982 60.7748 810.951 61.3985 810.968 61.896L811.247 69.8911C811.257 70.1754 811.266 70.4242 811.274 70.6374C811.317 70.8493 811.43 71.041 811.614 71.2125C811.834 71.4183 812.371 71.5062 813.224 71.4765C813.3 71.6161 813.342 71.8103 813.351 72.0591C813.359 72.2723 813.294 72.4702 813.158 72.6528C812.449 72.7132 811.302 72.9667 809.716 73.4134C808.131 73.8601 807.285 74.0853 807.178 74.0891C806.965 74.0965 806.848 73.816 806.829 73.2474L806.808 72.6611C806.803 72.519 806.766 72.4669 806.696 72.5049C805.132 73.5557 803.497 74.1109 801.791 74.1704C799.481 74.2511 797.997 73.0044 797.338 70.4303C797.168 69.6535 797.069 68.8564 797.041 68.0392L796.916 64.468C796.906 64.1837 796.856 63.7586 796.765 63.1925C796.674 62.6264 796.59 62.2736 796.514 62.1339C796.324 61.7848 795.713 61.5927 794.68 61.5576C794.465 61.5295 794.323 61.5167 794.252 61.5192C794.215 61.4849 794.191 61.3079 794.18 60.988C794.167 60.6327 794.197 60.4538 794.268 60.4513C795.614 60.2976 796.92 60.0029 798.186 59.5674C799.45 59.0963 800.414 58.6891 801.078 58.3457C801.222 58.3762 801.349 58.4607 801.461 58.5992C801.608 58.7363 801.683 58.8404 801.685 58.9115C801.619 59.0561 801.559 59.3607 801.504 59.8251C801.449 60.2895 801.409 60.6822 801.385 61.0033C801.396 61.3231 801.41 61.7317 801.427 62.2292L801.569 66.2801C801.635 68.1634 801.863 69.5963 802.253 70.5788C802.642 71.5258 803.387 71.9801 804.488 71.9416C804.986 71.9243 805.478 71.7647 805.966 71.4631C806.489 71.1602 806.745 70.8666 806.736 70.5824L806.51 64.133C806.5 63.8487 806.45 63.4235 806.359 62.8575C806.268 62.2914 806.185 61.9386 806.109 61.7989C805.879 61.3444 805.125 61.1395 803.846 61.1842C803.773 61.1511 803.732 60.9747 803.721 60.6549C803.708 60.2995 803.755 60.12 803.862 60.1163ZM812.269 59.7693C812.54 59.3685 812.9 58.9646 813.348 58.5576L814.894 58.5036L814.828 56.6381C815.482 56.0105 816.1 55.3485 816.68 54.6523C817.296 53.9548 817.861 53.3302 818.376 52.7786C818.584 52.629 818.778 52.5689 818.957 52.5982C819.134 52.592 819.243 52.6416 819.282 52.747L819.477 58.3436L823.475 58.204C823.617 58.199 823.694 58.3742 823.707 58.7295C823.718 59.0493 823.464 59.4317 822.946 59.8768L819.535 59.9959L819.838 68.6839C819.901 70.4606 820.571 71.3266 821.85 71.282C822.241 71.2683 822.628 71.1481 823.012 70.9212C823.394 70.6588 823.619 70.4909 823.688 70.4173C823.835 70.5545 823.911 70.6764 823.914 70.783C823.925 71.1028 823.862 71.3362 823.725 71.4833C823.624 71.6292 823.452 71.813 823.211 72.0349C823.005 72.2556 822.746 72.4781 822.434 72.7025C821.53 73.3033 820.758 73.6148 820.118 73.6372C819.514 73.6583 818.925 73.5899 818.35 73.4321C817.812 73.3086 817.322 73.0411 816.881 72.6295C815.855 71.7759 815.31 70.443 815.247 68.6308L814.951 60.156L812.446 60.2434C812.337 60.1761 812.278 60.0181 812.269 59.7693ZM831.955 57.8545C831.89 58.0346 831.789 58.6963 831.651 59.8396L831.93 67.8348C831.992 69.6114 832.081 70.6401 832.198 70.9206C832.313 71.1656 832.462 71.3383 832.643 71.4387C832.823 71.5036 833.021 71.5678 833.237 71.6315C833.595 71.6901 833.969 71.7126 834.36 71.699C834.436 71.8386 834.479 72.0684 834.491 72.3882C834.502 72.708 834.474 72.9224 834.406 73.0315C832.623 72.9159 831.092 72.8804 829.813 72.9251C828.356 72.9759 826.743 73.1212 824.972 73.3609C824.897 73.2568 824.854 73.0449 824.843 72.7251C824.832 72.4053 824.859 72.173 824.926 72.0284C825.672 72.0024 826.22 71.9121 826.57 71.7575C826.92 71.5674 827.128 71.4179 827.195 71.3088C827.358 70.8762 827.408 69.7715 827.346 67.9948L827.186 63.4109C827.176 63.1267 827.126 62.7015 827.035 62.1355C826.944 61.5694 826.86 61.2165 826.784 61.0769C826.52 60.6236 825.765 60.4187 824.522 60.4621C824.449 60.4291 824.408 60.2527 824.396 59.9329C824.42 59.5763 824.467 59.3967 824.538 59.3943C825.884 59.2405 827.19 58.9459 828.456 58.5103C829.72 58.0392 830.684 57.632 831.348 57.2886C831.456 57.3204 831.584 57.4049 831.731 57.5421C831.878 57.6793 831.953 57.7834 831.955 57.8545ZM826.181 51.4387C826.156 50.7281 826.367 50.1337 826.813 49.6556C827.293 49.1408 827.888 48.8709 828.599 48.8461C829.309 48.8213 829.922 49.0489 830.437 49.529C830.951 49.9736 831.22 50.5512 831.245 51.2619C831.269 51.9726 831.042 52.5854 830.562 53.1002C830.082 53.615 829.486 53.8849 828.776 53.9097C828.065 53.9345 827.452 53.7069 826.937 53.2268C826.458 52.7454 826.206 52.1494 826.181 51.4387ZM842.233 58.296C840.634 58.3519 839.791 59.6977 839.706 62.3334C839.659 63.0465 839.649 63.7584 839.673 64.4691C839.698 65.1798 839.779 65.9597 839.915 66.8088C840.086 67.6211 840.343 68.3592 840.686 69.0232C841.417 70.5987 842.351 71.3665 843.488 71.3268C845.159 71.2685 846.055 69.9386 846.178 67.3372C846.19 66.6608 846.183 65.9673 846.158 65.2566C846.133 64.5459 846.035 63.7667 845.863 62.9188C845.691 62.071 845.434 61.3151 845.09 60.6511C844.358 59.0401 843.406 58.2551 842.233 58.296ZM842.609 56.842C843.817 56.7998 844.926 56.9568 845.934 57.3129C846.978 57.6678 847.886 58.1876 848.657 58.8722C850.237 60.3113 851.066 62.1501 851.144 64.3887C851.221 66.5919 850.489 68.5386 848.947 70.229C847.475 71.8814 845.566 72.7485 843.221 72.8304C840.769 72.916 838.752 72.2216 837.171 70.747C835.59 69.2724 834.761 67.4335 834.684 65.2304C834.608 63.0628 835.323 61.1345 836.83 59.4453C838.337 57.7917 840.264 56.9239 842.609 56.842ZM857.296 71.9653C855.839 72.0162 854.226 72.1615 852.455 72.4012C852.38 72.2971 852.338 72.0851 852.326 71.7653C852.315 71.4455 852.343 71.2133 852.409 71.0687C853.155 71.0426 853.703 70.9523 854.054 70.7978C854.403 70.6077 854.611 70.4581 854.678 70.349C854.841 69.9164 854.892 68.8118 854.829 67.0351L854.669 62.4512C854.659 62.1669 854.609 61.7418 854.518 61.1757C854.427 60.6097 854.344 60.2568 854.268 60.1171C854.003 59.6639 853.249 59.459 852.005 59.5024C851.933 59.4694 851.891 59.2929 851.88 58.9731C851.903 58.6165 851.95 58.437 852.021 58.4345C853.367 58.2808 854.674 57.9861 855.939 57.5506C857.203 57.0795 858.168 56.6723 858.832 56.3289C858.938 56.3252 859.066 56.4097 859.214 56.5824C859.361 56.7195 859.418 56.8243 859.385 56.8966C859.388 56.9677 859.375 57.1104 859.347 57.3249C859.353 57.5025 859.325 57.7347 859.264 58.0215C859.111 58.7384 859.088 59.095 859.195 59.0912C859.23 59.09 859.265 59.071 859.3 59.0342C859.334 58.9974 859.386 58.96 859.456 58.922C859.933 58.3361 860.52 57.8175 861.216 57.3663C862.434 56.5767 863.487 56.1663 864.375 56.1353C865.299 56.1031 866.069 56.254 866.685 56.5883C867.336 56.8858 867.851 57.3659 868.23 58.0286C868.876 59.2157 869.251 61.2838 869.354 64.2332L869.434 66.5251C869.496 68.3018 869.585 69.3304 869.702 69.611C869.817 69.856 869.965 70.0287 870.147 70.1291C870.362 70.1927 870.596 70.2557 870.847 70.3181C871.276 70.3743 871.686 70.3955 872.077 70.3819C872.188 70.5203 872.232 70.75 872.208 71.0711C872.219 71.3909 872.191 71.6053 872.123 71.7144C870.447 71.595 868.845 71.562 867.317 71.6154C866.144 71.6564 864.673 71.7967 862.902 72.0364C862.827 71.9323 862.784 71.7203 862.773 71.4005C862.762 71.0807 862.79 70.8485 862.856 70.7039C863.104 70.6952 863.459 70.6472 863.918 70.56C864.376 70.4373 864.653 70.2142 864.748 69.8907C864.877 69.4948 864.911 68.4263 864.85 66.6852L864.753 63.9135C864.638 60.6089 863.798 58.9838 862.235 59.0384C861.56 59.062 860.979 59.2424 860.493 59.5796C859.627 60.2502 859.2 60.7632 859.212 61.1185L859.413 66.875C859.475 68.6517 859.565 69.6803 859.681 69.9609C859.796 70.2059 859.945 70.3786 860.126 70.479C860.306 70.5439 860.504 70.6081 860.72 70.6717C861.078 70.7304 861.452 70.7529 861.843 70.7392C861.919 70.8789 861.963 71.1086 861.974 71.4284C861.985 71.7482 861.957 71.9627 861.89 72.0718C860.107 71.9561 858.576 71.9207 857.296 71.9653ZM872.732 66.5167C872.726 66.339 872.9 66.2439 873.255 66.2315C873.611 66.2191 873.864 66.3348 874.015 66.5786C874.312 67.9557 874.88 68.9498 875.72 69.5609C876.341 70.0373 877.025 70.2624 877.771 70.2364C878.518 70.2103 879.061 69.9956 879.403 69.5924C879.745 69.1891 879.908 68.7565 879.891 68.2945C879.875 67.8326 879.738 67.4638 879.479 67.1882C879.255 66.8759 878.961 66.6193 878.599 66.4185C878.271 66.2165 877.891 66.0163 877.457 65.818C875.869 65.1619 874.524 64.355 873.423 63.3973C872.689 62.747 872.304 61.9066 872.268 60.8761C872.231 59.8101 872.415 58.9676 872.82 58.3486C873.225 57.7296 873.741 57.2135 874.367 56.8003C875.549 56.0119 876.975 55.5886 878.645 55.5303C879.463 55.5017 880.176 55.5657 880.787 55.7223C881.396 55.8433 882.005 55.9644 882.614 56.0854C882.858 56.9663 883.067 57.8662 883.242 58.7852C883.416 59.7041 883.506 60.2524 883.513 60.43C883.518 60.5722 883.36 60.6488 883.04 60.66C882.72 60.6712 882.45 60.5739 882.23 60.3681C881.909 59.3476 881.564 58.6125 881.192 58.163C880.416 57.3362 879.477 56.9421 878.376 56.9805C877.772 57.0016 877.28 57.1789 876.9 57.5124C876.556 57.8446 876.393 58.2772 876.412 58.8102C876.43 59.3432 876.552 59.7659 876.776 60.0783C877.036 60.3894 877.33 60.6637 877.659 60.9013C878.022 61.1021 878.419 61.2839 878.852 61.4466C879.284 61.6094 879.718 61.79 880.152 61.9883C880.584 62.1511 881.036 62.3488 881.506 62.5814C881.977 62.814 882.396 63.1017 882.764 63.4447C883.61 64.2334 884.052 65.1785 884.09 66.2801C884.128 67.3461 883.961 68.188 883.592 68.8057C883.222 69.4234 882.724 69.9389 882.098 70.3521C880.916 71.1405 879.33 71.5695 877.34 71.639C876.523 71.6675 875.738 71.606 874.985 71.4543C874.232 71.2672 873.622 71.1284 873.156 71.0379C873.068 70.5429 872.992 69.9052 872.93 69.1247C872.865 68.3086 872.809 67.7058 872.76 67.3162C872.745 66.8898 872.735 66.6233 872.732 66.5167Z" fill="white"/>
<path d="M996.524 45.7016C998.591 45.8073 1000.03 45.8459 1000.85 45.8174C1001.7 45.7876 1002.43 45.7266 1003.03 45.6344C1003.67 45.541 1004.34 45.4642 1005.05 45.4038C1005.13 45.5079 1005.17 45.7199 1005.18 46.0397C1005.19 46.3595 1005.16 46.5917 1005.1 46.7363C1004.17 46.7686 1003.5 46.881 1003.08 47.0736C1002.7 47.2649 1002.47 47.4506 1002.41 47.6308C1002.12 48.5303 1002.01 49.9572 1002.08 51.9116L1002.32 58.7341C1002.43 62.1098 1001.55 64.7735 999.659 66.725C997.976 68.4559 995.767 69.3691 993.031 69.4647C991.538 69.5168 990.126 69.3171 988.794 68.8655C987.461 68.3784 986.387 67.6866 985.573 66.79C984.793 65.8566 984.222 64.7737 983.859 63.5412C983.53 62.2719 983.333 60.7133 983.268 58.8656L983.008 51.4035C982.982 50.6572 982.942 50.0183 982.887 49.4865C982.869 48.9535 982.802 48.5645 982.687 48.3195C982.571 48.0744 982.406 47.9201 982.19 47.8565C982.01 47.7916 981.794 47.728 981.543 47.6656C981.114 47.6095 980.704 47.5882 980.313 47.6018C980.237 47.4622 980.194 47.2325 980.183 46.9127C980.172 46.5928 980.2 46.3784 980.267 46.2693C982.05 46.3849 983.723 46.4155 985.287 46.3609C986.85 46.3063 988.517 46.1591 990.288 45.9194C990.362 46.0235 990.405 46.2355 990.416 46.5553C990.428 46.8751 990.4 47.1073 990.334 47.2519C989.694 47.2743 989.164 47.3639 988.742 47.521C988.321 47.678 988.094 47.8104 988.063 47.9183C987.902 48.4219 987.852 49.5266 987.911 51.2322L988.137 57.6816C988.179 58.8898 988.252 59.9723 988.357 60.9293C988.496 61.8494 988.758 62.7297 989.143 63.5701C989.563 64.4093 990.013 65.0517 990.491 65.4976C991.003 65.9066 991.512 66.209 992.017 66.4049C992.74 66.7354 993.546 66.8851 994.434 66.8541C995.322 66.8231 996.098 66.6359 996.762 66.2925C997.426 65.9491 998.013 65.4128 998.521 64.6835C999.674 63.0778 1000.2 60.8536 1000.1 58.0109L999.894 52.0412C999.824 50.0513 999.614 48.6178 999.263 47.7406C999.148 47.4956 998.822 47.3291 998.285 47.2411C997.639 47.0858 997.068 47.0168 996.57 47.0341C996.494 46.8945 996.451 46.6648 996.439 46.345C996.428 46.0251 996.456 45.8107 996.524 45.7016ZM1006.54 45.3518C1008.32 45.4674 1010.01 45.4973 1011.61 45.4415C1013.14 45.3881 1014.79 45.2416 1016.56 45.0019C1016.64 45.106 1016.68 45.318 1016.69 45.6378C1016.7 45.9576 1016.67 46.1898 1016.61 46.3344C1015.93 46.358 1015.4 46.4477 1015.02 46.6035C1014.63 46.7592 1014.42 46.8911 1014.39 46.9989C1014.23 47.396 1014.14 47.8616 1014.12 48.3959C1014.14 48.9289 1014.16 49.5685 1014.19 50.3147L1014.64 63.2668C1014.66 64.0486 1014.69 64.7059 1014.71 65.239C1014.76 65.7707 1014.85 66.1591 1014.96 66.4041C1015.07 66.6136 1015.22 66.7685 1015.4 66.8689C1015.62 66.9326 1015.84 66.9962 1016.05 67.0598C1016.44 67.1172 1016.87 67.1379 1017.33 67.1217C1017.41 67.2614 1017.45 67.4911 1017.46 67.8109C1017.48 68.1307 1017.45 68.3452 1017.38 68.4543C1014.03 68.2511 1010.69 68.3677 1007.36 68.8042C1007.28 68.7001 1007.24 68.4881 1007.23 68.1683C1007.22 67.8485 1007.25 67.6163 1007.31 67.4717C1008.06 67.4456 1008.61 67.3553 1008.96 67.2008C1009.31 67.0107 1009.52 66.8611 1009.58 66.752C1009.75 66.3194 1009.8 65.2148 1009.73 63.4381L1009.28 50.486C1009.22 48.7803 1009.09 47.6819 1008.9 47.1906C1008.64 46.8084 1007.87 46.6397 1006.59 46.6843C1006.51 46.5447 1006.47 46.315 1006.46 45.9952C1006.45 45.6753 1006.47 45.4609 1006.54 45.3518ZM1021.18 68.6419C1021.14 68.7853 1020.99 68.9508 1020.71 69.1384C1020.47 69.3247 1020.14 69.4254 1019.71 69.4403C1019.11 69.4614 1018.8 69.3831 1018.79 69.2054L1028.25 41.8722C1028.38 41.583 1028.57 41.3807 1028.81 41.2654C1029.06 41.1501 1029.37 41.0857 1029.77 41.072C1030.16 41.0584 1030.37 41.0865 1030.41 41.1563C1030.48 41.2249 1030.56 41.2757 1030.63 41.3087L1021.18 68.6419ZM1048.48 43.8871C1050.55 43.9928 1051.99 44.0314 1052.81 44.0029C1053.66 43.9731 1054.39 43.9121 1054.99 43.8199C1055.63 43.7265 1056.3 43.6497 1057.01 43.5893C1057.09 43.6934 1057.13 43.9054 1057.14 44.2252C1057.15 44.545 1057.13 44.7772 1057.06 44.9218C1056.14 44.9541 1055.46 45.0665 1055.04 45.2591C1054.66 45.4504 1054.43 45.6361 1054.37 45.8163C1054.08 46.7158 1053.97 48.1427 1054.04 50.0971L1054.28 56.9196C1054.39 60.2953 1053.51 62.959 1051.62 64.9105C1049.94 66.6414 1047.73 67.5546 1044.99 67.6502C1043.5 67.7023 1042.09 67.5026 1040.75 67.051C1039.42 66.5639 1038.35 65.8721 1037.53 64.9755C1036.75 64.0421 1036.18 62.9592 1035.82 61.7267C1035.49 60.4574 1035.29 58.8988 1035.23 57.0511L1034.97 49.589C1034.94 48.8427 1034.9 48.2038 1034.85 47.672C1034.83 47.139 1034.76 46.75 1034.65 46.505C1034.53 46.2599 1034.37 46.1056 1034.15 46.042C1033.97 45.9771 1033.75 45.9135 1033.5 45.8511C1033.07 45.795 1032.66 45.7737 1032.27 45.7873C1032.2 45.6477 1032.15 45.418 1032.14 45.0982C1032.13 44.7783 1032.16 44.5639 1032.23 44.4548C1034.01 44.5704 1035.68 44.601 1037.25 44.5464C1038.81 44.4918 1040.48 44.3446 1042.25 44.1049C1042.32 44.209 1042.37 44.421 1042.38 44.7408C1042.39 45.0606 1042.36 45.2928 1042.29 45.4374C1041.65 45.4597 1041.12 45.5494 1040.7 45.7065C1040.28 45.8635 1040.05 45.9959 1040.02 46.1038C1039.86 46.6074 1039.81 47.7121 1039.87 49.4177L1040.1 55.8671C1040.14 57.0753 1040.21 58.1578 1040.32 59.1147C1040.46 60.0349 1040.72 60.9152 1041.1 61.7556C1041.52 62.5948 1041.97 63.2372 1042.45 63.6831C1042.96 64.0921 1043.47 64.3945 1043.98 64.5904C1044.7 64.9209 1045.51 65.0706 1046.39 65.0396C1047.28 65.0086 1048.06 64.8214 1048.72 64.478C1049.39 64.1346 1049.97 63.5983 1050.48 62.869C1051.63 61.2633 1052.16 59.0391 1052.06 56.1964L1051.85 50.2267C1051.78 48.2368 1051.57 46.8033 1051.22 45.9261C1051.11 45.6811 1050.78 45.5146 1050.25 45.4266C1049.6 45.2712 1049.03 45.2023 1048.53 45.2196C1048.45 45.08 1048.41 44.8503 1048.4 44.5305C1048.39 44.2106 1048.42 43.9962 1048.48 43.8871ZM1058.28 44.9324C1058.1 44.9031 1057.96 44.8903 1057.85 44.894C1057.75 44.8978 1057.69 44.6864 1057.67 44.26C1057.66 43.8336 1057.7 43.6008 1057.81 43.5615C1061.22 43.5845 1063.13 43.5892 1063.52 43.5756C1063.91 43.5619 1065.52 43.4344 1068.36 43.193C1068.4 43.2983 1068.43 43.5465 1068.44 43.9373C1068.45 44.3282 1068.41 44.5255 1068.3 44.5292C1067.13 44.5702 1066.52 44.8229 1066.46 45.2873C1066.47 45.536 1066.59 45.7988 1066.81 46.0756L1070.91 51.8561C1071.31 51.2727 1071.77 50.6519 1072.28 49.9937C1072.83 49.2987 1073.34 48.6404 1073.81 48.019C1074.87 46.5592 1075.39 45.6871 1075.38 45.4028C1075.37 45.083 1075.07 44.8265 1074.5 44.6331C1073.92 44.4398 1073.33 44.3536 1072.73 44.3747C1072.62 44.3785 1072.56 44.2382 1072.55 43.9539C1072.53 43.4209 1072.56 43.1176 1072.63 43.0441C1074.16 43.1684 1075.71 43.2032 1077.27 43.1486C1078.87 43.0928 1080.29 42.9543 1081.53 42.7332C1081.6 42.8374 1081.65 43.0848 1081.66 43.4757C1081.67 43.8666 1081.63 44.0639 1081.52 44.0676C1081.45 44.0701 1081.27 44.0941 1080.99 44.1395C1080.74 44.1482 1080.42 44.2127 1080.04 44.3329C1079.09 44.6862 1078.29 45.2478 1077.64 46.0176L1071.92 53.3684C1074.05 56.3891 1075.53 58.4721 1076.35 59.6174C1077.21 60.726 1077.88 61.6097 1078.37 62.2688C1078.85 62.9278 1079.19 63.3785 1079.37 63.6211C1079.6 63.8268 1079.89 64.0301 1080.25 64.2309C1080.61 64.3962 1080.97 64.5259 1081.33 64.6201C1081.87 64.7791 1082.39 64.85 1082.89 64.8326C1082.96 65.0078 1083.01 65.2375 1083.02 65.5218C1083.03 65.7705 1083 65.985 1082.93 66.1651C1081.51 66.0726 1079.78 66.0617 1077.75 66.1325C1075.73 66.2032 1073.72 66.3444 1071.74 66.556C1071.63 66.4531 1071.58 66.2056 1071.61 65.8135C1071.63 65.4214 1071.68 65.2241 1071.75 65.2216C1071.85 65.2179 1072.01 65.1945 1072.22 65.1516C1072.44 65.1086 1072.65 65.0478 1072.86 64.9693C1073.42 64.7007 1073.69 64.4421 1073.68 64.1933C1073.68 64.0512 1073.64 63.9103 1073.56 63.7707L1068.63 56.8987C1067.71 58.1049 1066.66 59.618 1065.48 61.4381C1064.33 63.2215 1063.76 64.202 1063.77 64.3796C1063.77 64.5573 1063.88 64.7135 1064.1 64.8482C1064.32 64.9829 1064.57 65.0986 1064.86 65.1952C1065.33 65.3568 1065.95 65.4239 1066.74 65.3966C1066.96 65.8155 1067.01 66.2585 1066.89 66.7254C1065.68 66.6254 1064.2 66.6059 1062.46 66.6667C1060.72 66.7275 1059.14 66.8538 1057.72 67.0455C1057.65 66.9414 1057.6 66.7294 1057.59 66.4096C1057.58 66.0898 1057.61 65.8576 1057.67 65.713C1058.67 65.6783 1059.48 65.4898 1060.11 65.1477C1060.74 64.77 1061.19 64.3808 1061.46 63.98L1067.39 55.1808L1062.23 47.8366C1061.89 47.3503 1061.53 46.8468 1061.16 46.3262C1060.82 45.8044 1060.54 45.4939 1060.33 45.3947C1060.14 45.2588 1059.93 45.1596 1059.68 45.0973C1059.46 45.0336 1059.23 44.9884 1058.98 44.9615C1058.73 44.9347 1058.5 44.925 1058.28 44.9324ZM1099.73 64.2978C1100.58 64.268 1101.34 63.9926 1102 63.4716C1102.65 62.915 1102.96 62.0148 1102.91 60.7711C1102.88 59.7051 1102.18 58.6088 1100.83 57.4821C1100.27 57.0032 1099.69 56.5789 1099.07 56.2091C1098.46 55.8393 1097.87 55.4861 1097.33 55.1493C1096.78 54.7771 1096.18 54.3889 1095.53 53.9848C1094.91 53.5795 1094.34 53.1191 1093.82 52.6034C1092.75 51.4668 1092.19 50.0812 1092.13 48.4466C1092.07 46.7055 1092.82 45.1674 1094.37 43.8323C1095.82 42.572 1097.51 41.9084 1099.43 41.8414C1100.46 41.8054 1101.42 41.8785 1102.31 42.0607C1103.25 42.2416 1104.25 42.4201 1105.32 42.5961C1105.46 43.5162 1105.56 44.4554 1105.63 45.4136C1105.74 46.3705 1105.84 47.3807 1105.95 48.4443C1105.82 48.5914 1105.69 48.6668 1105.59 48.6705C1104.91 48.6941 1104.55 48.6176 1104.51 48.4412C1104.29 47.2748 1103.77 46.1722 1102.96 45.1335C1101.99 43.8866 1100.88 43.2848 1099.64 43.3282C1098.93 43.353 1098.26 43.5898 1097.63 44.0386C1097.01 44.4873 1096.72 45.298 1096.76 46.4706C1096.81 47.9986 1098.57 49.8229 1102.02 51.9437C1102.6 52.3147 1103.2 52.7029 1103.82 53.1082C1104.47 53.4767 1105.06 53.9188 1105.58 54.4344C1106.76 55.6739 1107.38 57.1998 1107.44 59.012C1107.51 60.8953 1106.76 62.4868 1105.21 63.7863C1103.72 65.0478 1102 65.7127 1100.05 65.7809C1097.99 65.8529 1095.74 65.6113 1093.3 65.056C1092.88 63.1851 1092.6 61.7896 1092.46 60.8695C1092.36 59.9481 1092.28 59.3636 1092.24 59.1161C1092.3 59.007 1092.46 58.8948 1092.71 58.7796C1092.99 58.663 1093.22 58.6017 1093.39 58.5955C1093.57 58.5893 1093.68 58.6744 1093.72 58.8508C1093.94 59.9817 1094.59 61.151 1095.66 62.3587C1096.92 63.7023 1098.27 64.3487 1099.73 64.2978ZM1116 50.5481C1114.4 50.604 1113.56 51.9498 1113.48 54.5855C1113.43 55.2986 1113.42 56.0106 1113.44 56.7212C1113.47 57.4319 1113.55 58.2118 1113.69 59.0609C1113.86 59.8732 1114.11 60.6113 1114.46 61.2753C1115.19 62.8508 1116.12 63.6186 1117.26 63.5789C1118.93 63.5206 1119.82 62.1907 1119.95 59.5893C1119.96 58.9129 1119.95 58.2194 1119.93 57.5087C1119.9 56.7981 1119.8 56.0188 1119.63 55.1709C1119.46 54.3231 1119.2 53.5672 1118.86 52.9032C1118.13 51.2922 1117.18 50.5072 1116 50.5481ZM1116.38 49.0941C1117.59 49.0519 1118.7 49.2089 1119.7 49.565C1120.75 49.9199 1121.66 50.4397 1122.43 51.1243C1124.01 52.5634 1124.84 54.4022 1124.91 56.6409C1124.99 58.844 1124.26 60.7907 1122.72 62.4811C1121.24 64.1335 1119.34 65.0006 1116.99 65.0825C1114.54 65.1681 1112.52 64.4737 1110.94 62.9991C1109.36 61.5245 1108.53 59.6856 1108.45 57.4825C1108.38 55.3149 1109.09 53.3866 1110.6 51.6974C1112.11 50.0438 1114.03 49.176 1116.38 49.0941ZM1135.39 64.3332C1133.61 64.2175 1131.99 64.1852 1130.53 64.2361C1129.11 64.2857 1127.52 64.4304 1125.75 64.6701C1125.67 64.566 1125.63 64.354 1125.62 64.0342C1125.61 63.7144 1125.63 63.4822 1125.7 63.3376C1126.45 63.3115 1126.99 63.2212 1127.34 63.0666C1127.69 62.8766 1127.88 62.7276 1127.92 62.6198C1128.08 62.2582 1128.15 61.8109 1128.14 61.2779C1128.15 60.7437 1128.15 60.0857 1128.12 59.3039L1127.61 44.8061C1127.59 44.0244 1127.52 43.5288 1127.4 43.3193C1127.29 43.0743 1127.12 42.9199 1126.9 42.8563C1126.72 42.7915 1126.53 42.745 1126.31 42.7169C1125.81 42.5921 1125.43 42.5341 1125.19 42.5428C1125.12 42.5453 1125.06 42.3872 1125.01 42.0687C1125 41.7133 1125.04 41.4982 1125.15 41.4235C1127.52 41.0916 1129.58 40.6104 1131.34 39.9798C1131.66 39.862 1131.83 39.8025 1131.87 39.8013C1132.12 39.8636 1132.3 40.0706 1132.42 40.4222C1132.37 40.8511 1132.31 41.2623 1132.25 41.6556C1132.16 42.1923 1132.14 42.976 1132.17 44.0064L1132.7 59.1439C1132.77 60.9206 1132.85 61.9492 1132.97 62.2297C1133.09 62.4748 1133.23 62.6475 1133.42 62.7479C1133.63 62.8115 1133.85 62.8751 1134.06 62.9387C1134.46 62.9961 1134.88 63.0168 1135.35 63.0007C1135.42 63.1403 1135.47 63.37 1135.48 63.6898C1135.49 64.0096 1135.46 64.2241 1135.39 64.3332ZM1143.84 50.0563C1146.14 49.798 1148.4 49.0967 1150.6 47.9525C1150.74 47.9831 1150.89 48.067 1151.03 48.2041C1151.18 48.3413 1151.26 48.4454 1151.26 48.5165C1151.19 48.6966 1151.12 49.1795 1151.04 49.9649C1150.96 50.7149 1150.93 51.3386 1150.95 51.836L1151.23 59.8312C1151.24 60.1154 1151.25 60.3642 1151.25 60.5774C1151.3 60.7893 1151.41 60.9811 1151.59 61.1525C1151.81 61.3583 1152.35 61.4463 1153.2 61.4165C1153.28 61.5561 1153.32 61.7503 1153.33 61.9991C1153.34 62.2123 1153.27 62.4102 1153.14 62.5928C1152.43 62.6532 1151.28 62.9067 1149.7 63.3534C1148.11 63.8001 1147.26 64.0253 1147.16 64.0291C1146.94 64.0365 1146.83 63.756 1146.81 63.1874L1146.79 62.6011C1146.78 62.459 1146.75 62.4069 1146.68 62.4449C1145.11 63.4957 1143.48 64.0509 1141.77 64.1105C1139.46 64.1911 1137.98 62.9444 1137.32 60.3703C1137.15 59.5935 1137.05 58.7965 1137.02 57.9792L1136.9 54.408C1136.89 54.1237 1136.84 53.6986 1136.74 53.1325C1136.65 52.5665 1136.57 52.2136 1136.49 52.0739C1136.3 51.7248 1135.69 51.5327 1134.66 51.4976C1134.44 51.4695 1134.3 51.4567 1134.23 51.4592C1134.19 51.4249 1134.17 51.2479 1134.16 50.9281C1134.15 50.5727 1134.18 50.3938 1134.25 50.3913C1135.59 50.2376 1136.9 49.9429 1138.17 49.5074C1139.43 49.0363 1140.39 48.6291 1141.06 48.2857C1141.2 48.3163 1141.33 48.4008 1141.44 48.5392C1141.59 48.6763 1141.66 48.7805 1141.66 48.8515C1141.6 48.9961 1141.54 49.3007 1141.48 49.7651C1141.43 50.2295 1141.39 50.6222 1141.36 50.9433C1141.38 51.2631 1141.39 51.6717 1141.41 52.1692L1141.55 56.2201C1141.61 58.1034 1141.84 59.5363 1142.23 60.5188C1142.62 61.4658 1143.37 61.9201 1144.47 61.8816C1144.97 61.8643 1145.46 61.7048 1145.95 61.4031C1146.47 61.1002 1146.72 60.8067 1146.71 60.5224L1146.49 54.073C1146.48 53.7887 1146.43 53.3635 1146.34 52.7975C1146.25 52.2314 1146.16 51.8786 1146.09 51.7389C1145.86 51.2844 1145.1 51.0795 1143.83 51.1242C1143.75 51.0911 1143.71 50.9147 1143.7 50.5949C1143.69 50.2396 1143.73 50.06 1143.84 50.0563ZM1152.25 49.7093C1152.52 49.3085 1152.88 48.9046 1153.33 48.4976L1154.87 48.4436L1154.81 46.5781C1155.46 45.9505 1156.08 45.2885 1156.66 44.5923C1157.28 43.8948 1157.84 43.2703 1158.36 42.7186C1158.56 42.569 1158.76 42.5089 1158.94 42.5383C1159.11 42.532 1159.22 42.5816 1159.26 42.687L1159.46 48.2836L1163.45 48.144C1163.6 48.139 1163.67 48.3142 1163.69 48.6695C1163.7 48.9893 1163.44 49.3718 1162.93 49.8168L1159.51 49.9359L1159.82 58.6239C1159.88 60.4006 1160.55 61.2666 1161.83 61.222C1162.22 61.2083 1162.61 61.0881 1162.99 60.8612C1163.37 60.5988 1163.6 60.4309 1163.67 60.3573C1163.81 60.4945 1163.89 60.6164 1163.89 60.723C1163.9 61.0428 1163.84 61.2762 1163.7 61.4233C1163.6 61.5692 1163.43 61.7531 1163.19 61.975C1162.98 62.1956 1162.73 62.4181 1162.41 62.6425C1161.51 63.2433 1160.74 63.5549 1160.1 63.5772C1159.49 63.5983 1158.9 63.5299 1158.33 63.3721C1157.79 63.2486 1157.3 62.9811 1156.86 62.5696C1155.83 61.716 1155.29 60.383 1155.23 58.5708L1154.93 50.096L1152.43 50.1835C1152.32 50.1161 1152.26 49.9581 1152.25 49.7093ZM1171.93 47.7945C1171.87 47.9746 1171.77 48.6364 1171.63 49.7796L1171.91 57.7748C1171.97 59.5515 1172.06 60.5801 1172.18 60.8606C1172.29 61.1056 1172.44 61.2784 1172.62 61.3787C1172.8 61.4436 1173 61.5079 1173.22 61.5715C1173.57 61.6301 1173.95 61.6526 1174.34 61.639C1174.42 61.7786 1174.46 62.0084 1174.47 62.3282C1174.48 62.648 1174.45 62.8624 1174.39 62.9715C1172.6 62.8559 1171.07 62.8204 1169.79 62.8651C1168.34 62.916 1166.72 63.0613 1164.95 63.301C1164.88 63.1968 1164.83 62.9849 1164.82 62.6651C1164.81 62.3453 1164.84 62.1131 1164.9 61.9684C1165.65 61.9424 1166.2 61.8521 1166.55 61.6975C1166.9 61.5075 1167.11 61.3579 1167.17 61.2488C1167.34 60.8162 1167.39 59.7115 1167.33 57.9348L1167.17 53.351C1167.16 53.0667 1167.11 52.6415 1167.01 52.0755C1166.92 51.5094 1166.84 51.1566 1166.76 51.0169C1166.5 50.5636 1165.74 50.3587 1164.5 50.4022C1164.43 50.3691 1164.39 50.1927 1164.38 49.8729C1164.4 49.5163 1164.45 49.3368 1164.52 49.3343C1165.86 49.1805 1167.17 48.8859 1168.44 48.4503C1169.7 47.9793 1170.66 47.572 1171.33 47.2286C1171.44 47.2605 1171.56 47.3449 1171.71 47.4821C1171.86 47.6193 1171.93 47.7234 1171.93 47.7945ZM1166.16 41.3788C1166.14 40.6681 1166.35 40.0737 1166.79 39.5956C1167.27 39.0808 1167.87 38.8109 1168.58 38.7861C1169.29 38.7613 1169.9 38.989 1170.42 39.4691C1170.93 39.9136 1171.2 40.4912 1171.22 41.2019C1171.25 41.9126 1171.02 42.5254 1170.54 43.0402C1170.06 43.5551 1169.47 43.8249 1168.75 43.8497C1168.04 43.8745 1167.43 43.6469 1166.92 43.1668C1166.44 42.6854 1166.19 42.0894 1166.16 41.3788ZM1182.21 48.2361C1180.61 48.2919 1179.77 49.6377 1179.69 52.2734C1179.64 52.9865 1179.63 53.6985 1179.65 54.4091C1179.68 55.1198 1179.76 55.8997 1179.89 56.7488C1180.07 57.5611 1180.32 58.2993 1180.67 58.9632C1181.4 60.5387 1182.33 61.3066 1183.47 61.2668C1185.14 61.2085 1186.03 59.8787 1186.16 57.2772C1186.17 56.6008 1186.16 55.9073 1186.14 55.1966C1186.11 54.486 1186.01 53.7067 1185.84 52.8588C1185.67 52.011 1185.41 51.2551 1185.07 50.5911C1184.34 48.9801 1183.38 48.1951 1182.21 48.2361ZM1182.59 46.782C1183.8 46.7399 1184.91 46.8968 1185.91 47.253C1186.96 47.6078 1187.87 48.1276 1188.64 48.8122C1190.22 50.2513 1191.05 52.0901 1191.12 54.3288C1191.2 56.5319 1190.47 58.4786 1188.93 60.169C1187.45 61.8214 1185.55 62.6885 1183.2 62.7704C1180.75 62.8561 1178.73 62.1616 1177.15 60.687C1175.57 59.2124 1174.74 57.3735 1174.66 55.1704C1174.59 53.0028 1175.3 51.0745 1176.81 49.3853C1178.32 47.7317 1180.24 46.8639 1182.59 46.782ZM1197.28 61.9053C1195.82 61.9562 1194.21 62.1015 1192.43 62.3412C1192.36 62.2371 1192.32 62.0251 1192.31 61.7053C1192.29 61.3855 1192.32 61.1533 1192.39 61.0087C1193.13 60.9826 1193.68 60.8923 1194.03 60.7378C1194.38 60.5477 1194.59 60.3981 1194.66 60.2891C1194.82 59.8565 1194.87 58.7518 1194.81 56.9751L1194.65 52.3912C1194.64 52.107 1194.59 51.6818 1194.5 51.1157C1194.41 50.5497 1194.32 50.1968 1194.25 50.0572C1193.98 49.6039 1193.23 49.399 1191.98 49.4424C1191.91 49.4094 1191.87 49.2329 1191.86 48.9131C1191.88 48.5566 1191.93 48.377 1192 48.3745C1193.35 48.2208 1194.65 47.9261 1195.92 47.4906C1197.18 47.0195 1198.15 46.6123 1198.81 46.2689C1198.92 46.2652 1199.05 46.3497 1199.19 46.5224C1199.34 46.6596 1199.4 46.7643 1199.36 46.8366C1199.37 46.9077 1199.35 47.0504 1199.33 47.2649C1199.33 47.4425 1199.3 47.6748 1199.24 47.9615C1199.09 48.6784 1199.07 49.035 1199.17 49.0312C1199.21 49.03 1199.24 49.011 1199.28 48.9742C1199.31 48.9374 1199.37 48.9001 1199.44 48.862C1199.91 48.2761 1200.5 47.7576 1201.2 47.3063C1202.41 46.5167 1203.47 46.1064 1204.35 46.0753C1205.28 46.0431 1206.05 46.1941 1206.66 46.5283C1207.32 46.8258 1207.83 47.3059 1208.21 47.9686C1208.86 49.1557 1209.23 51.2239 1209.33 54.1732L1209.41 56.4651C1209.48 58.2418 1209.56 59.2704 1209.68 59.551C1209.8 59.796 1209.94 59.9687 1210.13 60.0691C1210.34 60.1327 1210.58 60.1957 1210.83 60.2581C1211.26 60.3143 1211.67 60.3355 1212.06 60.3219C1212.17 60.4603 1212.21 60.69 1212.19 61.0111C1212.2 61.3309 1212.17 61.5453 1212.1 61.6544C1210.43 61.5351 1208.82 61.5021 1207.3 61.5554C1206.12 61.5964 1204.65 61.7367 1202.88 61.9764C1202.81 61.8723 1202.76 61.6603 1202.75 61.3405C1202.74 61.0207 1202.77 60.7885 1202.84 60.6439C1203.08 60.6352 1203.44 60.5873 1203.9 60.5001C1204.36 60.3773 1204.63 60.1542 1204.73 59.8307C1204.86 59.4348 1204.89 58.3663 1204.83 56.6252L1204.73 53.8535C1204.62 50.5489 1203.78 48.9239 1202.21 48.9785C1201.54 49.002 1200.96 49.1824 1200.47 49.5196C1199.61 50.1902 1199.18 50.7032 1199.19 51.0585L1199.39 56.815C1199.45 58.5917 1199.54 59.6203 1199.66 59.9009C1199.78 60.1459 1199.92 60.3186 1200.11 60.419C1200.29 60.4839 1200.48 60.5481 1200.7 60.6117C1201.06 60.6704 1201.43 60.6929 1201.82 60.6793C1201.9 60.8189 1201.94 61.0486 1201.95 61.3684C1201.96 61.6883 1201.94 61.9027 1201.87 62.0118C1200.09 61.8962 1198.56 61.8607 1197.28 61.9053ZM1212.71 56.4567C1212.7 56.279 1212.88 56.184 1213.23 56.1716C1213.59 56.1591 1213.84 56.2748 1213.99 56.5186C1214.29 57.8957 1214.86 58.8898 1215.7 59.5009C1216.32 59.9773 1217 60.2025 1217.75 60.1764C1218.5 60.1503 1219.04 59.9357 1219.38 59.5324C1219.72 59.1291 1219.89 58.6965 1219.87 58.2346C1219.85 57.7726 1219.72 57.4038 1219.46 57.1283C1219.23 56.8159 1218.94 56.5593 1218.58 56.3585C1218.25 56.1565 1217.87 55.9563 1217.44 55.758C1215.85 55.1019 1214.5 54.295 1213.4 53.3373C1212.67 52.687 1212.28 51.8466 1212.25 50.8161C1212.21 49.7501 1212.39 48.9076 1212.8 48.2886C1213.2 47.6696 1213.72 47.1536 1214.35 46.7404C1215.53 45.9519 1216.95 45.5286 1218.62 45.4703C1219.44 45.4417 1220.16 45.5057 1220.77 45.6623C1221.38 45.7834 1221.98 45.9044 1222.59 46.0254C1222.84 46.9063 1223.05 47.8063 1223.22 48.7252C1223.4 49.6441 1223.49 50.1924 1223.49 50.3701C1223.5 50.5122 1223.34 50.5888 1223.02 50.6C1222.7 50.6112 1222.43 50.5139 1222.21 50.3081C1221.89 49.2876 1221.54 48.5525 1221.17 48.103C1220.4 47.2762 1219.46 46.8821 1218.36 46.9206C1217.75 46.9417 1217.26 47.1189 1216.88 47.4524C1216.54 47.7846 1216.37 48.2172 1216.39 48.7502C1216.41 49.2832 1216.53 49.7059 1216.76 50.0183C1217.02 50.3294 1217.31 50.6037 1217.64 50.8413C1218 51.0421 1218.4 51.2239 1218.83 51.3867C1219.26 51.5494 1219.7 51.73 1220.13 51.9283C1220.56 52.0911 1221.02 52.2888 1221.49 52.5214C1221.96 52.754 1222.38 53.0418 1222.74 53.3847C1223.59 54.1734 1224.03 55.1186 1224.07 56.2201C1224.11 57.2861 1223.94 58.128 1223.57 58.7457C1223.2 59.3635 1222.7 59.8789 1222.08 60.2921C1220.9 61.0805 1219.31 61.5095 1217.32 61.579C1216.5 61.6075 1215.72 61.546 1214.96 61.3944C1214.21 61.2072 1213.6 61.0684 1213.14 60.9779C1213.05 60.4829 1212.97 59.8452 1212.91 59.0647C1212.84 58.2487 1212.79 57.6458 1212.74 57.2562C1212.72 56.8298 1212.71 56.5633 1212.71 56.4567Z" fill="white"/>
<path d="M286 69L289.592 80.0557H301.217L291.812 86.8885L295.405 97.9443L286 91.1115L276.595 97.9443L280.188 86.8885L270.783 80.0557H282.408L286 69Z" fill="white"/>
<path d="M598 58L601.592 69.0557H613.217L603.812 75.8885L607.405 86.9443L598 80.1115L588.595 86.9443L592.188 75.8885L582.783 69.0557H594.408L598 58Z" fill="white"/>
<path d="M937 44L940.592 55.0557H952.217L942.812 61.8885L946.405 72.9443L937 66.1115L927.595 72.9443L931.188 61.8885L921.783 55.0557H933.408L937 44Z" fill="white"/>
</svg>
