<svg width="494" height="48" viewBox="0 0 494 48" fill="none" xmlns="http://www.w3.org/2000/svg">
<path d="M0.76 4.95334C3.20444 5.19778 5.52667 5.32 7.72667 5.32C9.82889 5.32 12.1022 5.19778 14.5467 4.95334C14.6444 5.1 14.6933 5.39333 14.6933 5.83333C14.6933 6.27333 14.6444 6.59111 14.5467 6.78667C13.6178 6.78667 12.8844 6.88444 12.3467 7.08C11.8089 7.27556 11.5156 7.44667 11.4667 7.59333C11.2222 8.13111 11.0756 8.76667 11.0267 9.5C11.0267 10.2333 11.0267 11.1133 11.0267 12.14V29.96C11.0267 31.0356 11.0267 31.94 11.0267 32.6733C11.0756 33.4067 11.1733 33.9444 11.32 34.2867C11.4667 34.58 11.6622 34.8 11.9067 34.9467C12.2 35.0444 12.4933 35.1422 12.7867 35.24C13.3244 35.3378 13.9111 35.3867 14.5467 35.3867C14.6444 35.5822 14.6933 35.9 14.6933 36.34C14.6933 36.78 14.6444 37.0733 14.5467 37.22C9.95111 36.78 5.35556 36.78 0.76 37.22C0.662222 37.0733 0.613333 36.78 0.613333 36.34C0.613333 35.9 0.662222 35.5822 0.76 35.3867C1.78667 35.3867 2.54444 35.2889 3.03333 35.0933C3.52222 34.8489 3.81556 34.6533 3.91333 34.5067C4.15778 33.92 4.28 32.4044 4.28 29.96V12.14C4.28 9.79333 4.15778 8.27778 3.91333 7.59333C3.57111 7.05556 2.52 6.78667 0.76 6.78667C0.662222 6.59111 0.613333 6.27333 0.613333 5.83333C0.613333 5.39333 0.662222 5.1 0.76 4.95334ZM36.9236 33.9933C37.5592 33.9933 38.0481 33.8711 38.3903 33.6267C38.7814 33.3333 38.977 33.1133 38.977 32.9667V26.22C38.4392 26.4644 37.877 26.7089 37.2903 26.9533C36.7525 27.1489 36.1903 27.4422 35.6036 27.8333C34.5281 28.5667 33.9903 29.5444 33.9903 30.7667C34.0392 31.9889 34.3814 32.8444 35.017 33.3333C35.6525 33.7733 36.2881 33.9933 36.9236 33.9933ZM47.777 33.26C48.0214 33.4067 48.1436 33.6267 48.1436 33.92C48.1436 34.2133 48.0703 34.5067 47.9236 34.8C47.6303 35.0933 47.117 35.4844 46.3836 35.9733C45.0636 36.8533 43.9636 37.2933 43.0836 37.2933C42.2036 37.2933 41.397 37.0489 40.6636 36.56C39.9792 36.0222 39.5148 35.46 39.2703 34.8733C38.5859 35.5578 37.6081 36.1444 36.337 36.6333C35.1148 37.1222 34.1614 37.3667 33.477 37.3667C32.7925 37.3667 32.0592 37.1956 31.277 36.8533C30.4948 36.5111 29.8348 36.0711 29.297 35.5333C28.0748 34.3111 27.4636 33.0889 27.4636 31.8667C27.4636 30.6444 27.7081 29.6911 28.197 29.0067C28.7348 28.2733 29.2725 27.8333 29.8103 27.6867C30.397 27.4911 31.057 27.2467 31.7903 26.9533C32.5725 26.66 33.4036 26.3422 34.2836 26C35.4081 25.6089 36.9725 25.0222 38.977 24.24V21.9667C38.977 20.7444 38.7081 19.6444 38.1703 18.6667C37.6325 17.64 36.9236 17.1267 36.0436 17.1267C35.1636 17.1267 34.5281 17.5178 34.137 18.3C33.7948 19.0822 33.5503 19.8889 33.4036 20.72C33.0125 22.4311 32.0592 23.2867 30.5436 23.2867C29.9081 23.2867 29.3214 23.0911 28.7836 22.7C28.2948 22.26 28.0503 21.7956 28.0503 21.3067C28.0503 20.6222 28.2703 19.84 28.7103 18.96C29.2481 18.4222 30.1281 17.8356 31.3503 17.2C33.8436 15.9289 36.0681 15.2933 38.0236 15.2933C40.0281 15.2933 41.7148 15.9778 43.0836 17.3467C44.5014 18.7156 45.2103 20.5 45.2103 22.7V31.72C45.2103 32.4044 45.3325 32.9178 45.577 33.26C45.8214 33.5533 46.0903 33.7 46.3836 33.7C46.7259 33.7 47.0192 33.6267 47.2636 33.48L47.777 33.26ZM56.3 36.8533C54.2955 36.8533 52.0711 36.9756 49.6266 37.22C49.5289 37.0733 49.48 36.78 49.48 36.34C49.48 35.9 49.5289 35.5822 49.6266 35.3867C50.6533 35.3867 51.4111 35.2889 51.9 35.0933C52.3889 34.8489 52.6822 34.6533 52.78 34.5067C53.0244 33.92 53.1466 32.4044 53.1466 29.96V23.6533C53.1466 23.2622 53.0978 22.6756 53 21.8933C52.9022 21.1111 52.8044 20.6222 52.7066 20.4267C52.3644 19.7911 51.3378 19.4733 49.6266 19.4733C49.5289 19.4244 49.48 19.18 49.48 18.74C49.5289 18.2511 49.6022 18.0067 49.7 18.0067C51.5578 17.86 53.3666 17.5178 55.1266 16.98C56.8866 16.3933 58.2311 15.88 59.16 15.44C59.3066 15.4889 59.4778 15.6111 59.6733 15.8067C59.8689 16.0022 59.9422 16.1489 59.8933 16.2467C59.6978 17.0778 59.5755 17.7867 59.5266 18.3733C59.4778 18.96 59.4778 19.2533 59.5266 19.2533C59.5755 19.2533 59.6244 19.2289 59.6733 19.18C59.7222 19.1311 59.7955 19.0822 59.8933 19.0333C60.5778 18.2511 61.4089 17.5667 62.3866 16.98C64.0978 15.9533 65.6133 15.44 66.9333 15.44C68.3022 15.44 69.4266 15.7333 70.3066 16.32C71.2355 16.9067 71.9933 17.9822 72.58 19.5467C72.6778 19.5467 72.8489 19.4244 73.0933 19.18C73.3378 18.8867 73.7533 18.52 74.34 18.08C74.9755 17.64 75.66 17.2244 76.3933 16.8333C78.1533 15.9044 79.62 15.44 80.7933 15.44C82.0155 15.44 83.0422 15.6844 83.8733 16.1733C84.7533 16.6133 85.4133 17.2978 85.8533 18.2267C86.6844 19.8889 87.1 22.7489 87.1 26.8067V29.96C87.1 31.0356 87.1 31.94 87.1 32.6733C87.1489 33.4067 87.2466 33.9444 87.3933 34.2867C87.54 34.58 87.7355 34.8 87.98 34.9467C88.2733 35.0444 88.5911 35.1422 88.9333 35.24C89.4222 35.3378 89.9844 35.3867 90.62 35.3867C90.7178 35.5822 90.7666 35.9 90.7666 36.34C90.7666 36.78 90.7178 37.0733 90.62 37.22C88.1755 36.9756 86.0489 36.8533 84.24 36.8533C82.48 36.8533 80.3778 36.9756 77.9333 37.22C77.8355 37.0733 77.7866 36.78 77.7866 36.34C77.7866 35.9 77.8355 35.5822 77.9333 35.3867C78.2266 35.3867 78.6911 35.3378 79.3266 35.24C79.9622 35.0933 80.3289 34.8489 80.4266 34.5067C80.6711 34.0178 80.7933 33.4067 80.7933 32.6733C80.8422 31.94 80.8666 31.0356 80.8666 29.96V26.1467C80.8666 23.0667 80.28 20.9889 79.1066 19.9133C78.7155 19.5222 78.2266 19.3267 77.64 19.3267C77.1022 19.3267 76.5644 19.4244 76.0266 19.62C75.4889 19.8156 75 20.0356 74.56 20.28C73.5333 20.9156 73.02 21.4778 73.02 21.9667V22.26C73.1666 23.6778 73.24 25.1933 73.24 26.8067V29.96C73.24 32.4044 73.3133 33.8222 73.46 34.2133C73.6066 34.5556 73.8022 34.8 74.0466 34.9467C74.34 35.0444 74.6578 35.1422 75 35.24C75.4889 35.3378 76.0266 35.3867 76.6133 35.3867C76.7111 35.5822 76.76 35.9 76.76 36.34C76.76 36.78 76.7111 37.0733 76.6133 37.22C74.1689 36.9756 71.9933 36.8533 70.0866 36.8533C68.4244 36.8533 66.3711 36.9756 63.9266 37.22C63.8289 37.0733 63.78 36.78 63.78 36.34C63.78 35.9 63.8289 35.5822 63.9266 35.3867C64.2689 35.3867 64.7578 35.3378 65.3933 35.24C66.0778 35.0933 66.4933 34.8 66.64 34.36C66.8355 33.8222 66.9333 32.3556 66.9333 29.96V26.1467C66.9333 21.6 65.8578 19.3267 63.7066 19.3267C62.7778 19.3267 61.9711 19.5467 61.2866 19.9867C60.0644 20.8667 59.4533 21.5511 59.4533 22.04V29.96C59.4533 32.4044 59.5266 33.8222 59.6733 34.2133C59.82 34.5556 60.0155 34.8 60.26 34.9467C60.5044 35.0444 60.7733 35.1422 61.0666 35.24C61.5555 35.3378 62.0689 35.3867 62.6066 35.3867C62.7044 35.5822 62.7533 35.9 62.7533 36.34C62.7533 36.78 62.7044 37.0733 62.6066 37.22C60.1622 36.9756 58.06 36.8533 56.3 36.8533ZM111.313 33.9933C111.949 33.9933 112.438 33.8711 112.78 33.6267C113.171 33.3333 113.367 33.1133 113.367 32.9667V26.22C112.829 26.4644 112.267 26.7089 111.68 26.9533C111.142 27.1489 110.58 27.4422 109.993 27.8333C108.918 28.5667 108.38 29.5444 108.38 30.7667C108.429 31.9889 108.771 32.8444 109.407 33.3333C110.042 33.7733 110.678 33.9933 111.313 33.9933ZM122.167 33.26C122.411 33.4067 122.533 33.6267 122.533 33.92C122.533 34.2133 122.46 34.5067 122.313 34.8C122.02 35.0933 121.507 35.4844 120.773 35.9733C119.453 36.8533 118.353 37.2933 117.473 37.2933C116.593 37.2933 115.787 37.0489 115.053 36.56C114.369 36.0222 113.904 35.46 113.66 34.8733C112.976 35.5578 111.998 36.1444 110.727 36.6333C109.504 37.1222 108.551 37.3667 107.867 37.3667C107.182 37.3667 106.449 37.1956 105.667 36.8533C104.884 36.5111 104.224 36.0711 103.687 35.5333C102.464 34.3111 101.853 33.0889 101.853 31.8667C101.853 30.6444 102.098 29.6911 102.587 29.0067C103.124 28.2733 103.662 27.8333 104.2 27.6867C104.787 27.4911 105.447 27.2467 106.18 26.9533C106.962 26.66 107.793 26.3422 108.673 26C109.798 25.6089 111.362 25.0222 113.367 24.24V21.9667C113.367 20.7444 113.098 19.6444 112.56 18.6667C112.022 17.64 111.313 17.1267 110.433 17.1267C109.553 17.1267 108.918 17.5178 108.527 18.3C108.184 19.0822 107.94 19.8889 107.793 20.72C107.402 22.4311 106.449 23.2867 104.933 23.2867C104.298 23.2867 103.711 23.0911 103.173 22.7C102.684 22.26 102.44 21.7956 102.44 21.3067C102.44 20.6222 102.66 19.84 103.1 18.96C103.638 18.4222 104.518 17.8356 105.74 17.2C108.233 15.9289 110.458 15.2933 112.413 15.2933C114.418 15.2933 116.104 15.9778 117.473 17.3467C118.891 18.7156 119.6 20.5 119.6 22.7V31.72C119.6 32.4044 119.722 32.9178 119.967 33.26C120.211 33.5533 120.48 33.7 120.773 33.7C121.116 33.7 121.409 33.6267 121.653 33.48L122.167 33.26ZM130.69 36.8533C128.685 36.8533 126.461 36.9756 124.016 37.22C123.919 37.0733 123.87 36.78 123.87 36.34C123.87 35.9 123.919 35.5822 124.016 35.3867C125.043 35.3867 125.801 35.2889 126.29 35.0933C126.779 34.8489 127.072 34.6533 127.17 34.5067C127.414 33.92 127.536 32.4044 127.536 29.96V23.6533C127.536 23.2622 127.487 22.6756 127.39 21.8933C127.292 21.1111 127.194 20.6222 127.096 20.4267C126.754 19.7911 125.727 19.4733 124.016 19.4733C123.919 19.4244 123.87 19.18 123.87 18.74C123.919 18.2511 123.992 18.0067 124.09 18.0067C125.947 17.86 127.756 17.5178 129.516 16.98C131.276 16.3933 132.621 15.88 133.55 15.44C133.696 15.44 133.867 15.5622 134.063 15.8067C134.259 16.0022 134.332 16.1489 134.283 16.2467C134.283 16.3444 134.259 16.54 134.21 16.8333C134.21 17.0778 134.161 17.3956 134.063 17.7867C133.819 18.7644 133.77 19.2533 133.916 19.2533C133.965 19.2533 134.014 19.2289 134.063 19.18C134.112 19.1311 134.185 19.0822 134.283 19.0333C134.967 18.2511 135.799 17.5667 136.776 16.98C138.487 15.9533 139.954 15.44 141.176 15.44C142.447 15.44 143.499 15.6844 144.33 16.1733C145.21 16.6133 145.894 17.2978 146.383 18.2267C147.214 19.8889 147.63 22.7489 147.63 26.8067V29.96C147.63 32.4044 147.703 33.8222 147.85 34.2133C147.996 34.5556 148.192 34.8 148.436 34.9467C148.73 35.0444 149.047 35.1422 149.39 35.24C149.976 35.3378 150.539 35.3867 151.076 35.3867C151.223 35.5822 151.272 35.9 151.223 36.34C151.223 36.78 151.174 37.0733 151.076 37.22C148.779 36.9756 146.579 36.8533 144.476 36.8533C142.863 36.8533 140.834 36.9756 138.39 37.22C138.292 37.0733 138.243 36.78 138.243 36.34C138.243 35.9 138.292 35.5822 138.39 35.3867C138.732 35.3867 139.221 35.3378 139.856 35.24C140.492 35.0933 140.883 34.8 141.03 34.36C141.225 33.8222 141.323 32.3556 141.323 29.96V26.1467C141.323 21.6 140.247 19.3267 138.096 19.3267C137.167 19.3267 136.361 19.5467 135.676 19.9867C134.454 20.8667 133.843 21.5511 133.843 22.04V29.96C133.843 32.4044 133.916 33.8222 134.063 34.2133C134.21 34.5556 134.405 34.8 134.65 34.9467C134.894 35.0444 135.163 35.1422 135.456 35.24C135.945 35.3378 136.459 35.3867 136.996 35.3867C137.094 35.5822 137.143 35.9 137.143 36.34C137.143 36.78 137.094 37.0733 136.996 37.22C134.552 36.9756 132.45 36.8533 130.69 36.8533ZM325.295 7.59333C325.197 7.88667 325.123 8.27778 325.075 8.76667C325.075 9.25556 325.075 12.9467 325.075 19.84V30.7667C325.075 32.1844 325.221 33.26 325.515 33.9933C325.661 34.3356 326.028 34.6044 326.615 34.8C327.25 34.9956 327.886 35.0933 328.521 35.0933C332.481 35.0933 335.39 33.9933 337.248 31.7933C339.106 29.5444 340.035 26.0489 340.035 21.3067C340.035 16.7111 338.886 13.1422 336.588 10.6C334.437 8.20444 331.503 7.00667 327.788 7.00667C327.201 7.00667 326.663 7.03111 326.175 7.08C325.735 7.12889 325.441 7.3 325.295 7.59333ZM321.775 5.17333C323.877 5.17333 326.346 5.12444 329.181 5.02667C334.803 5.02667 339.301 6.39556 342.675 9.13333C346.048 11.9689 347.735 15.8311 347.735 20.72C347.735 26.1956 345.901 30.3511 342.235 33.1867C338.91 35.8267 334.437 37.1467 328.815 37.1467C324.17 37.1467 319.501 37.1467 314.808 37.1467C314.71 37 314.661 36.7067 314.661 36.2667C314.661 35.8267 314.71 35.5333 314.808 35.3867C315.003 35.3867 315.419 35.3378 316.055 35.24C317.13 35.0933 317.766 34.8489 317.961 34.5067C318.206 33.92 318.328 32.4044 318.328 29.96V12.14C318.328 9.79333 318.206 8.27778 317.961 7.59333C317.619 7.10445 316.568 6.86 314.808 6.86C314.71 6.66444 314.661 6.34667 314.661 5.90667C314.661 5.46667 314.71 5.17333 314.808 5.02667C315.932 5.12444 317.106 5.17333 318.328 5.17333H321.775ZM356.109 23.36C356.207 23.36 356.525 23.36 357.063 23.36C357.649 23.3111 358.285 23.2622 358.969 23.2133C360.534 23.1644 361.658 23.0911 362.343 22.9933C362.783 22.9444 363.003 22.6756 363.003 22.1867C363.003 21.6489 362.954 21.0867 362.856 20.5C362.758 19.9133 362.587 19.4 362.343 18.96C361.805 17.8844 361.096 17.3467 360.216 17.3467C359.385 17.3467 358.725 17.5911 358.236 18.08C357.747 18.52 357.331 19.0578 356.989 19.6933C356.403 20.9644 356.109 22.1867 356.109 23.36ZM367.696 24.68C364.763 24.9244 360.9 25.12 356.109 25.2667C356.109 28.2489 356.94 30.4489 358.603 31.8667C359.874 32.8933 361.243 33.4067 362.709 33.4067C364.225 33.4067 365.398 33.1378 366.229 32.6C367.06 32.0622 367.745 31.5244 368.283 30.9867C368.674 31.0844 368.869 31.3533 368.869 31.7933C368.869 32.2333 368.771 32.6 368.576 32.8933C368.429 33.1378 368.111 33.5289 367.623 34.0667C367.134 34.5556 366.523 35.0444 365.789 35.5333C363.931 36.8044 362.147 37.44 360.436 37.44C358.725 37.44 357.258 37.22 356.036 36.78C354.814 36.2911 353.738 35.6067 352.809 34.7267C350.805 32.82 349.803 30.3511 349.803 27.32C349.803 24.1911 350.878 21.4533 353.029 19.1067C355.327 16.6133 357.82 15.3667 360.509 15.3667C363.394 15.3667 365.594 16.2222 367.109 17.9333C368.38 19.3022 369.016 20.8911 369.016 22.7C369.016 23.2378 368.894 23.7022 368.649 24.0933C368.405 24.4844 368.087 24.68 367.696 24.68ZM371.517 30.1067C371.517 29.8622 371.762 29.74 372.251 29.74C372.74 29.74 373.082 29.9111 373.277 30.2533C373.62 32.16 374.353 33.5533 375.477 34.4333C376.308 35.1178 377.237 35.46 378.264 35.46C379.291 35.46 380.048 35.1911 380.537 34.6533C381.026 34.1156 381.271 33.5289 381.271 32.8933C381.271 32.2578 381.1 31.7444 380.757 31.3533C380.464 30.9133 380.073 30.5467 379.584 30.2533C379.144 29.96 378.631 29.6667 378.044 29.3733C375.893 28.3956 374.084 27.2222 372.617 25.8533C371.64 24.9244 371.151 23.7511 371.151 22.3333C371.151 20.8667 371.444 19.7178 372.031 18.8867C372.617 18.0556 373.351 17.3711 374.231 16.8333C375.893 15.8067 377.873 15.2933 380.171 15.2933C381.295 15.2933 382.273 15.4156 383.104 15.66C383.935 15.8556 384.766 16.0511 385.597 16.2467C385.891 17.4689 386.135 18.7156 386.331 19.9867C386.526 21.2578 386.624 22.0156 386.624 22.26C386.624 22.4556 386.404 22.5533 385.964 22.5533C385.524 22.5533 385.157 22.4067 384.864 22.1133C384.473 20.6956 384.033 19.6689 383.544 19.0333C382.517 17.86 381.246 17.2733 379.731 17.2733C378.9 17.2733 378.215 17.4933 377.677 17.9333C377.188 18.3733 376.944 18.96 376.944 19.6933C376.944 20.4267 377.091 21.0133 377.384 21.4533C377.726 21.8933 378.117 22.2844 378.557 22.6267C379.046 22.92 379.584 23.1889 380.171 23.4333C380.757 23.6778 381.344 23.9467 381.931 24.24C382.517 24.4844 383.128 24.7778 383.764 25.12C384.4 25.4622 384.962 25.8778 385.451 26.3667C386.575 27.4911 387.137 28.8111 387.137 30.3267C387.137 31.7933 386.868 32.9422 386.331 33.7733C385.793 34.6044 385.084 35.2889 384.204 35.8267C382.542 36.8533 380.342 37.3667 377.604 37.3667C376.48 37.3667 375.404 37.2444 374.377 37C373.351 36.7067 372.52 36.4867 371.884 36.34C371.786 35.6556 371.713 34.7756 371.664 33.7C371.615 32.5756 371.566 31.7444 371.517 31.2067C371.517 30.62 371.517 30.2533 371.517 30.1067ZM398.936 16.2467C398.839 16.4911 398.667 17.3956 398.423 18.96V29.96C398.423 32.4044 398.496 33.8222 398.643 34.2133C398.79 34.5556 398.985 34.8 399.23 34.9467C399.474 35.0444 399.743 35.1422 400.036 35.24C400.525 35.3378 401.039 35.3867 401.576 35.3867C401.674 35.5822 401.723 35.9 401.723 36.34C401.723 36.78 401.674 37.0733 401.576 37.22C399.132 36.9756 397.03 36.8533 395.27 36.8533C393.265 36.8533 391.041 36.9756 388.596 37.22C388.499 37.0733 388.45 36.78 388.45 36.34C388.45 35.9 388.499 35.5822 388.596 35.3867C389.623 35.3867 390.381 35.2889 390.87 35.0933C391.359 34.8489 391.652 34.6533 391.75 34.5067C391.994 33.92 392.116 32.4044 392.116 29.96V23.6533C392.116 23.2622 392.067 22.6756 391.97 21.8933C391.872 21.1111 391.774 20.6222 391.676 20.4267C391.334 19.7911 390.307 19.4733 388.596 19.4733C388.499 19.4244 388.45 19.18 388.45 18.74C388.499 18.2511 388.572 18.0067 388.67 18.0067C390.527 17.86 392.336 17.5178 394.096 16.98C395.856 16.3933 397.201 15.88 398.13 15.44C398.276 15.4889 398.447 15.6111 398.643 15.8067C398.839 16.0022 398.936 16.1489 398.936 16.2467ZM391.31 7.15333C391.31 6.17556 391.627 5.36889 392.263 4.73333C392.947 4.04889 393.779 3.70667 394.756 3.70667C395.734 3.70667 396.565 4.04889 397.25 4.73333C397.934 5.36889 398.276 6.17556 398.276 7.15333C398.276 8.13111 397.934 8.96222 397.25 9.64667C396.565 10.3311 395.734 10.6733 394.756 10.6733C393.779 10.6733 392.947 10.3311 392.263 9.64667C391.627 8.96222 391.31 8.13111 391.31 7.15333ZM422.279 19.2533C420.959 19.1556 420.127 19.0822 419.785 19.0333C419.443 18.9844 419.272 19.0089 419.272 19.1067C419.956 20.1333 420.299 21.2089 420.299 22.3333C420.299 23.4578 420.079 24.46 419.639 25.34C419.199 26.22 418.563 26.9778 417.732 27.6133C415.972 29.08 413.894 29.8133 411.499 29.8133C410.57 29.8133 409.739 29.74 409.005 29.5933C408.761 29.8378 408.492 30.0822 408.199 30.3267C407.954 30.5711 407.832 30.8644 407.832 31.2067C407.832 31.5 408.076 31.7689 408.565 32.0133C409.054 32.2089 409.665 32.3067 410.399 32.3067C411.181 32.3067 412.183 32.3067 413.405 32.3067C414.676 32.2578 415.801 32.2822 416.779 32.38C417.756 32.4289 418.636 32.6733 419.419 33.1133C420.25 33.5044 420.934 33.9689 421.472 34.5067C422.499 35.5333 423.012 36.6822 423.012 37.9533C423.012 39.2244 422.645 40.4711 421.912 41.6933C421.179 42.9156 420.201 43.9422 418.979 44.7733C416.339 46.6311 413.356 47.56 410.032 47.56C407.636 47.56 405.681 47.0467 404.165 46.02C402.699 44.9933 401.965 43.6489 401.965 41.9867C401.965 41.0089 402.405 40.08 403.285 39.2C404.214 38.3689 405.143 37.7333 406.072 37.2933C405.241 37.0489 404.532 36.4622 403.945 35.5333C403.407 34.5556 403.139 33.5533 403.139 32.5267C403.139 31.7444 404.483 30.5711 407.172 29.0067C405.754 28.4689 404.63 27.6622 403.799 26.5867C403.016 25.4622 402.625 24.2889 402.625 23.0667C402.625 21.8444 402.845 20.8178 403.285 19.9867C403.774 19.1067 404.41 18.3244 405.192 17.64C406.854 16.2711 408.932 15.5867 411.425 15.5867C413.625 15.5867 415.336 15.9778 416.559 16.76C416.656 16.8578 416.754 16.9067 416.852 16.9067L422.939 16.32C423.281 16.5156 423.452 16.7111 423.452 16.9067C423.452 17.0533 423.305 17.4444 423.012 18.08C422.767 18.7156 422.523 19.1067 422.279 19.2533ZM408.052 37.66C407.514 38.3444 407.245 39.0533 407.245 39.7867C407.245 41.4 407.783 42.6467 408.859 43.5267C409.934 44.4067 411.181 44.8467 412.599 44.8467C414.065 44.8467 415.165 44.7 415.899 44.4067C416.632 44.1622 417.219 43.8444 417.659 43.4533C418.392 42.8178 418.759 41.9622 418.759 40.8867C418.759 39.8111 418.245 39.0044 417.219 38.4667C416.192 37.9289 414.896 37.66 413.332 37.66H408.052ZM411.205 17.3467C409.641 17.3467 408.761 18.3733 408.565 20.4267C408.516 21.0133 408.492 21.6244 408.492 22.26C408.492 22.8467 408.541 23.5067 408.639 24.24C408.785 24.9244 408.981 25.56 409.225 26.1467C409.861 27.4178 410.765 28.0533 411.939 28.0533C413.503 28.0533 414.31 26.9778 414.359 24.8267C414.407 24.2889 414.432 23.7267 414.432 23.14C414.432 22.5533 414.383 21.9178 414.285 21.2333C414.187 20.5 414.016 19.84 413.772 19.2533C413.185 17.9822 412.33 17.3467 411.205 17.3467ZM431.954 36.8533C429.95 36.8533 427.725 36.9756 425.281 37.22C425.183 37.0733 425.134 36.78 425.134 36.34C425.134 35.9 425.183 35.5822 425.281 35.3867C426.308 35.3867 427.065 35.2889 427.554 35.0933C428.043 34.8489 428.336 34.6533 428.434 34.5067C428.679 33.92 428.801 32.4044 428.801 29.96V23.6533C428.801 23.2622 428.752 22.6756 428.654 21.8933C428.556 21.1111 428.459 20.6222 428.361 20.4267C428.019 19.7911 426.992 19.4733 425.281 19.4733C425.183 19.4244 425.134 19.18 425.134 18.74C425.183 18.2511 425.256 18.0067 425.354 18.0067C427.212 17.86 429.021 17.5178 430.781 16.98C432.541 16.3933 433.885 15.88 434.814 15.44C434.961 15.44 435.132 15.5622 435.328 15.8067C435.523 16.0022 435.596 16.1489 435.548 16.2467C435.548 16.3444 435.523 16.54 435.474 16.8333C435.474 17.0778 435.425 17.3956 435.328 17.7867C435.083 18.7644 435.034 19.2533 435.181 19.2533C435.23 19.2533 435.279 19.2289 435.328 19.18C435.376 19.1311 435.45 19.0822 435.548 19.0333C436.232 18.2511 437.063 17.5667 438.041 16.98C439.752 15.9533 441.219 15.44 442.441 15.44C443.712 15.44 444.763 15.6844 445.594 16.1733C446.474 16.6133 447.159 17.2978 447.648 18.2267C448.479 19.8889 448.894 22.7489 448.894 26.8067V29.96C448.894 32.4044 448.968 33.8222 449.114 34.2133C449.261 34.5556 449.456 34.8 449.701 34.9467C449.994 35.0444 450.312 35.1422 450.654 35.24C451.241 35.3378 451.803 35.3867 452.341 35.3867C452.488 35.5822 452.536 35.9 452.488 36.34C452.488 36.78 452.439 37.0733 452.341 37.22C450.043 36.9756 447.843 36.8533 445.741 36.8533C444.128 36.8533 442.099 36.9756 439.654 37.22C439.556 37.0733 439.508 36.78 439.508 36.34C439.508 35.9 439.556 35.5822 439.654 35.3867C439.996 35.3867 440.485 35.3378 441.121 35.24C441.756 35.0933 442.148 34.8 442.294 34.36C442.49 33.8222 442.588 32.3556 442.588 29.96V26.1467C442.588 21.6 441.512 19.3267 439.361 19.3267C438.432 19.3267 437.625 19.5467 436.941 19.9867C435.719 20.8667 435.108 21.5511 435.108 22.04V29.96C435.108 32.4044 435.181 33.8222 435.328 34.2133C435.474 34.5556 435.67 34.8 435.914 34.9467C436.159 35.0444 436.428 35.1422 436.721 35.24C437.21 35.3378 437.723 35.3867 438.261 35.3867C438.359 35.5822 438.408 35.9 438.408 36.34C438.408 36.78 438.359 37.0733 438.261 37.22C435.816 36.9756 433.714 36.8533 431.954 36.8533ZM459.073 23.36C459.171 23.36 459.489 23.36 460.026 23.36C460.613 23.3111 461.249 23.2622 461.933 23.2133C463.498 23.1644 464.622 23.0911 465.306 22.9933C465.746 22.9444 465.966 22.6756 465.966 22.1867C465.966 21.6489 465.918 21.0867 465.82 20.5C465.722 19.9133 465.551 19.4 465.306 18.96C464.769 17.8844 464.06 17.3467 463.18 17.3467C462.349 17.3467 461.689 17.5911 461.2 18.08C460.711 18.52 460.295 19.0578 459.953 19.6933C459.366 20.9644 459.073 22.1867 459.073 23.36ZM470.66 24.68C467.726 24.9244 463.864 25.12 459.073 25.2667C459.073 28.2489 459.904 30.4489 461.566 31.8667C462.838 32.8933 464.206 33.4067 465.673 33.4067C467.189 33.4067 468.362 33.1378 469.193 32.6C470.024 32.0622 470.709 31.5244 471.246 30.9867C471.638 31.0844 471.833 31.3533 471.833 31.7933C471.833 32.2333 471.735 32.6 471.54 32.8933C471.393 33.1378 471.075 33.5289 470.586 34.0667C470.098 34.5556 469.486 35.0444 468.753 35.5333C466.895 36.8044 465.111 37.44 463.4 37.44C461.689 37.44 460.222 37.22 459 36.78C457.778 36.2911 456.702 35.6067 455.773 34.7267C453.769 32.82 452.766 30.3511 452.766 27.32C452.766 24.1911 453.842 21.4533 455.993 19.1067C458.291 16.6133 460.784 15.3667 463.473 15.3667C466.358 15.3667 468.558 16.2222 470.073 17.9333C471.344 19.3022 471.98 20.8911 471.98 22.7C471.98 23.2378 471.858 23.7022 471.613 24.0933C471.369 24.4844 471.051 24.68 470.66 24.68ZM480.348 36.8533C478.343 36.8533 476.119 36.9756 473.674 37.22C473.577 37.0733 473.528 36.78 473.528 36.34C473.528 35.9 473.577 35.5822 473.674 35.3867C474.701 35.3867 475.459 35.2889 475.948 35.0933C476.437 34.8489 476.73 34.6533 476.828 34.5067C477.072 33.92 477.194 32.4044 477.194 29.96V23.6533C477.194 23.2622 477.146 22.6756 477.048 21.8933C476.95 21.1111 476.852 20.6222 476.754 20.4267C476.412 19.7911 475.386 19.4733 473.674 19.4733C473.577 19.4244 473.528 19.18 473.528 18.74C473.577 18.2511 473.65 18.0067 473.748 18.0067C475.606 17.86 477.414 17.5178 479.174 16.98C480.934 16.3933 482.279 15.88 483.208 15.44C483.354 15.4889 483.526 15.6111 483.721 15.8067C483.917 16.0022 483.99 16.1489 483.941 16.2467C483.941 16.3444 483.917 16.5644 483.868 16.9067C483.819 17.2489 483.77 17.64 483.721 18.08C483.672 18.4711 483.623 18.8622 483.574 19.2533C483.526 19.6444 483.501 19.9133 483.501 20.06C483.501 20.1578 483.55 20.2311 483.648 20.28C483.746 20.28 483.794 20.2556 483.794 20.2067C484.674 18.74 485.408 17.7133 485.994 17.1267C487.266 15.9533 488.561 15.3667 489.881 15.3667C491.348 15.3667 492.35 15.6356 492.888 16.1733C493.279 16.76 493.474 17.42 493.474 18.1533C493.474 18.8378 493.401 19.4244 493.254 19.9133C493.108 20.3533 492.888 20.7689 492.594 21.16C492.008 21.9911 491.323 22.4067 490.541 22.4067C490.101 22.4067 489.71 22.26 489.368 21.9667C489.074 21.6733 488.781 21.4044 488.488 21.16C488.243 20.9156 487.974 20.6956 487.681 20.5C487.437 20.2556 487.094 20.1333 486.654 20.1333C486.214 20.1333 485.799 20.3044 485.408 20.6467C485.017 20.94 484.674 21.3067 484.381 21.7467C483.794 22.6267 483.501 23.4089 483.501 24.0933V29.96C483.501 32.4044 483.574 33.8222 483.721 34.2133C483.868 34.5556 484.063 34.8 484.308 34.9467C484.552 35.0444 484.821 35.1422 485.114 35.24C485.603 35.3378 486.117 35.3867 486.654 35.3867C486.752 35.5822 486.801 35.9 486.801 36.34C486.801 36.78 486.752 37.0733 486.654 37.22C484.21 36.9756 482.108 36.8533 480.348 36.8533Z" fill="white"/>
<path d="M184.366 4.95334C187.201 5.19778 189.181 5.32 190.306 5.32C191.479 5.32 192.481 5.27111 193.313 5.17333C194.193 5.07555 195.121 5.00222 196.099 4.95334C196.197 5.1 196.246 5.39333 196.246 5.83333C196.246 6.27333 196.197 6.59111 196.099 6.78667C194.828 6.78667 193.899 6.90889 193.313 7.15333C192.775 7.39778 192.457 7.64222 192.359 7.88667C191.919 9.10889 191.699 11.0644 191.699 13.7533V23.14C191.699 27.7844 190.355 31.4022 187.666 33.9933C185.27 36.2911 182.19 37.44 178.426 37.44C176.373 37.44 174.441 37.0978 172.633 36.4133C170.824 35.68 169.381 34.6778 168.306 33.4067C167.279 32.0867 166.546 30.5711 166.106 28.86C165.715 27.1 165.519 24.9489 165.519 22.4067V12.14C165.519 11.1133 165.495 10.2333 165.446 9.5C165.446 8.76667 165.373 8.22889 165.226 7.88667C165.079 7.54444 164.859 7.32444 164.566 7.22667C164.321 7.12889 164.028 7.03111 163.686 6.93333C163.099 6.83556 162.537 6.78667 161.999 6.78667C161.901 6.59111 161.853 6.27333 161.853 5.83333C161.853 5.39333 161.901 5.1 161.999 4.95334C164.444 5.19778 166.741 5.32 168.893 5.32C171.044 5.32 173.341 5.19778 175.786 4.95334C175.884 5.1 175.933 5.39333 175.933 5.83333C175.933 6.27333 175.884 6.59111 175.786 6.78667C174.906 6.78667 174.173 6.88444 173.586 7.08C172.999 7.27556 172.681 7.44667 172.633 7.59333C172.388 8.27778 172.266 9.79333 172.266 12.14V21.0133C172.266 22.6756 172.315 24.1667 172.413 25.4867C172.559 26.7578 172.877 27.98 173.366 29.1533C173.904 30.3267 174.49 31.2311 175.126 31.8667C175.81 32.4533 176.495 32.8933 177.179 33.1867C178.157 33.6756 179.257 33.92 180.479 33.92C181.701 33.92 182.777 33.7 183.706 33.26C184.635 32.82 185.466 32.1111 186.199 31.1333C187.861 28.9822 188.693 25.9511 188.693 22.04V13.8267C188.693 11.0889 188.473 9.10889 188.033 7.88667C187.886 7.54444 187.446 7.3 186.713 7.15333C185.833 6.90889 185.05 6.78667 184.366 6.78667C184.268 6.59111 184.219 6.27333 184.219 5.83333C184.219 5.39333 184.268 5.1 184.366 4.95334ZM198.148 4.95334C200.592 5.19778 202.914 5.32 205.114 5.32C207.217 5.32 209.49 5.19778 211.934 4.95334C212.032 5.1 212.081 5.39333 212.081 5.83333C212.081 6.27333 212.032 6.59111 211.934 6.78667C211.005 6.78667 210.272 6.88444 209.734 7.08C209.197 7.27556 208.903 7.44667 208.854 7.59333C208.61 8.13111 208.463 8.76667 208.414 9.5C208.414 10.2333 208.414 11.1133 208.414 12.14V29.96C208.414 31.0356 208.414 31.94 208.414 32.6733C208.463 33.4067 208.561 33.9444 208.708 34.2867C208.854 34.58 209.05 34.8 209.294 34.9467C209.588 35.0444 209.881 35.1422 210.174 35.24C210.712 35.3378 211.299 35.3867 211.934 35.3867C212.032 35.5822 212.081 35.9 212.081 36.34C212.081 36.78 212.032 37.0733 211.934 37.22C207.339 36.78 202.743 36.78 198.148 37.22C198.05 37.0733 198.001 36.78 198.001 36.34C198.001 35.9 198.05 35.5822 198.148 35.3867C199.174 35.3867 199.932 35.2889 200.421 35.0933C200.91 34.8489 201.203 34.6533 201.301 34.5067C201.545 33.92 201.668 32.4044 201.668 29.96V12.14C201.668 9.79333 201.545 8.27778 201.301 7.59333C200.959 7.05556 199.908 6.78667 198.148 6.78667C198.05 6.59111 198.001 6.27333 198.001 5.83333C198.001 5.39333 198.05 5.1 198.148 4.95334ZM217.141 37.66C217.092 37.8556 216.872 38.0756 216.481 38.32C216.138 38.5644 215.674 38.6867 215.087 38.6867C214.256 38.6867 213.841 38.5644 213.841 38.32L228.141 1.21333C228.336 0.822223 228.605 0.553334 228.947 0.406667C229.289 0.26 229.729 0.186666 230.267 0.186666C230.805 0.186666 231.098 0.235555 231.147 0.333332C231.245 0.431112 231.343 0.504445 231.441 0.553333L217.141 37.66ZM255.855 4.95334C258.691 5.19778 260.671 5.32 261.795 5.32C262.968 5.32 263.971 5.27111 264.802 5.17333C265.682 5.07555 266.611 5.00222 267.588 4.95334C267.686 5.1 267.735 5.39333 267.735 5.83333C267.735 6.27333 267.686 6.59111 267.588 6.78667C266.317 6.78667 265.388 6.90889 264.802 7.15333C264.264 7.39778 263.946 7.64222 263.848 7.88667C263.408 9.10889 263.188 11.0644 263.188 13.7533V23.14C263.188 27.7844 261.844 31.4022 259.155 33.9933C256.76 36.2911 253.68 37.44 249.915 37.44C247.862 37.44 245.931 37.0978 244.122 36.4133C242.313 35.68 240.871 34.6778 239.795 33.4067C238.768 32.0867 238.035 30.5711 237.595 28.86C237.204 27.1 237.008 24.9489 237.008 22.4067V12.14C237.008 11.1133 236.984 10.2333 236.935 9.5C236.935 8.76667 236.862 8.22889 236.715 7.88667C236.568 7.54444 236.348 7.32444 236.055 7.22667C235.811 7.12889 235.517 7.03111 235.175 6.93333C234.588 6.83556 234.026 6.78667 233.488 6.78667C233.391 6.59111 233.342 6.27333 233.342 5.83333C233.342 5.39333 233.391 5.1 233.488 4.95334C235.933 5.19778 238.231 5.32 240.382 5.32C242.533 5.32 244.831 5.19778 247.275 4.95334C247.373 5.1 247.422 5.39333 247.422 5.83333C247.422 6.27333 247.373 6.59111 247.275 6.78667C246.395 6.78667 245.662 6.88444 245.075 7.08C244.488 7.27556 244.171 7.44667 244.122 7.59333C243.877 8.27778 243.755 9.79333 243.755 12.14V21.0133C243.755 22.6756 243.804 24.1667 243.902 25.4867C244.048 26.7578 244.366 27.98 244.855 29.1533C245.393 30.3267 245.98 31.2311 246.615 31.8667C247.3 32.4533 247.984 32.8933 248.668 33.1867C249.646 33.6756 250.746 33.92 251.968 33.92C253.191 33.92 254.266 33.7 255.195 33.26C256.124 32.82 256.955 32.1111 257.688 31.1333C259.351 28.9822 260.182 25.9511 260.182 22.04V13.8267C260.182 11.0889 259.962 9.10889 259.522 7.88667C259.375 7.54444 258.935 7.3 258.202 7.15333C257.322 6.90889 256.54 6.78667 255.855 6.78667C255.757 6.59111 255.708 6.27333 255.708 5.83333C255.708 5.39333 255.757 5.1 255.855 4.95334ZM269.27 6.86C269.026 6.81111 268.83 6.78667 268.684 6.78667C268.537 6.78667 268.464 6.49333 268.464 5.90667C268.464 5.32 268.537 5.00222 268.684 4.95334C273.377 5.14889 275.993 5.24667 276.53 5.24667C277.068 5.24667 279.293 5.14889 283.204 4.95334C283.253 5.1 283.277 5.44222 283.277 5.98C283.277 6.51778 283.204 6.78667 283.057 6.78667C281.444 6.78667 280.588 7.10444 280.49 7.74C280.49 8.08222 280.637 8.44889 280.93 8.84L286.284 16.98C286.87 16.1978 287.53 15.3667 288.264 14.4867C289.046 13.5578 289.779 12.6778 290.464 11.8467C291.979 9.89111 292.737 8.71778 292.737 8.32667C292.737 7.88667 292.346 7.52 291.564 7.22667C290.781 6.93333 289.975 6.78667 289.144 6.78667C288.997 6.78667 288.924 6.59111 288.924 6.2C288.924 5.46667 288.973 5.05111 289.07 4.95334C291.173 5.19778 293.299 5.32 295.45 5.32C297.65 5.32 299.606 5.19778 301.317 4.95334C301.415 5.1 301.464 5.44222 301.464 5.98C301.464 6.51778 301.39 6.78667 301.244 6.78667C301.146 6.78667 300.901 6.81111 300.51 6.86C300.168 6.86 299.728 6.93333 299.19 7.08C297.87 7.52 296.746 8.25333 295.817 9.28L287.604 19.1067C290.39 23.36 292.321 26.2933 293.397 27.9067C294.521 29.4711 295.401 30.7178 296.037 31.6467C296.673 32.5756 297.113 33.2111 297.357 33.5533C297.65 33.8467 298.041 34.14 298.53 34.4333C299.019 34.6778 299.508 34.8733 299.997 35.02C300.73 35.2644 301.439 35.3867 302.124 35.3867C302.221 35.6311 302.27 35.9489 302.27 36.34C302.27 36.6822 302.221 36.9756 302.124 37.22C300.168 37.0244 297.797 36.9267 295.01 36.9267C292.224 36.9267 289.461 37.0244 286.724 37.22C286.577 37.0733 286.528 36.7311 286.577 36.1933C286.626 35.6556 286.699 35.3867 286.797 35.3867C286.944 35.3867 287.164 35.3622 287.457 35.3133C287.75 35.2644 288.044 35.1911 288.337 35.0933C289.119 34.7511 289.51 34.4089 289.51 34.0667C289.51 33.8711 289.461 33.6756 289.364 33.48L282.91 23.8C281.59 25.4133 280.075 27.4422 278.364 29.8867C276.701 32.2822 275.87 33.6022 275.87 33.8467C275.87 34.0911 276.017 34.3111 276.31 34.5067C276.604 34.7022 276.946 34.8733 277.337 35.02C277.973 35.2644 278.828 35.3867 279.904 35.3867C280.197 35.9733 280.246 36.5844 280.05 37.22C278.388 37.0244 276.359 36.9267 273.964 36.9267C271.568 36.9267 269.393 37.0244 267.437 37.22C267.339 37.0733 267.29 36.78 267.29 36.34C267.29 35.9 267.339 35.5822 267.437 35.3867C268.806 35.3867 269.93 35.1667 270.81 34.7267C271.69 34.2378 272.326 33.7244 272.717 33.1867L281.297 21.38L274.55 11.04C274.11 10.3556 273.646 9.64667 273.157 8.91333C272.717 8.18 272.35 7.74 272.057 7.59333C271.813 7.39778 271.519 7.25111 271.177 7.15333C270.884 7.05556 270.566 6.98222 270.224 6.93333C269.881 6.88444 269.564 6.86 269.27 6.86Z" fill="url(#paint0_linear_9_10)"/>
<defs>
<linearGradient id="paint0_linear_9_10" x1="93.6333" y1="16" x2="373.822" y2="16" gradientUnits="userSpaceOnUse">
<stop stop-color="#F61A6F"/>
<stop offset="0.34" stop-color="#FF3D3C"/>
<stop offset="0.575" stop-color="#FFA723"/>
<stop offset="0.775" stop-color="#0CE6ED"/>
<stop offset="1" stop-color="#014689"/>
</linearGradient>
</defs>
</svg>
