<svg width="292" height="86" viewBox="0 0 292 86" fill="none" xmlns="http://www.w3.org/2000/svg">
<line y1="1" x2="111" y2="1" stroke="#565656"/>
<path d="M4.47 26.605C3.78 26.605 3.16 26.485 2.61 26.245C2.07 25.995 1.645 25.655 1.335 25.225C1.025 24.785 0.865 24.28 0.855 23.71H2.31C2.36 24.2 2.56 24.615 2.91 24.955C3.27 25.285 3.79 25.45 4.47 25.45C5.12 25.45 5.63 25.29 6 24.97C6.38 24.64 6.57 24.22 6.57 23.71C6.57 23.31 6.46 22.985 6.24 22.735C6.02 22.485 5.745 22.295 5.415 22.165C5.085 22.035 4.64 21.895 4.08 21.745C3.39 21.565 2.835 21.385 2.415 21.205C2.005 21.025 1.65 20.745 1.35 20.365C1.06 19.975 0.915 19.455 0.915 18.805C0.915 18.235 1.06 17.73 1.35 17.29C1.64 16.85 2.045 16.51 2.565 16.27C3.095 16.03 3.7 15.91 4.38 15.91C5.36 15.91 6.16 16.155 6.78 16.645C7.41 17.135 7.765 17.785 7.845 18.595H6.345C6.295 18.195 6.085 17.845 5.715 17.545C5.345 17.235 4.855 17.08 4.245 17.08C3.675 17.08 3.21 17.23 2.85 17.53C2.49 17.82 2.31 18.23 2.31 18.76C2.31 19.14 2.415 19.45 2.625 19.69C2.845 19.93 3.11 20.115 3.42 20.245C3.74 20.365 4.185 20.505 4.755 20.665C5.445 20.855 6 21.045 6.42 21.235C6.84 21.415 7.2 21.7 7.5 22.09C7.8 22.47 7.95 22.99 7.95 23.65C7.95 24.16 7.815 24.64 7.545 25.09C7.275 25.54 6.875 25.905 6.345 26.185C5.815 26.465 5.19 26.605 4.47 26.605ZM11.6237 19.405V24.25C11.6237 24.65 11.7087 24.935 11.8787 25.105C12.0487 25.265 12.3437 25.345 12.7637 25.345H13.7687V26.5H12.5387C11.7787 26.5 11.2087 26.325 10.8287 25.975C10.4487 25.625 10.2587 25.05 10.2587 24.25V19.405H9.19371V18.28H10.2587V16.21H11.6237V18.28H13.7687V19.405H11.6237ZM16.7876 19.615C17.0276 19.145 17.3676 18.78 17.8076 18.52C18.2576 18.26 18.8026 18.13 19.4426 18.13V19.54H19.0826C17.5526 19.54 16.7876 20.37 16.7876 22.03V26.5H15.4226V18.28H16.7876V19.615ZM20.5083 22.36C20.5083 21.52 20.6783 20.785 21.0183 20.155C21.3583 19.515 21.8233 19.02 22.4133 18.67C23.0133 18.32 23.6783 18.145 24.4083 18.145C25.1283 18.145 25.7533 18.3 26.2833 18.61C26.8133 18.92 27.2083 19.31 27.4683 19.78V18.28H28.8483V26.5H27.4683V24.97C27.1983 25.45 26.7933 25.85 26.2533 26.17C25.7233 26.48 25.1033 26.635 24.3933 26.635C23.6633 26.635 23.0033 26.455 22.4133 26.095C21.8233 25.735 21.3583 25.23 21.0183 24.58C20.6783 23.93 20.5083 23.19 20.5083 22.36ZM27.4683 22.375C27.4683 21.755 27.3433 21.215 27.0933 20.755C26.8433 20.295 26.5033 19.945 26.0733 19.705C25.6533 19.455 25.1883 19.33 24.6783 19.33C24.1683 19.33 23.7033 19.45 23.2833 19.69C22.8633 19.93 22.5283 20.28 22.2783 20.74C22.0283 21.2 21.9033 21.74 21.9033 22.36C21.9033 22.99 22.0283 23.54 22.2783 24.01C22.5283 24.47 22.8633 24.825 23.2833 25.075C23.7033 25.315 24.1683 25.435 24.6783 25.435C25.1883 25.435 25.6533 25.315 26.0733 25.075C26.5033 24.825 26.8433 24.47 27.0933 24.01C27.3433 23.54 27.4683 22.995 27.4683 22.375ZM32.82 19.405V24.25C32.82 24.65 32.905 24.935 33.075 25.105C33.245 25.265 33.54 25.345 33.96 25.345H34.965V26.5H33.735C32.975 26.5 32.405 26.325 32.025 25.975C31.645 25.625 31.455 25.05 31.455 24.25V19.405H30.39V18.28H31.455V16.21H32.82V18.28H34.965V19.405H32.82ZM44.1189 22.075C44.1189 22.335 44.1039 22.61 44.0739 22.9H37.5039C37.5539 23.71 37.8289 24.345 38.3289 24.805C38.8389 25.255 39.4539 25.48 40.1739 25.48C40.7639 25.48 41.2539 25.345 41.6439 25.075C42.0439 24.795 42.3239 24.425 42.4839 23.965H43.9539C43.7339 24.755 43.2939 25.4 42.6339 25.9C41.9739 26.39 41.1539 26.635 40.1739 26.635C39.3939 26.635 38.6939 26.46 38.0739 26.11C37.4639 25.76 36.9839 25.265 36.6339 24.625C36.2839 23.975 36.1089 23.225 36.1089 22.375C36.1089 21.525 36.2789 20.78 36.6189 20.14C36.9589 19.5 37.4339 19.01 38.0439 18.67C38.6639 18.32 39.3739 18.145 40.1739 18.145C40.9539 18.145 41.6439 18.315 42.2439 18.655C42.8439 18.995 43.3039 19.465 43.6239 20.065C43.9539 20.655 44.1189 21.325 44.1189 22.075ZM42.7089 21.79C42.7089 21.27 42.5939 20.825 42.3639 20.455C42.1339 20.075 41.8189 19.79 41.4189 19.6C41.0289 19.4 40.5939 19.3 40.1139 19.3C39.4239 19.3 38.8339 19.52 38.3439 19.96C37.8639 20.4 37.5889 21.01 37.5189 21.79H42.7089ZM49.3106 18.145C50.0206 18.145 50.6406 18.3 51.1706 18.61C51.7106 18.92 52.1106 19.31 52.3706 19.78V18.28H53.7506V26.68C53.7506 27.43 53.5906 28.095 53.2706 28.675C52.9506 29.265 52.4906 29.725 51.8906 30.055C51.3006 30.385 50.6106 30.55 49.8206 30.55C48.7406 30.55 47.8406 30.295 47.1206 29.785C46.4006 29.275 45.9756 28.58 45.8456 27.7H47.1956C47.3456 28.2 47.6556 28.6 48.1256 28.9C48.5956 29.21 49.1606 29.365 49.8206 29.365C50.5706 29.365 51.1806 29.13 51.6506 28.66C52.1306 28.19 52.3706 27.53 52.3706 26.68V24.955C52.1006 25.435 51.7006 25.835 51.1706 26.155C50.6406 26.475 50.0206 26.635 49.3106 26.635C48.5806 26.635 47.9156 26.455 47.3156 26.095C46.7256 25.735 46.2606 25.23 45.9206 24.58C45.5806 23.93 45.4106 23.19 45.4106 22.36C45.4106 21.52 45.5806 20.785 45.9206 20.155C46.2606 19.515 46.7256 19.02 47.3156 18.67C47.9156 18.32 48.5806 18.145 49.3106 18.145ZM52.3706 22.375C52.3706 21.755 52.2456 21.215 51.9956 20.755C51.7456 20.295 51.4056 19.945 50.9756 19.705C50.5556 19.455 50.0906 19.33 49.5806 19.33C49.0706 19.33 48.6056 19.45 48.1856 19.69C47.7656 19.93 47.4306 20.28 47.1806 20.74C46.9306 21.2 46.8056 21.74 46.8056 22.36C46.8056 22.99 46.9306 23.54 47.1806 24.01C47.4306 24.47 47.7656 24.825 48.1856 25.075C48.6056 25.315 49.0706 25.435 49.5806 25.435C50.0906 25.435 50.5556 25.315 50.9756 25.075C51.4056 24.825 51.7456 24.47 51.9956 24.01C52.2456 23.54 52.3706 22.995 52.3706 22.375ZM63.1373 18.28L58.1873 30.37H56.7773L58.3973 26.41L55.0823 18.28H56.5973L59.1773 24.94L61.7273 18.28H63.1373Z" fill="white"/>
<path d="M2.49 41.045V47.66C2.49 48.59 2.715 49.28 3.165 49.73C3.625 50.18 4.26 50.405 5.07 50.405C5.87 50.405 6.495 50.18 6.945 49.73C7.405 49.28 7.635 48.59 7.635 47.66V41.045H9V47.645C9 48.515 8.825 49.25 8.475 49.85C8.125 50.44 7.65 50.88 7.05 51.17C6.46 51.46 5.795 51.605 5.055 51.605C4.315 51.605 3.645 51.46 3.045 51.17C2.455 50.88 1.985 50.44 1.635 49.85C1.295 49.25 1.125 48.515 1.125 47.645V41.045H2.49ZM15.5521 46.28L18.7621 51.5H17.2171L14.7121 47.42L12.3271 51.5H10.8121L14.0071 46.28L10.7971 41.045H12.3271L14.8471 45.14L17.2471 41.045H18.7771L15.5521 46.28ZM27.9075 51.605C27.2175 51.605 26.5975 51.485 26.0475 51.245C25.5075 50.995 25.0825 50.655 24.7725 50.225C24.4625 49.785 24.3025 49.28 24.2925 48.71H25.7475C25.7975 49.2 25.9975 49.615 26.3475 49.955C26.7075 50.285 27.2275 50.45 27.9075 50.45C28.5575 50.45 29.0675 50.29 29.4375 49.97C29.8175 49.64 30.0075 49.22 30.0075 48.71C30.0075 48.31 29.8975 47.985 29.6775 47.735C29.4575 47.485 29.1825 47.295 28.8525 47.165C28.5225 47.035 28.0775 46.895 27.5175 46.745C26.8275 46.565 26.2725 46.385 25.8525 46.205C25.4425 46.025 25.0875 45.745 24.7875 45.365C24.4975 44.975 24.3525 44.455 24.3525 43.805C24.3525 43.235 24.4975 42.73 24.7875 42.29C25.0775 41.85 25.4825 41.51 26.0025 41.27C26.5325 41.03 27.1375 40.91 27.8175 40.91C28.7975 40.91 29.5975 41.155 30.2175 41.645C30.8475 42.135 31.2025 42.785 31.2825 43.595H29.7825C29.7325 43.195 29.5225 42.845 29.1525 42.545C28.7825 42.235 28.2925 42.08 27.6825 42.08C27.1125 42.08 26.6475 42.23 26.2875 42.53C25.9275 42.82 25.7475 43.23 25.7475 43.76C25.7475 44.14 25.8525 44.45 26.0625 44.69C26.2825 44.93 26.5475 45.115 26.8575 45.245C27.1775 45.365 27.6225 45.505 28.1925 45.665C28.8825 45.855 29.4375 46.045 29.8575 46.235C30.2775 46.415 30.6375 46.7 30.9375 47.09C31.2375 47.47 31.3875 47.99 31.3875 48.65C31.3875 49.16 31.2525 49.64 30.9825 50.09C30.7125 50.54 30.3125 50.905 29.7825 51.185C29.2525 51.465 28.6275 51.605 27.9075 51.605ZM35.0612 44.405V49.25C35.0612 49.65 35.1462 49.935 35.3162 50.105C35.4862 50.265 35.7812 50.345 36.2012 50.345H37.2062V51.5H35.9762C35.2162 51.5 34.6462 51.325 34.2662 50.975C33.8862 50.625 33.6962 50.05 33.6962 49.25V44.405H32.6312V43.28H33.6962V41.21H35.0612V43.28H37.2062V44.405H35.0612ZM40.2251 44.615C40.4651 44.145 40.8051 43.78 41.2451 43.52C41.6951 43.26 42.2401 43.13 42.8801 43.13V44.54H42.5201C40.9901 44.54 40.2251 45.37 40.2251 47.03V51.5H38.8601V43.28H40.2251V44.615ZM43.9458 47.36C43.9458 46.52 44.1158 45.785 44.4558 45.155C44.7958 44.515 45.2608 44.02 45.8508 43.67C46.4508 43.32 47.1158 43.145 47.8458 43.145C48.5658 43.145 49.1908 43.3 49.7208 43.61C50.2508 43.92 50.6458 44.31 50.9058 44.78V43.28H52.2858V51.5H50.9058V49.97C50.6358 50.45 50.2308 50.85 49.6908 51.17C49.1608 51.48 48.5408 51.635 47.8308 51.635C47.1008 51.635 46.4408 51.455 45.8508 51.095C45.2608 50.735 44.7958 50.23 44.4558 49.58C44.1158 48.93 43.9458 48.19 43.9458 47.36ZM50.9058 47.375C50.9058 46.755 50.7808 46.215 50.5308 45.755C50.2808 45.295 49.9408 44.945 49.5108 44.705C49.0908 44.455 48.6258 44.33 48.1158 44.33C47.6058 44.33 47.1408 44.45 46.7208 44.69C46.3008 44.93 45.9658 45.28 45.7158 45.74C45.4658 46.2 45.3408 46.74 45.3408 47.36C45.3408 47.99 45.4658 48.54 45.7158 49.01C45.9658 49.47 46.3008 49.825 46.7208 50.075C47.1408 50.315 47.6058 50.435 48.1158 50.435C48.6258 50.435 49.0908 50.315 49.5108 50.075C49.9408 49.825 50.2808 49.47 50.5308 49.01C50.7808 48.54 50.9058 47.995 50.9058 47.375ZM56.2575 44.405V49.25C56.2575 49.65 56.3425 49.935 56.5125 50.105C56.6825 50.265 56.9775 50.345 57.3975 50.345H58.4025V51.5H57.1725C56.4125 51.5 55.8425 51.325 55.4625 50.975C55.0825 50.625 54.8925 50.05 54.8925 49.25V44.405H53.8275V43.28H54.8925V41.21H56.2575V43.28H58.4025V44.405H56.2575ZM67.5564 47.075C67.5564 47.335 67.5414 47.61 67.5114 47.9H60.9414C60.9914 48.71 61.2664 49.345 61.7664 49.805C62.2764 50.255 62.8914 50.48 63.6114 50.48C64.2014 50.48 64.6914 50.345 65.0814 50.075C65.4814 49.795 65.7614 49.425 65.9214 48.965H67.3914C67.1714 49.755 66.7314 50.4 66.0714 50.9C65.4114 51.39 64.5914 51.635 63.6114 51.635C62.8314 51.635 62.1314 51.46 61.5114 51.11C60.9014 50.76 60.4214 50.265 60.0714 49.625C59.7214 48.975 59.5464 48.225 59.5464 47.375C59.5464 46.525 59.7164 45.78 60.0564 45.14C60.3964 44.5 60.8714 44.01 61.4814 43.67C62.1014 43.32 62.8114 43.145 63.6114 43.145C64.3914 43.145 65.0814 43.315 65.6814 43.655C66.2814 43.995 66.7414 44.465 67.0614 45.065C67.3914 45.655 67.5564 46.325 67.5564 47.075ZM66.1464 46.79C66.1464 46.27 66.0314 45.825 65.8014 45.455C65.5714 45.075 65.2564 44.79 64.8564 44.6C64.4664 44.4 64.0314 44.3 63.5514 44.3C62.8614 44.3 62.2714 44.52 61.7814 44.96C61.3014 45.4 61.0264 46.01 60.9564 46.79H66.1464ZM72.7481 43.145C73.4581 43.145 74.0781 43.3 74.6081 43.61C75.1481 43.92 75.5481 44.31 75.8081 44.78V43.28H77.1881V51.68C77.1881 52.43 77.0281 53.095 76.7081 53.675C76.3881 54.265 75.9281 54.725 75.3281 55.055C74.7381 55.385 74.0481 55.55 73.2581 55.55C72.1781 55.55 71.2781 55.295 70.5581 54.785C69.8381 54.275 69.4131 53.58 69.2831 52.7H70.6331C70.7831 53.2 71.0931 53.6 71.5631 53.9C72.0331 54.21 72.5981 54.365 73.2581 54.365C74.0081 54.365 74.6181 54.13 75.0881 53.66C75.5681 53.19 75.8081 52.53 75.8081 51.68V49.955C75.5381 50.435 75.1381 50.835 74.6081 51.155C74.0781 51.475 73.4581 51.635 72.7481 51.635C72.0181 51.635 71.3531 51.455 70.7531 51.095C70.1631 50.735 69.6981 50.23 69.3581 49.58C69.0181 48.93 68.8481 48.19 68.8481 47.36C68.8481 46.52 69.0181 45.785 69.3581 45.155C69.6981 44.515 70.1631 44.02 70.7531 43.67C71.3531 43.32 72.0181 43.145 72.7481 43.145ZM75.8081 47.375C75.8081 46.755 75.6831 46.215 75.4331 45.755C75.1831 45.295 74.8431 44.945 74.4131 44.705C73.9931 44.455 73.5281 44.33 73.0181 44.33C72.5081 44.33 72.0431 44.45 71.6231 44.69C71.2031 44.93 70.8681 45.28 70.6181 45.74C70.3681 46.2 70.2431 46.74 70.2431 47.36C70.2431 47.99 70.3681 48.54 70.6181 49.01C70.8681 49.47 71.2031 49.825 71.6231 50.075C72.0431 50.315 72.5081 50.435 73.0181 50.435C73.5281 50.435 73.9931 50.315 74.4131 50.075C74.8431 49.825 75.1831 49.47 75.4331 49.01C75.6831 48.54 75.8081 47.995 75.8081 47.375ZM86.5748 43.28L81.6248 55.37H80.2148L81.8348 51.41L78.5198 43.28H80.0348L82.6148 49.94L85.1648 43.28H86.5748Z" fill="#6C6C6C"/>
<line x1="181" y1="1" x2="292" y2="1" stroke="#565656"/>
<path d="M185.41 16.045C186.55 16.045 187.535 16.26 188.365 16.69C189.205 17.11 189.845 17.715 190.285 18.505C190.735 19.295 190.96 20.225 190.96 21.295C190.96 22.365 190.735 23.295 190.285 24.085C189.845 24.865 189.205 25.465 188.365 25.885C187.535 26.295 186.55 26.5 185.41 26.5H182.155V16.045H185.41ZM185.41 25.375C186.76 25.375 187.79 25.02 188.5 24.31C189.21 23.59 189.565 22.585 189.565 21.295C189.565 19.995 189.205 18.98 188.485 18.25C187.775 17.52 186.75 17.155 185.41 17.155H183.52V25.375H185.41ZM200.26 22.075C200.26 22.335 200.245 22.61 200.215 22.9H193.645C193.695 23.71 193.97 24.345 194.47 24.805C194.98 25.255 195.595 25.48 196.315 25.48C196.905 25.48 197.395 25.345 197.785 25.075C198.185 24.795 198.465 24.425 198.625 23.965H200.095C199.875 24.755 199.435 25.4 198.775 25.9C198.115 26.39 197.295 26.635 196.315 26.635C195.535 26.635 194.835 26.46 194.215 26.11C193.605 25.76 193.125 25.265 192.775 24.625C192.425 23.975 192.25 23.225 192.25 22.375C192.25 21.525 192.42 20.78 192.76 20.14C193.1 19.5 193.575 19.01 194.185 18.67C194.805 18.32 195.515 18.145 196.315 18.145C197.095 18.145 197.785 18.315 198.385 18.655C198.985 18.995 199.445 19.465 199.765 20.065C200.095 20.655 200.26 21.325 200.26 22.075ZM198.85 21.79C198.85 21.27 198.735 20.825 198.505 20.455C198.275 20.075 197.96 19.79 197.56 19.6C197.17 19.4 196.735 19.3 196.255 19.3C195.565 19.3 194.975 19.52 194.485 19.96C194.005 20.4 193.73 21.01 193.66 21.79H198.85ZM204.972 26.635C204.342 26.635 203.777 26.53 203.277 26.32C202.777 26.1 202.382 25.8 202.092 25.42C201.802 25.03 201.642 24.585 201.612 24.085H203.022C203.062 24.495 203.252 24.83 203.592 25.09C203.942 25.35 204.397 25.48 204.957 25.48C205.477 25.48 205.887 25.365 206.187 25.135C206.487 24.905 206.637 24.615 206.637 24.265C206.637 23.905 206.477 23.64 206.157 23.47C205.837 23.29 205.342 23.115 204.672 22.945C204.062 22.785 203.562 22.625 203.172 22.465C202.792 22.295 202.462 22.05 202.182 21.73C201.912 21.4 201.777 20.97 201.777 20.44C201.777 20.02 201.902 19.635 202.152 19.285C202.402 18.935 202.757 18.66 203.217 18.46C203.677 18.25 204.202 18.145 204.792 18.145C205.702 18.145 206.437 18.375 206.997 18.835C207.557 19.295 207.857 19.925 207.897 20.725H206.532C206.502 20.295 206.327 19.95 206.007 19.69C205.697 19.43 205.277 19.3 204.747 19.3C204.257 19.3 203.867 19.405 203.577 19.615C203.287 19.825 203.142 20.1 203.142 20.44C203.142 20.71 203.227 20.935 203.397 21.115C203.577 21.285 203.797 21.425 204.057 21.535C204.327 21.635 204.697 21.75 205.167 21.88C205.757 22.04 206.237 22.2 206.607 22.36C206.977 22.51 207.292 22.74 207.552 23.05C207.822 23.36 207.962 23.765 207.972 24.265C207.972 24.715 207.847 25.12 207.597 25.48C207.347 25.84 206.992 26.125 206.532 26.335C206.082 26.535 205.562 26.635 204.972 26.635ZM210.604 16.945C210.344 16.945 210.124 16.855 209.944 16.675C209.764 16.495 209.674 16.275 209.674 16.015C209.674 15.755 209.764 15.535 209.944 15.355C210.124 15.175 210.344 15.085 210.604 15.085C210.854 15.085 211.064 15.175 211.234 15.355C211.414 15.535 211.504 15.755 211.504 16.015C211.504 16.275 211.414 16.495 211.234 16.675C211.064 16.855 210.854 16.945 210.604 16.945ZM211.264 18.28V26.5H209.899V18.28H211.264ZM216.981 18.145C217.691 18.145 218.311 18.3 218.841 18.61C219.381 18.92 219.781 19.31 220.041 19.78V18.28H221.421V26.68C221.421 27.43 221.261 28.095 220.941 28.675C220.621 29.265 220.161 29.725 219.561 30.055C218.971 30.385 218.281 30.55 217.491 30.55C216.411 30.55 215.511 30.295 214.791 29.785C214.071 29.275 213.646 28.58 213.516 27.7H214.866C215.016 28.2 215.326 28.6 215.796 28.9C216.266 29.21 216.831 29.365 217.491 29.365C218.241 29.365 218.851 29.13 219.321 28.66C219.801 28.19 220.041 27.53 220.041 26.68V24.955C219.771 25.435 219.371 25.835 218.841 26.155C218.311 26.475 217.691 26.635 216.981 26.635C216.251 26.635 215.586 26.455 214.986 26.095C214.396 25.735 213.931 25.23 213.591 24.58C213.251 23.93 213.081 23.19 213.081 22.36C213.081 21.52 213.251 20.785 213.591 20.155C213.931 19.515 214.396 19.02 214.986 18.67C215.586 18.32 216.251 18.145 216.981 18.145ZM220.041 22.375C220.041 21.755 219.916 21.215 219.666 20.755C219.416 20.295 219.076 19.945 218.646 19.705C218.226 19.455 217.761 19.33 217.251 19.33C216.741 19.33 216.276 19.45 215.856 19.69C215.436 19.93 215.101 20.28 214.851 20.74C214.601 21.2 214.476 21.74 214.476 22.36C214.476 22.99 214.601 23.54 214.851 24.01C215.101 24.47 215.436 24.825 215.856 25.075C216.276 25.315 216.741 25.435 217.251 25.435C217.761 25.435 218.226 25.315 218.646 25.075C219.076 24.825 219.416 24.47 219.666 24.01C219.916 23.54 220.041 22.995 220.041 22.375ZM227.732 18.13C228.732 18.13 229.542 18.435 230.162 19.045C230.782 19.645 231.092 20.515 231.092 21.655V26.5H229.742V21.85C229.742 21.03 229.537 20.405 229.127 19.975C228.717 19.535 228.157 19.315 227.447 19.315C226.727 19.315 226.152 19.54 225.722 19.99C225.302 20.44 225.092 21.095 225.092 21.955V26.5H223.727V18.28H225.092V19.45C225.362 19.03 225.727 18.705 226.187 18.475C226.657 18.245 227.172 18.13 227.732 18.13Z" fill="white"/>
<path d="M183.49 41.045V47.66C183.49 48.59 183.715 49.28 184.165 49.73C184.625 50.18 185.26 50.405 186.07 50.405C186.87 50.405 187.495 50.18 187.945 49.73C188.405 49.28 188.635 48.59 188.635 47.66V41.045H190V47.645C190 48.515 189.825 49.25 189.475 49.85C189.125 50.44 188.65 50.88 188.05 51.17C187.46 51.46 186.795 51.605 186.055 51.605C185.315 51.605 184.645 51.46 184.045 51.17C183.455 50.88 182.985 50.44 182.635 49.85C182.295 49.25 182.125 48.515 182.125 47.645V41.045H183.49ZM193.642 41.045V51.5H192.277V41.045H193.642ZM201.068 37.37L196.958 54.05H195.608L199.703 37.37H201.068ZM204.437 41.045V47.66C204.437 48.59 204.662 49.28 205.112 49.73C205.572 50.18 206.207 50.405 207.017 50.405C207.817 50.405 208.442 50.18 208.892 49.73C209.352 49.28 209.582 48.59 209.582 47.66V41.045H210.947V47.645C210.947 48.515 210.772 49.25 210.422 49.85C210.072 50.44 209.597 50.88 208.997 51.17C208.407 51.46 207.742 51.605 207.002 51.605C206.262 51.605 205.592 51.46 204.992 51.17C204.402 50.88 203.932 50.44 203.582 49.85C203.242 49.25 203.072 48.515 203.072 47.645V41.045H204.437ZM217.499 46.28L220.709 51.5H219.164L216.659 47.42L214.274 51.5H212.759L215.954 46.28L212.744 41.045H214.274L216.794 45.14L219.194 41.045H220.724L217.499 46.28ZM229.795 41.045C230.935 41.045 231.92 41.26 232.75 41.69C233.59 42.11 234.23 42.715 234.67 43.505C235.12 44.295 235.345 45.225 235.345 46.295C235.345 47.365 235.12 48.295 234.67 49.085C234.23 49.865 233.59 50.465 232.75 50.885C231.92 51.295 230.935 51.5 229.795 51.5H226.54V41.045H229.795ZM229.795 50.375C231.145 50.375 232.175 50.02 232.885 49.31C233.595 48.59 233.95 47.585 233.95 46.295C233.95 44.995 233.59 43.98 232.87 43.25C232.16 42.52 231.135 42.155 229.795 42.155H227.905V50.375H229.795ZM244.645 47.075C244.645 47.335 244.63 47.61 244.6 47.9H238.03C238.08 48.71 238.355 49.345 238.855 49.805C239.365 50.255 239.98 50.48 240.7 50.48C241.29 50.48 241.78 50.345 242.17 50.075C242.57 49.795 242.85 49.425 243.01 48.965H244.48C244.26 49.755 243.82 50.4 243.16 50.9C242.5 51.39 241.68 51.635 240.7 51.635C239.92 51.635 239.22 51.46 238.6 51.11C237.99 50.76 237.51 50.265 237.16 49.625C236.81 48.975 236.635 48.225 236.635 47.375C236.635 46.525 236.805 45.78 237.145 45.14C237.485 44.5 237.96 44.01 238.57 43.67C239.19 43.32 239.9 43.145 240.7 43.145C241.48 43.145 242.17 43.315 242.77 43.655C243.37 43.995 243.83 44.465 244.15 45.065C244.48 45.655 244.645 46.325 244.645 47.075ZM243.235 46.79C243.235 46.27 243.12 45.825 242.89 45.455C242.66 45.075 242.345 44.79 241.945 44.6C241.555 44.4 241.12 44.3 240.64 44.3C239.95 44.3 239.36 44.52 238.87 44.96C238.39 45.4 238.115 46.01 238.045 46.79H243.235ZM249.357 51.635C248.727 51.635 248.162 51.53 247.662 51.32C247.162 51.1 246.767 50.8 246.477 50.42C246.187 50.03 246.027 49.585 245.997 49.085H247.407C247.447 49.495 247.637 49.83 247.977 50.09C248.327 50.35 248.782 50.48 249.342 50.48C249.862 50.48 250.272 50.365 250.572 50.135C250.872 49.905 251.022 49.615 251.022 49.265C251.022 48.905 250.862 48.64 250.542 48.47C250.222 48.29 249.727 48.115 249.057 47.945C248.447 47.785 247.947 47.625 247.557 47.465C247.177 47.295 246.847 47.05 246.567 46.73C246.297 46.4 246.162 45.97 246.162 45.44C246.162 45.02 246.287 44.635 246.537 44.285C246.787 43.935 247.142 43.66 247.602 43.46C248.062 43.25 248.587 43.145 249.177 43.145C250.087 43.145 250.822 43.375 251.382 43.835C251.942 44.295 252.242 44.925 252.282 45.725H250.917C250.887 45.295 250.712 44.95 250.392 44.69C250.082 44.43 249.662 44.3 249.132 44.3C248.642 44.3 248.252 44.405 247.962 44.615C247.672 44.825 247.527 45.1 247.527 45.44C247.527 45.71 247.612 45.935 247.782 46.115C247.962 46.285 248.182 46.425 248.442 46.535C248.712 46.635 249.082 46.75 249.552 46.88C250.142 47.04 250.622 47.2 250.992 47.36C251.362 47.51 251.677 47.74 251.937 48.05C252.207 48.36 252.347 48.765 252.357 49.265C252.357 49.715 252.232 50.12 251.982 50.48C251.732 50.84 251.377 51.125 250.917 51.335C250.467 51.535 249.947 51.635 249.357 51.635ZM254.989 41.945C254.729 41.945 254.509 41.855 254.329 41.675C254.149 41.495 254.059 41.275 254.059 41.015C254.059 40.755 254.149 40.535 254.329 40.355C254.509 40.175 254.729 40.085 254.989 40.085C255.239 40.085 255.449 40.175 255.619 40.355C255.799 40.535 255.889 40.755 255.889 41.015C255.889 41.275 255.799 41.495 255.619 41.675C255.449 41.855 255.239 41.945 254.989 41.945ZM255.649 43.28V51.5H254.284V43.28H255.649ZM261.365 43.145C262.075 43.145 262.695 43.3 263.225 43.61C263.765 43.92 264.165 44.31 264.425 44.78V43.28H265.805V51.68C265.805 52.43 265.645 53.095 265.325 53.675C265.005 54.265 264.545 54.725 263.945 55.055C263.355 55.385 262.665 55.55 261.875 55.55C260.795 55.55 259.895 55.295 259.175 54.785C258.455 54.275 258.03 53.58 257.9 52.7H259.25C259.4 53.2 259.71 53.6 260.18 53.9C260.65 54.21 261.215 54.365 261.875 54.365C262.625 54.365 263.235 54.13 263.705 53.66C264.185 53.19 264.425 52.53 264.425 51.68V49.955C264.155 50.435 263.755 50.835 263.225 51.155C262.695 51.475 262.075 51.635 261.365 51.635C260.635 51.635 259.97 51.455 259.37 51.095C258.78 50.735 258.315 50.23 257.975 49.58C257.635 48.93 257.465 48.19 257.465 47.36C257.465 46.52 257.635 45.785 257.975 45.155C258.315 44.515 258.78 44.02 259.37 43.67C259.97 43.32 260.635 43.145 261.365 43.145ZM264.425 47.375C264.425 46.755 264.3 46.215 264.05 45.755C263.8 45.295 263.46 44.945 263.03 44.705C262.61 44.455 262.145 44.33 261.635 44.33C261.125 44.33 260.66 44.45 260.24 44.69C259.82 44.93 259.485 45.28 259.235 45.74C258.985 46.2 258.86 46.74 258.86 47.36C258.86 47.99 258.985 48.54 259.235 49.01C259.485 49.47 259.82 49.825 260.24 50.075C260.66 50.315 261.125 50.435 261.635 50.435C262.145 50.435 262.61 50.315 263.03 50.075C263.46 49.825 263.8 49.47 264.05 49.01C264.3 48.54 264.425 47.995 264.425 47.375ZM272.117 43.13C273.117 43.13 273.927 43.435 274.547 44.045C275.167 44.645 275.477 45.515 275.477 46.655V51.5H274.127V46.85C274.127 46.03 273.922 45.405 273.512 44.975C273.102 44.535 272.542 44.315 271.832 44.315C271.112 44.315 270.537 44.54 270.107 44.99C269.687 45.44 269.477 46.095 269.477 46.955V51.5H268.112V43.28H269.477V44.45C269.747 44.03 270.112 43.705 270.572 43.475C271.042 43.245 271.557 43.13 272.117 43.13Z" fill="#6C6C6C"/>
</svg>
