<svg width="111" height="86" viewBox="0 0 111 86" fill="none" xmlns="http://www.w3.org/2000/svg">
<line y1="1" x2="111" y2="1" stroke="#565656"/>
<path d="M4.41 16.045C5.55 16.045 6.535 16.26 7.365 16.69C8.205 17.11 8.845 17.715 9.285 18.505C9.735 19.295 9.96 20.225 9.96 21.295C9.96 22.365 9.735 23.295 9.285 24.085C8.845 24.865 8.205 25.465 7.365 25.885C6.535 26.295 5.55 26.5 4.41 26.5H1.155V16.045H4.41ZM4.41 25.375C5.76 25.375 6.79 25.02 7.5 24.31C8.21 23.59 8.565 22.585 8.565 21.295C8.565 19.995 8.205 18.98 7.485 18.25C6.775 17.52 5.75 17.155 4.41 17.155H2.52V25.375H4.41ZM19.2605 22.075C19.2605 22.335 19.2455 22.61 19.2155 22.9H12.6455C12.6955 23.71 12.9705 24.345 13.4705 24.805C13.9805 25.255 14.5955 25.48 15.3155 25.48C15.9055 25.48 16.3955 25.345 16.7855 25.075C17.1855 24.795 17.4655 24.425 17.6255 23.965H19.0955C18.8755 24.755 18.4355 25.4 17.7755 25.9C17.1155 26.39 16.2955 26.635 15.3155 26.635C14.5355 26.635 13.8355 26.46 13.2155 26.11C12.6055 25.76 12.1255 25.265 11.7755 24.625C11.4255 23.975 11.2505 23.225 11.2505 22.375C11.2505 21.525 11.4205 20.78 11.7605 20.14C12.1005 19.5 12.5755 19.01 13.1855 18.67C13.8055 18.32 14.5155 18.145 15.3155 18.145C16.0955 18.145 16.7855 18.315 17.3855 18.655C17.9855 18.995 18.4455 19.465 18.7655 20.065C19.0955 20.655 19.2605 21.325 19.2605 22.075ZM17.8505 21.79C17.8505 21.27 17.7355 20.825 17.5055 20.455C17.2755 20.075 16.9605 19.79 16.5605 19.6C16.1705 19.4 15.7355 19.3 15.2555 19.3C14.5655 19.3 13.9755 19.52 13.4855 19.96C13.0055 20.4 12.7305 21.01 12.6605 21.79H17.8505ZM23.9722 26.635C23.3422 26.635 22.7772 26.53 22.2772 26.32C21.7772 26.1 21.3822 25.8 21.0922 25.42C20.8022 25.03 20.6422 24.585 20.6122 24.085H22.0222C22.0622 24.495 22.2522 24.83 22.5922 25.09C22.9422 25.35 23.3972 25.48 23.9572 25.48C24.4772 25.48 24.8872 25.365 25.1872 25.135C25.4872 24.905 25.6372 24.615 25.6372 24.265C25.6372 23.905 25.4772 23.64 25.1572 23.47C24.8372 23.29 24.3422 23.115 23.6722 22.945C23.0622 22.785 22.5622 22.625 22.1722 22.465C21.7922 22.295 21.4622 22.05 21.1822 21.73C20.9122 21.4 20.7772 20.97 20.7772 20.44C20.7772 20.02 20.9022 19.635 21.1522 19.285C21.4022 18.935 21.7572 18.66 22.2172 18.46C22.6772 18.25 23.2022 18.145 23.7922 18.145C24.7022 18.145 25.4372 18.375 25.9972 18.835C26.5572 19.295 26.8572 19.925 26.8972 20.725H25.5322C25.5022 20.295 25.3272 19.95 25.0072 19.69C24.6972 19.43 24.2772 19.3 23.7472 19.3C23.2572 19.3 22.8672 19.405 22.5772 19.615C22.2872 19.825 22.1422 20.1 22.1422 20.44C22.1422 20.71 22.2272 20.935 22.3972 21.115C22.5772 21.285 22.7972 21.425 23.0572 21.535C23.3272 21.635 23.6972 21.75 24.1672 21.88C24.7572 22.04 25.2372 22.2 25.6072 22.36C25.9772 22.51 26.2922 22.74 26.5522 23.05C26.8222 23.36 26.9622 23.765 26.9722 24.265C26.9722 24.715 26.8472 25.12 26.5972 25.48C26.3472 25.84 25.9922 26.125 25.5322 26.335C25.0822 26.535 24.5622 26.635 23.9722 26.635ZM29.6041 16.945C29.3441 16.945 29.1241 16.855 28.9441 16.675C28.7641 16.495 28.6741 16.275 28.6741 16.015C28.6741 15.755 28.7641 15.535 28.9441 15.355C29.1241 15.175 29.3441 15.085 29.6041 15.085C29.8541 15.085 30.0641 15.175 30.2341 15.355C30.4141 15.535 30.5041 15.755 30.5041 16.015C30.5041 16.275 30.4141 16.495 30.2341 16.675C30.0641 16.855 29.8541 16.945 29.6041 16.945ZM30.2641 18.28V26.5H28.8991V18.28H30.2641ZM35.9805 18.145C36.6905 18.145 37.3105 18.3 37.8405 18.61C38.3805 18.92 38.7805 19.31 39.0405 19.78V18.28H40.4205V26.68C40.4205 27.43 40.2605 28.095 39.9405 28.675C39.6205 29.265 39.1605 29.725 38.5605 30.055C37.9705 30.385 37.2805 30.55 36.4905 30.55C35.4105 30.55 34.5105 30.295 33.7905 29.785C33.0705 29.275 32.6455 28.58 32.5155 27.7H33.8655C34.0155 28.2 34.3255 28.6 34.7955 28.9C35.2655 29.21 35.8305 29.365 36.4905 29.365C37.2405 29.365 37.8505 29.13 38.3205 28.66C38.8005 28.19 39.0405 27.53 39.0405 26.68V24.955C38.7705 25.435 38.3705 25.835 37.8405 26.155C37.3105 26.475 36.6905 26.635 35.9805 26.635C35.2505 26.635 34.5855 26.455 33.9855 26.095C33.3955 25.735 32.9305 25.23 32.5905 24.58C32.2505 23.93 32.0805 23.19 32.0805 22.36C32.0805 21.52 32.2505 20.785 32.5905 20.155C32.9305 19.515 33.3955 19.02 33.9855 18.67C34.5855 18.32 35.2505 18.145 35.9805 18.145ZM39.0405 22.375C39.0405 21.755 38.9155 21.215 38.6655 20.755C38.4155 20.295 38.0755 19.945 37.6455 19.705C37.2255 19.455 36.7605 19.33 36.2505 19.33C35.7405 19.33 35.2755 19.45 34.8555 19.69C34.4355 19.93 34.1005 20.28 33.8505 20.74C33.6005 21.2 33.4755 21.74 33.4755 22.36C33.4755 22.99 33.6005 23.54 33.8505 24.01C34.1005 24.47 34.4355 24.825 34.8555 25.075C35.2755 25.315 35.7405 25.435 36.2505 25.435C36.7605 25.435 37.2255 25.315 37.6455 25.075C38.0755 24.825 38.4155 24.47 38.6655 24.01C38.9155 23.54 39.0405 22.995 39.0405 22.375ZM46.7323 18.13C47.7323 18.13 48.5423 18.435 49.1623 19.045C49.7823 19.645 50.0923 20.515 50.0923 21.655V26.5H48.7423V21.85C48.7423 21.03 48.5373 20.405 48.1273 19.975C47.7173 19.535 47.1573 19.315 46.4473 19.315C45.7273 19.315 45.1523 19.54 44.7223 19.99C44.3023 20.44 44.0923 21.095 44.0923 21.955V26.5H42.7273V18.28H44.0923V19.45C44.3623 19.03 44.7273 18.705 45.1873 18.475C45.6573 18.245 46.1723 18.13 46.7323 18.13Z" fill="white"/>
<path d="M2.49 41.045V47.66C2.49 48.59 2.715 49.28 3.165 49.73C3.625 50.18 4.26 50.405 5.07 50.405C5.87 50.405 6.495 50.18 6.945 49.73C7.405 49.28 7.635 48.59 7.635 47.66V41.045H9V47.645C9 48.515 8.825 49.25 8.475 49.85C8.125 50.44 7.65 50.88 7.05 51.17C6.46 51.46 5.795 51.605 5.055 51.605C4.315 51.605 3.645 51.46 3.045 51.17C2.455 50.88 1.985 50.44 1.635 49.85C1.295 49.25 1.125 48.515 1.125 47.645V41.045H2.49ZM12.6421 41.045V51.5H11.2771V41.045H12.6421ZM20.0685 37.37L15.9585 54.05H14.6085L18.7035 37.37H20.0685ZM23.4373 41.045V47.66C23.4373 48.59 23.6623 49.28 24.1123 49.73C24.5723 50.18 25.2073 50.405 26.0173 50.405C26.8173 50.405 27.4423 50.18 27.8923 49.73C28.3523 49.28 28.5823 48.59 28.5823 47.66V41.045H29.9473V47.645C29.9473 48.515 29.7723 49.25 29.4223 49.85C29.0723 50.44 28.5973 50.88 27.9973 51.17C27.4073 51.46 26.7423 51.605 26.0023 51.605C25.2623 51.605 24.5923 51.46 23.9923 51.17C23.4023 50.88 22.9323 50.44 22.5823 49.85C22.2423 49.25 22.0723 48.515 22.0723 47.645V41.045H23.4373ZM36.4993 46.28L39.7093 51.5H38.1643L35.6593 47.42L33.2743 51.5H31.7593L34.9543 46.28L31.7443 41.045H33.2743L35.7943 45.14L38.1943 41.045H39.7243L36.4993 46.28ZM48.7948 41.045C49.9348 41.045 50.9198 41.26 51.7498 41.69C52.5898 42.11 53.2298 42.715 53.6698 43.505C54.1198 44.295 54.3448 45.225 54.3448 46.295C54.3448 47.365 54.1198 48.295 53.6698 49.085C53.2298 49.865 52.5898 50.465 51.7498 50.885C50.9198 51.295 49.9348 51.5 48.7948 51.5H45.5398V41.045H48.7948ZM48.7948 50.375C50.1448 50.375 51.1748 50.02 51.8848 49.31C52.5948 48.59 52.9498 47.585 52.9498 46.295C52.9498 44.995 52.5898 43.98 51.8698 43.25C51.1598 42.52 50.1348 42.155 48.7948 42.155H46.9048V50.375H48.7948ZM63.6452 47.075C63.6452 47.335 63.6302 47.61 63.6002 47.9H57.0302C57.0802 48.71 57.3552 49.345 57.8552 49.805C58.3652 50.255 58.9802 50.48 59.7002 50.48C60.2902 50.48 60.7802 50.345 61.1702 50.075C61.5702 49.795 61.8502 49.425 62.0102 48.965H63.4802C63.2602 49.755 62.8202 50.4 62.1602 50.9C61.5002 51.39 60.6802 51.635 59.7002 51.635C58.9202 51.635 58.2202 51.46 57.6002 51.11C56.9902 50.76 56.5102 50.265 56.1602 49.625C55.8102 48.975 55.6352 48.225 55.6352 47.375C55.6352 46.525 55.8052 45.78 56.1452 45.14C56.4852 44.5 56.9602 44.01 57.5702 43.67C58.1902 43.32 58.9002 43.145 59.7002 43.145C60.4802 43.145 61.1702 43.315 61.7702 43.655C62.3702 43.995 62.8302 44.465 63.1502 45.065C63.4802 45.655 63.6452 46.325 63.6452 47.075ZM62.2352 46.79C62.2352 46.27 62.1202 45.825 61.8902 45.455C61.6602 45.075 61.3452 44.79 60.9452 44.6C60.5552 44.4 60.1202 44.3 59.6402 44.3C58.9502 44.3 58.3602 44.52 57.8702 44.96C57.3902 45.4 57.1152 46.01 57.0452 46.79H62.2352ZM68.357 51.635C67.727 51.635 67.162 51.53 66.662 51.32C66.162 51.1 65.767 50.8 65.477 50.42C65.187 50.03 65.027 49.585 64.997 49.085H66.407C66.447 49.495 66.637 49.83 66.977 50.09C67.327 50.35 67.782 50.48 68.342 50.48C68.862 50.48 69.272 50.365 69.572 50.135C69.872 49.905 70.022 49.615 70.022 49.265C70.022 48.905 69.862 48.64 69.542 48.47C69.222 48.29 68.727 48.115 68.057 47.945C67.447 47.785 66.947 47.625 66.557 47.465C66.177 47.295 65.847 47.05 65.567 46.73C65.297 46.4 65.162 45.97 65.162 45.44C65.162 45.02 65.287 44.635 65.537 44.285C65.787 43.935 66.142 43.66 66.602 43.46C67.062 43.25 67.587 43.145 68.177 43.145C69.087 43.145 69.822 43.375 70.382 43.835C70.942 44.295 71.242 44.925 71.282 45.725H69.917C69.887 45.295 69.712 44.95 69.392 44.69C69.082 44.43 68.662 44.3 68.132 44.3C67.642 44.3 67.252 44.405 66.962 44.615C66.672 44.825 66.527 45.1 66.527 45.44C66.527 45.71 66.612 45.935 66.782 46.115C66.962 46.285 67.182 46.425 67.442 46.535C67.712 46.635 68.082 46.75 68.552 46.88C69.142 47.04 69.622 47.2 69.992 47.36C70.362 47.51 70.677 47.74 70.937 48.05C71.207 48.36 71.347 48.765 71.357 49.265C71.357 49.715 71.232 50.12 70.982 50.48C70.732 50.84 70.377 51.125 69.917 51.335C69.467 51.535 68.947 51.635 68.357 51.635ZM73.9889 41.945C73.7289 41.945 73.5089 41.855 73.3289 41.675C73.1489 41.495 73.0589 41.275 73.0589 41.015C73.0589 40.755 73.1489 40.535 73.3289 40.355C73.5089 40.175 73.7289 40.085 73.9889 40.085C74.2389 40.085 74.4489 40.175 74.6189 40.355C74.7989 40.535 74.8889 40.755 74.8889 41.015C74.8889 41.275 74.7989 41.495 74.6189 41.675C74.4489 41.855 74.2389 41.945 73.9889 41.945ZM74.6489 43.28V51.5H73.2839V43.28H74.6489ZM80.3653 43.145C81.0753 43.145 81.6953 43.3 82.2253 43.61C82.7653 43.92 83.1653 44.31 83.4253 44.78V43.28H84.8053V51.68C84.8053 52.43 84.6453 53.095 84.3253 53.675C84.0053 54.265 83.5453 54.725 82.9453 55.055C82.3553 55.385 81.6653 55.55 80.8753 55.55C79.7953 55.55 78.8953 55.295 78.1753 54.785C77.4553 54.275 77.0303 53.58 76.9003 52.7H78.2503C78.4003 53.2 78.7103 53.6 79.1803 53.9C79.6503 54.21 80.2153 54.365 80.8753 54.365C81.6253 54.365 82.2353 54.13 82.7053 53.66C83.1853 53.19 83.4253 52.53 83.4253 51.68V49.955C83.1553 50.435 82.7553 50.835 82.2253 51.155C81.6953 51.475 81.0753 51.635 80.3653 51.635C79.6353 51.635 78.9703 51.455 78.3703 51.095C77.7803 50.735 77.3153 50.23 76.9753 49.58C76.6353 48.93 76.4653 48.19 76.4653 47.36C76.4653 46.52 76.6353 45.785 76.9753 45.155C77.3153 44.515 77.7803 44.02 78.3703 43.67C78.9703 43.32 79.6353 43.145 80.3653 43.145ZM83.4253 47.375C83.4253 46.755 83.3003 46.215 83.0503 45.755C82.8003 45.295 82.4603 44.945 82.0303 44.705C81.6103 44.455 81.1453 44.33 80.6353 44.33C80.1253 44.33 79.6603 44.45 79.2403 44.69C78.8203 44.93 78.4853 45.28 78.2353 45.74C77.9853 46.2 77.8603 46.74 77.8603 47.36C77.8603 47.99 77.9853 48.54 78.2353 49.01C78.4853 49.47 78.8203 49.825 79.2403 50.075C79.6603 50.315 80.1253 50.435 80.6353 50.435C81.1453 50.435 81.6103 50.315 82.0303 50.075C82.4603 49.825 82.8003 49.47 83.0503 49.01C83.3003 48.54 83.4253 47.995 83.4253 47.375ZM91.117 43.13C92.117 43.13 92.927 43.435 93.547 44.045C94.167 44.645 94.477 45.515 94.477 46.655V51.5H93.127V46.85C93.127 46.03 92.922 45.405 92.512 44.975C92.102 44.535 91.542 44.315 90.832 44.315C90.112 44.315 89.537 44.54 89.107 44.99C88.687 45.44 88.477 46.095 88.477 46.955V51.5H87.112V43.28H88.477V44.45C88.747 44.03 89.112 43.705 89.572 43.475C90.042 43.245 90.557 43.13 91.117 43.13ZM14.295 64.045L11.265 74.5H9.735L7.305 66.085L4.785 74.5L3.27 74.515L0.345 64.045H1.8L4.08 72.91L6.6 64.045H8.13L10.53 72.88L12.825 64.045H14.295ZM23.2888 70.075C23.2888 70.335 23.2738 70.61 23.2438 70.9H16.6738C16.7238 71.71 16.9988 72.345 17.4988 72.805C18.0088 73.255 18.6238 73.48 19.3438 73.48C19.9338 73.48 20.4238 73.345 20.8138 73.075C21.2138 72.795 21.4938 72.425 21.6538 71.965H23.1238C22.9038 72.755 22.4638 73.4 21.8038 73.9C21.1438 74.39 20.3238 74.635 19.3438 74.635C18.5638 74.635 17.8638 74.46 17.2438 74.11C16.6338 73.76 16.1538 73.265 15.8038 72.625C15.4538 71.975 15.2788 71.225 15.2788 70.375C15.2788 69.525 15.4488 68.78 15.7888 68.14C16.1288 67.5 16.6038 67.01 17.2138 66.67C17.8338 66.32 18.5438 66.145 19.3438 66.145C20.1238 66.145 20.8138 66.315 21.4138 66.655C22.0138 66.995 22.4738 67.465 22.7938 68.065C23.1238 68.655 23.2888 69.325 23.2888 70.075ZM21.8788 69.79C21.8788 69.27 21.7638 68.825 21.5338 68.455C21.3038 68.075 20.9888 67.79 20.5888 67.6C20.1988 67.4 19.7638 67.3 19.2838 67.3C18.5938 67.3 18.0038 67.52 17.5138 67.96C17.0338 68.4 16.7588 69.01 16.6888 69.79H21.8788ZM26.4555 67.81C26.7355 67.32 27.1455 66.92 27.6855 66.61C28.2255 66.3 28.8405 66.145 29.5305 66.145C30.2705 66.145 30.9355 66.32 31.5255 66.67C32.1155 67.02 32.5805 67.515 32.9205 68.155C33.2605 68.785 33.4305 69.52 33.4305 70.36C33.4305 71.19 33.2605 71.93 32.9205 72.58C32.5805 73.23 32.1105 73.735 31.5105 74.095C30.9205 74.455 30.2605 74.635 29.5305 74.635C28.8205 74.635 28.1955 74.48 27.6555 74.17C27.1255 73.86 26.7255 73.465 26.4555 72.985V74.5H25.0905V63.4H26.4555V67.81ZM32.0355 70.36C32.0355 69.74 31.9105 69.2 31.6605 68.74C31.4105 68.28 31.0705 67.93 30.6405 67.69C30.2205 67.45 29.7555 67.33 29.2455 67.33C28.7455 67.33 28.2805 67.455 27.8505 67.705C27.4305 67.945 27.0905 68.3 26.8305 68.77C26.5805 69.23 26.4555 69.765 26.4555 70.375C26.4555 70.995 26.5805 71.54 26.8305 72.01C27.0905 72.47 27.4305 72.825 27.8505 73.075C28.2805 73.315 28.7455 73.435 29.2455 73.435C29.7555 73.435 30.2205 73.315 30.6405 73.075C31.0705 72.825 31.4105 72.47 31.6605 72.01C31.9105 71.54 32.0355 70.99 32.0355 70.36ZM42.4813 64.045C43.6213 64.045 44.6063 64.26 45.4363 64.69C46.2763 65.11 46.9163 65.715 47.3563 66.505C47.8063 67.295 48.0313 68.225 48.0313 69.295C48.0313 70.365 47.8063 71.295 47.3563 72.085C46.9163 72.865 46.2763 73.465 45.4363 73.885C44.6063 74.295 43.6213 74.5 42.4813 74.5H39.2263V64.045H42.4813ZM42.4813 73.375C43.8313 73.375 44.8613 73.02 45.5713 72.31C46.2813 71.59 46.6363 70.585 46.6363 69.295C46.6363 67.995 46.2763 66.98 45.5563 66.25C44.8463 65.52 43.8213 65.155 42.4813 65.155H40.5913V73.375H42.4813ZM57.3318 70.075C57.3318 70.335 57.3168 70.61 57.2868 70.9H50.7168C50.7668 71.71 51.0418 72.345 51.5418 72.805C52.0518 73.255 52.6668 73.48 53.3868 73.48C53.9768 73.48 54.4668 73.345 54.8568 73.075C55.2568 72.795 55.5368 72.425 55.6968 71.965H57.1668C56.9468 72.755 56.5068 73.4 55.8468 73.9C55.1868 74.39 54.3668 74.635 53.3868 74.635C52.6068 74.635 51.9068 74.46 51.2868 74.11C50.6768 73.76 50.1968 73.265 49.8468 72.625C49.4968 71.975 49.3218 71.225 49.3218 70.375C49.3218 69.525 49.4918 68.78 49.8318 68.14C50.1718 67.5 50.6468 67.01 51.2568 66.67C51.8768 66.32 52.5868 66.145 53.3868 66.145C54.1668 66.145 54.8568 66.315 55.4568 66.655C56.0568 66.995 56.5168 67.465 56.8368 68.065C57.1668 68.655 57.3318 69.325 57.3318 70.075ZM55.9218 69.79C55.9218 69.27 55.8068 68.825 55.5768 68.455C55.3468 68.075 55.0318 67.79 54.6318 67.6C54.2418 67.4 53.8068 67.3 53.3268 67.3C52.6368 67.3 52.0468 67.52 51.5568 67.96C51.0768 68.4 50.8018 69.01 50.7318 69.79H55.9218ZM62.0435 74.635C61.4135 74.635 60.8485 74.53 60.3485 74.32C59.8485 74.1 59.4535 73.8 59.1635 73.42C58.8735 73.03 58.7135 72.585 58.6835 72.085H60.0935C60.1335 72.495 60.3235 72.83 60.6635 73.09C61.0135 73.35 61.4685 73.48 62.0285 73.48C62.5485 73.48 62.9585 73.365 63.2585 73.135C63.5585 72.905 63.7085 72.615 63.7085 72.265C63.7085 71.905 63.5485 71.64 63.2285 71.47C62.9085 71.29 62.4135 71.115 61.7435 70.945C61.1335 70.785 60.6335 70.625 60.2435 70.465C59.8635 70.295 59.5335 70.05 59.2535 69.73C58.9835 69.4 58.8485 68.97 58.8485 68.44C58.8485 68.02 58.9735 67.635 59.2235 67.285C59.4735 66.935 59.8285 66.66 60.2885 66.46C60.7485 66.25 61.2735 66.145 61.8635 66.145C62.7735 66.145 63.5085 66.375 64.0685 66.835C64.6285 67.295 64.9285 67.925 64.9685 68.725H63.6035C63.5735 68.295 63.3985 67.95 63.0785 67.69C62.7685 67.43 62.3485 67.3 61.8185 67.3C61.3285 67.3 60.9385 67.405 60.6485 67.615C60.3585 67.825 60.2135 68.1 60.2135 68.44C60.2135 68.71 60.2985 68.935 60.4685 69.115C60.6485 69.285 60.8685 69.425 61.1285 69.535C61.3985 69.635 61.7685 69.75 62.2385 69.88C62.8285 70.04 63.3085 70.2 63.6785 70.36C64.0485 70.51 64.3635 70.74 64.6235 71.05C64.8935 71.36 65.0335 71.765 65.0435 72.265C65.0435 72.715 64.9185 73.12 64.6685 73.48C64.4185 73.84 64.0635 74.125 63.6035 74.335C63.1535 74.535 62.6335 74.635 62.0435 74.635ZM67.6754 64.945C67.4154 64.945 67.1954 64.855 67.0154 64.675C66.8354 64.495 66.7454 64.275 66.7454 64.015C66.7454 63.755 66.8354 63.535 67.0154 63.355C67.1954 63.175 67.4154 63.085 67.6754 63.085C67.9254 63.085 68.1354 63.175 68.3054 63.355C68.4854 63.535 68.5754 63.755 68.5754 64.015C68.5754 64.275 68.4854 64.495 68.3054 64.675C68.1354 64.855 67.9254 64.945 67.6754 64.945ZM68.3354 66.28V74.5H66.9704V66.28H68.3354ZM74.0518 66.145C74.7618 66.145 75.3818 66.3 75.9118 66.61C76.4518 66.92 76.8518 67.31 77.1118 67.78V66.28H78.4918V74.68C78.4918 75.43 78.3318 76.095 78.0118 76.675C77.6918 77.265 77.2318 77.725 76.6318 78.055C76.0418 78.385 75.3518 78.55 74.5618 78.55C73.4818 78.55 72.5818 78.295 71.8618 77.785C71.1418 77.275 70.7168 76.58 70.5868 75.7H71.9368C72.0868 76.2 72.3968 76.6 72.8668 76.9C73.3368 77.21 73.9018 77.365 74.5618 77.365C75.3118 77.365 75.9218 77.13 76.3918 76.66C76.8718 76.19 77.1118 75.53 77.1118 74.68V72.955C76.8418 73.435 76.4418 73.835 75.9118 74.155C75.3818 74.475 74.7618 74.635 74.0518 74.635C73.3218 74.635 72.6568 74.455 72.0568 74.095C71.4668 73.735 71.0018 73.23 70.6618 72.58C70.3218 71.93 70.1518 71.19 70.1518 70.36C70.1518 69.52 70.3218 68.785 70.6618 68.155C71.0018 67.515 71.4668 67.02 72.0568 66.67C72.6568 66.32 73.3218 66.145 74.0518 66.145ZM77.1118 70.375C77.1118 69.755 76.9868 69.215 76.7368 68.755C76.4868 68.295 76.1468 67.945 75.7168 67.705C75.2968 67.455 74.8318 67.33 74.3218 67.33C73.8118 67.33 73.3468 67.45 72.9268 67.69C72.5068 67.93 72.1718 68.28 71.9218 68.74C71.6718 69.2 71.5468 69.74 71.5468 70.36C71.5468 70.99 71.6718 71.54 71.9218 72.01C72.1718 72.47 72.5068 72.825 72.9268 73.075C73.3468 73.315 73.8118 73.435 74.3218 73.435C74.8318 73.435 75.2968 73.315 75.7168 73.075C76.1468 72.825 76.4868 72.47 76.7368 72.01C76.9868 71.54 77.1118 70.995 77.1118 70.375ZM84.8036 66.13C85.8036 66.13 86.6136 66.435 87.2336 67.045C87.8536 67.645 88.1636 68.515 88.1636 69.655V74.5H86.8136V69.85C86.8136 69.03 86.6086 68.405 86.1986 67.975C85.7886 67.535 85.2286 67.315 84.5186 67.315C83.7986 67.315 83.2236 67.54 82.7936 67.99C82.3736 68.44 82.1636 69.095 82.1636 69.955V74.5H80.7986V66.28H82.1636V67.45C82.4336 67.03 82.7986 66.705 83.2586 66.475C83.7286 66.245 84.2436 66.13 84.8036 66.13Z" fill="#6C6C6C"/>
</svg>
