<svg width="64" height="16" viewBox="0 0 64 16" fill="none" xmlns="http://www.w3.org/2000/svg">
<path d="M4.47 11.605C3.78 11.605 3.16 11.485 2.61 11.245C2.07 10.995 1.645 10.655 1.335 10.225C1.025 9.785 0.865 9.28 0.855 8.71H2.31C2.36 9.2 2.56 9.615 2.91 9.955C3.27 10.285 3.79 10.45 4.47 10.45C5.12 10.45 5.63 10.29 6 9.97C6.38 9.64 6.57 9.22 6.57 8.71C6.57 8.31 6.46 7.985 6.24 7.735C6.02 7.485 5.745 7.295 5.415 7.165C5.085 7.035 4.64 6.895 4.08 6.745C3.39 6.565 2.835 6.385 2.415 6.205C2.005 6.025 1.65 5.745 1.35 5.365C1.06 4.975 0.915 4.455 0.915 3.805C0.915 3.235 1.06 2.73 1.35 2.29C1.64 1.85 2.045 1.51 2.565 1.27C3.095 1.03 3.7 0.91 4.38 0.91C5.36 0.91 6.16 1.155 6.78 1.645C7.41 2.135 7.765 2.785 7.845 3.595H6.345C6.295 3.195 6.085 2.845 5.715 2.545C5.345 2.235 4.855 2.08 4.245 2.08C3.675 2.08 3.21 2.23 2.85 2.53C2.49 2.82 2.31 3.23 2.31 3.76C2.31 4.14 2.415 4.45 2.625 4.69C2.845 4.93 3.11 5.115 3.42 5.245C3.74 5.365 4.185 5.505 4.755 5.665C5.445 5.855 6 6.045 6.42 6.235C6.84 6.415 7.2 6.7 7.5 7.09C7.8 7.47 7.95 7.99 7.95 8.65C7.95 9.16 7.815 9.64 7.545 10.09C7.275 10.54 6.875 10.905 6.345 11.185C5.815 11.465 5.19 11.605 4.47 11.605ZM11.6237 4.405V9.25C11.6237 9.65 11.7087 9.935 11.8787 10.105C12.0487 10.265 12.3437 10.345 12.7637 10.345H13.7687V11.5H12.5387C11.7787 11.5 11.2087 11.325 10.8287 10.975C10.4487 10.625 10.2587 10.05 10.2587 9.25V4.405H9.19371V3.28H10.2587V1.21H11.6237V3.28H13.7687V4.405H11.6237ZM16.7876 4.615C17.0276 4.145 17.3676 3.78 17.8076 3.52C18.2576 3.26 18.8026 3.13 19.4426 3.13V4.54H19.0826C17.5526 4.54 16.7876 5.37 16.7876 7.03V11.5H15.4226V3.28H16.7876V4.615ZM20.5083 7.36C20.5083 6.52 20.6783 5.785 21.0183 5.155C21.3583 4.515 21.8233 4.02 22.4133 3.67C23.0133 3.32 23.6783 3.145 24.4083 3.145C25.1283 3.145 25.7533 3.3 26.2833 3.61C26.8133 3.92 27.2083 4.31 27.4683 4.78V3.28H28.8483V11.5H27.4683V9.97C27.1983 10.45 26.7933 10.85 26.2533 11.17C25.7233 11.48 25.1033 11.635 24.3933 11.635C23.6633 11.635 23.0033 11.455 22.4133 11.095C21.8233 10.735 21.3583 10.23 21.0183 9.58C20.6783 8.93 20.5083 8.19 20.5083 7.36ZM27.4683 7.375C27.4683 6.755 27.3433 6.215 27.0933 5.755C26.8433 5.295 26.5033 4.945 26.0733 4.705C25.6533 4.455 25.1883 4.33 24.6783 4.33C24.1683 4.33 23.7033 4.45 23.2833 4.69C22.8633 4.93 22.5283 5.28 22.2783 5.74C22.0283 6.2 21.9033 6.74 21.9033 7.36C21.9033 7.99 22.0283 8.54 22.2783 9.01C22.5283 9.47 22.8633 9.825 23.2833 10.075C23.7033 10.315 24.1683 10.435 24.6783 10.435C25.1883 10.435 25.6533 10.315 26.0733 10.075C26.5033 9.825 26.8433 9.47 27.0933 9.01C27.3433 8.54 27.4683 7.995 27.4683 7.375ZM32.82 4.405V9.25C32.82 9.65 32.905 9.935 33.075 10.105C33.245 10.265 33.54 10.345 33.96 10.345H34.965V11.5H33.735C32.975 11.5 32.405 11.325 32.025 10.975C31.645 10.625 31.455 10.05 31.455 9.25V4.405H30.39V3.28H31.455V1.21H32.82V3.28H34.965V4.405H32.82ZM44.1189 7.075C44.1189 7.335 44.1039 7.61 44.0739 7.9H37.5039C37.5539 8.71 37.8289 9.345 38.3289 9.805C38.8389 10.255 39.4539 10.48 40.1739 10.48C40.7639 10.48 41.2539 10.345 41.6439 10.075C42.0439 9.795 42.3239 9.425 42.4839 8.965H43.9539C43.7339 9.755 43.2939 10.4 42.6339 10.9C41.9739 11.39 41.1539 11.635 40.1739 11.635C39.3939 11.635 38.6939 11.46 38.0739 11.11C37.4639 10.76 36.9839 10.265 36.6339 9.625C36.2839 8.975 36.1089 8.225 36.1089 7.375C36.1089 6.525 36.2789 5.78 36.6189 5.14C36.9589 4.5 37.4339 4.01 38.0439 3.67C38.6639 3.32 39.3739 3.145 40.1739 3.145C40.9539 3.145 41.6439 3.315 42.2439 3.655C42.8439 3.995 43.3039 4.465 43.6239 5.065C43.9539 5.655 44.1189 6.325 44.1189 7.075ZM42.7089 6.79C42.7089 6.27 42.5939 5.825 42.3639 5.455C42.1339 5.075 41.8189 4.79 41.4189 4.6C41.0289 4.4 40.5939 4.3 40.1139 4.3C39.4239 4.3 38.8339 4.52 38.3439 4.96C37.8639 5.4 37.5889 6.01 37.5189 6.79H42.7089ZM49.3106 3.145C50.0206 3.145 50.6406 3.3 51.1706 3.61C51.7106 3.92 52.1106 4.31 52.3706 4.78V3.28H53.7506V11.68C53.7506 12.43 53.5906 13.095 53.2706 13.675C52.9506 14.265 52.4906 14.725 51.8906 15.055C51.3006 15.385 50.6106 15.55 49.8206 15.55C48.7406 15.55 47.8406 15.295 47.1206 14.785C46.4006 14.275 45.9756 13.58 45.8456 12.7H47.1956C47.3456 13.2 47.6556 13.6 48.1256 13.9C48.5956 14.21 49.1606 14.365 49.8206 14.365C50.5706 14.365 51.1806 14.13 51.6506 13.66C52.1306 13.19 52.3706 12.53 52.3706 11.68V9.955C52.1006 10.435 51.7006 10.835 51.1706 11.155C50.6406 11.475 50.0206 11.635 49.3106 11.635C48.5806 11.635 47.9156 11.455 47.3156 11.095C46.7256 10.735 46.2606 10.23 45.9206 9.58C45.5806 8.93 45.4106 8.19 45.4106 7.36C45.4106 6.52 45.5806 5.785 45.9206 5.155C46.2606 4.515 46.7256 4.02 47.3156 3.67C47.9156 3.32 48.5806 3.145 49.3106 3.145ZM52.3706 7.375C52.3706 6.755 52.2456 6.215 51.9956 5.755C51.7456 5.295 51.4056 4.945 50.9756 4.705C50.5556 4.455 50.0906 4.33 49.5806 4.33C49.0706 4.33 48.6056 4.45 48.1856 4.69C47.7656 4.93 47.4306 5.28 47.1806 5.74C46.9306 6.2 46.8056 6.74 46.8056 7.36C46.8056 7.99 46.9306 8.54 47.1806 9.01C47.4306 9.47 47.7656 9.825 48.1856 10.075C48.6056 10.315 49.0706 10.435 49.5806 10.435C50.0906 10.435 50.5556 10.315 50.9756 10.075C51.4056 9.825 51.7456 9.47 51.9956 9.01C52.2456 8.54 52.3706 7.995 52.3706 7.375ZM63.1373 3.28L58.1873 15.37H56.7773L58.3973 11.41L55.0823 3.28H56.5973L59.1773 9.94L61.7273 3.28H63.1373Z" fill="white"/>
</svg>
