<svg width="86" height="16" viewBox="0 0 86 16" fill="none" xmlns="http://www.w3.org/2000/svg">
<path d="M1.49 1.045V7.66C1.49 8.59 1.715 9.28 2.165 9.73C2.625 10.18 3.26 10.405 4.07 10.405C4.87 10.405 5.495 10.18 5.945 9.73C6.405 9.28 6.635 8.59 6.635 7.66V1.045H8V7.645C8 8.515 7.825 9.25 7.475 9.85C7.125 10.44 6.65 10.88 6.05 11.17C5.46 11.46 4.795 11.605 4.055 11.605C3.315 11.605 2.645 11.46 2.045 11.17C1.455 10.88 0.985 10.44 0.635 9.85C0.295 9.25 0.125 8.515 0.125 7.645V1.045H1.49ZM14.5521 6.28L17.7621 11.5H16.2171L13.7121 7.42L11.3271 11.5H9.81207L13.0071 6.28L9.79707 1.045H11.3271L13.8471 5.14L16.2471 1.045H17.7771L14.5521 6.28ZM26.9075 11.605C26.2175 11.605 25.5975 11.485 25.0475 11.245C24.5075 10.995 24.0825 10.655 23.7725 10.225C23.4625 9.785 23.3025 9.28 23.2925 8.71H24.7475C24.7975 9.2 24.9975 9.615 25.3475 9.955C25.7075 10.285 26.2275 10.45 26.9075 10.45C27.5575 10.45 28.0675 10.29 28.4375 9.97C28.8175 9.64 29.0075 9.22 29.0075 8.71C29.0075 8.31 28.8975 7.985 28.6775 7.735C28.4575 7.485 28.1825 7.295 27.8525 7.165C27.5225 7.035 27.0775 6.895 26.5175 6.745C25.8275 6.565 25.2725 6.385 24.8525 6.205C24.4425 6.025 24.0875 5.745 23.7875 5.365C23.4975 4.975 23.3525 4.455 23.3525 3.805C23.3525 3.235 23.4975 2.73 23.7875 2.29C24.0775 1.85 24.4825 1.51 25.0025 1.27C25.5325 1.03 26.1375 0.91 26.8175 0.91C27.7975 0.91 28.5975 1.155 29.2175 1.645C29.8475 2.135 30.2025 2.785 30.2825 3.595H28.7825C28.7325 3.195 28.5225 2.845 28.1525 2.545C27.7825 2.235 27.2925 2.08 26.6825 2.08C26.1125 2.08 25.6475 2.23 25.2875 2.53C24.9275 2.82 24.7475 3.23 24.7475 3.76C24.7475 4.14 24.8525 4.45 25.0625 4.69C25.2825 4.93 25.5475 5.115 25.8575 5.245C26.1775 5.365 26.6225 5.505 27.1925 5.665C27.8825 5.855 28.4375 6.045 28.8575 6.235C29.2775 6.415 29.6375 6.7 29.9375 7.09C30.2375 7.47 30.3875 7.99 30.3875 8.65C30.3875 9.16 30.2525 9.64 29.9825 10.09C29.7125 10.54 29.3125 10.905 28.7825 11.185C28.2525 11.465 27.6275 11.605 26.9075 11.605ZM34.0612 4.405V9.25C34.0612 9.65 34.1462 9.935 34.3162 10.105C34.4862 10.265 34.7812 10.345 35.2012 10.345H36.2062V11.5H34.9762C34.2162 11.5 33.6462 11.325 33.2662 10.975C32.8862 10.625 32.6962 10.05 32.6962 9.25V4.405H31.6312V3.28H32.6962V1.21H34.0612V3.28H36.2062V4.405H34.0612ZM39.2251 4.615C39.4651 4.145 39.8051 3.78 40.2451 3.52C40.6951 3.26 41.2401 3.13 41.8801 3.13V4.54H41.5201C39.9901 4.54 39.2251 5.37 39.2251 7.03V11.5H37.8601V3.28H39.2251V4.615ZM42.9458 7.36C42.9458 6.52 43.1158 5.785 43.4558 5.155C43.7958 4.515 44.2608 4.02 44.8508 3.67C45.4508 3.32 46.1158 3.145 46.8458 3.145C47.5658 3.145 48.1908 3.3 48.7208 3.61C49.2508 3.92 49.6458 4.31 49.9058 4.78V3.28H51.2858V11.5H49.9058V9.97C49.6358 10.45 49.2308 10.85 48.6908 11.17C48.1608 11.48 47.5408 11.635 46.8308 11.635C46.1008 11.635 45.4408 11.455 44.8508 11.095C44.2608 10.735 43.7958 10.23 43.4558 9.58C43.1158 8.93 42.9458 8.19 42.9458 7.36ZM49.9058 7.375C49.9058 6.755 49.7808 6.215 49.5308 5.755C49.2808 5.295 48.9408 4.945 48.5108 4.705C48.0908 4.455 47.6258 4.33 47.1158 4.33C46.6058 4.33 46.1408 4.45 45.7208 4.69C45.3008 4.93 44.9658 5.28 44.7158 5.74C44.4658 6.2 44.3408 6.74 44.3408 7.36C44.3408 7.99 44.4658 8.54 44.7158 9.01C44.9658 9.47 45.3008 9.825 45.7208 10.075C46.1408 10.315 46.6058 10.435 47.1158 10.435C47.6258 10.435 48.0908 10.315 48.5108 10.075C48.9408 9.825 49.2808 9.47 49.5308 9.01C49.7808 8.54 49.9058 7.995 49.9058 7.375ZM55.2575 4.405V9.25C55.2575 9.65 55.3425 9.935 55.5125 10.105C55.6825 10.265 55.9775 10.345 56.3975 10.345H57.4025V11.5H56.1725C55.4125 11.5 54.8425 11.325 54.4625 10.975C54.0825 10.625 53.8925 10.05 53.8925 9.25V4.405H52.8275V3.28H53.8925V1.21H55.2575V3.28H57.4025V4.405H55.2575ZM66.5564 7.075C66.5564 7.335 66.5414 7.61 66.5114 7.9H59.9414C59.9914 8.71 60.2664 9.345 60.7664 9.805C61.2764 10.255 61.8914 10.48 62.6114 10.48C63.2014 10.48 63.6914 10.345 64.0814 10.075C64.4814 9.795 64.7614 9.425 64.9214 8.965H66.3914C66.1714 9.755 65.7314 10.4 65.0714 10.9C64.4114 11.39 63.5914 11.635 62.6114 11.635C61.8314 11.635 61.1314 11.46 60.5114 11.11C59.9014 10.76 59.4214 10.265 59.0714 9.625C58.7214 8.975 58.5464 8.225 58.5464 7.375C58.5464 6.525 58.7164 5.78 59.0564 5.14C59.3964 4.5 59.8714 4.01 60.4814 3.67C61.1014 3.32 61.8114 3.145 62.6114 3.145C63.3914 3.145 64.0814 3.315 64.6814 3.655C65.2814 3.995 65.7414 4.465 66.0614 5.065C66.3914 5.655 66.5564 6.325 66.5564 7.075ZM65.1464 6.79C65.1464 6.27 65.0314 5.825 64.8014 5.455C64.5714 5.075 64.2564 4.79 63.8564 4.6C63.4664 4.4 63.0314 4.3 62.5514 4.3C61.8614 4.3 61.2714 4.52 60.7814 4.96C60.3014 5.4 60.0264 6.01 59.9564 6.79H65.1464ZM71.7481 3.145C72.4581 3.145 73.0781 3.3 73.6081 3.61C74.1481 3.92 74.5481 4.31 74.8081 4.78V3.28H76.1881V11.68C76.1881 12.43 76.0281 13.095 75.7081 13.675C75.3881 14.265 74.9281 14.725 74.3281 15.055C73.7381 15.385 73.0481 15.55 72.2581 15.55C71.1781 15.55 70.2781 15.295 69.5581 14.785C68.8381 14.275 68.4131 13.58 68.2831 12.7H69.6331C69.7831 13.2 70.0931 13.6 70.5631 13.9C71.0331 14.21 71.5981 14.365 72.2581 14.365C73.0081 14.365 73.6181 14.13 74.0881 13.66C74.5681 13.19 74.8081 12.53 74.8081 11.68V9.955C74.5381 10.435 74.1381 10.835 73.6081 11.155C73.0781 11.475 72.4581 11.635 71.7481 11.635C71.0181 11.635 70.3531 11.455 69.7531 11.095C69.1631 10.735 68.6981 10.23 68.3581 9.58C68.0181 8.93 67.8481 8.19 67.8481 7.36C67.8481 6.52 68.0181 5.785 68.3581 5.155C68.6981 4.515 69.1631 4.02 69.7531 3.67C70.3531 3.32 71.0181 3.145 71.7481 3.145ZM74.8081 7.375C74.8081 6.755 74.6831 6.215 74.4331 5.755C74.1831 5.295 73.8431 4.945 73.4131 4.705C72.9931 4.455 72.5281 4.33 72.0181 4.33C71.5081 4.33 71.0431 4.45 70.6231 4.69C70.2031 4.93 69.8681 5.28 69.6181 5.74C69.3681 6.2 69.2431 6.74 69.2431 7.36C69.2431 7.99 69.3681 8.54 69.6181 9.01C69.8681 9.47 70.2031 9.825 70.6231 10.075C71.0431 10.315 71.5081 10.435 72.0181 10.435C72.5281 10.435 72.9931 10.315 73.4131 10.075C73.8431 9.825 74.1831 9.47 74.4331 9.01C74.6831 8.54 74.8081 7.995 74.8081 7.375ZM85.5748 3.28L80.6248 15.37H79.2148L80.8348 11.41L77.5198 3.28H79.0348L81.6148 9.94L84.1648 3.28H85.5748Z" fill="#6C6C6C"/>
</svg>
