<svg width="1024" height="797" viewBox="0 0 1024 797" fill="none" xmlns="http://www.w3.org/2000/svg">
<rect x="0.5" y="177.5" width="1023" height="429" rx="4.5" stroke="#DE112F"/>
<path d="M163.061 135.381L175.023 150.762C170.466 154.993 166.072 161.504 161.84 170.293C157.771 178.919 155.574 189.824 155.248 203.008L180.395 206.182V252.08H131.566V230.352C131.566 228.398 131.648 224.329 131.811 218.145C131.973 211.797 132.136 207.565 132.299 205.449C132.462 203.171 132.706 199.346 133.031 193.975C133.357 188.604 133.845 184.697 134.496 182.256C135.147 179.814 135.961 176.396 136.938 172.002C137.914 167.607 139.135 164.108 140.6 161.504C142.227 158.9 144.018 155.889 145.971 152.471C148.087 149.053 150.528 146.042 153.295 143.438C156.225 140.671 159.48 137.985 163.061 135.381ZM91.2832 135.381L103.246 150.762C98.6888 154.993 94.2943 161.504 90.0625 170.293C85.9935 178.919 83.7962 189.743 83.4707 202.764L107.152 206.182V252.08H58.3242V230.352C58.3242 220.423 58.4056 212.855 58.5684 207.646C58.7311 202.438 59.3822 195.765 60.5215 187.627C61.6608 179.326 63.2884 172.572 65.4043 167.363C67.6829 162.155 70.9382 156.621 75.1699 150.762C79.5645 144.902 84.9355 139.775 91.2832 135.381Z" fill="#353535"/>
<path d="M858.939 661.618L846.976 646.237C851.534 642.006 855.928 635.495 860.16 626.706C864.229 618.08 866.426 607.175 866.752 593.991L841.605 590.817V544.919H890.433V566.647C890.433 568.601 890.352 572.67 890.189 578.855C890.026 585.202 889.864 589.434 889.701 591.55C889.538 593.828 889.294 597.653 888.969 603.024C888.643 608.396 888.155 612.302 887.504 614.743C886.853 617.185 886.039 620.603 885.062 624.997C884.086 629.392 882.865 632.891 881.4 635.495C879.773 638.099 877.982 641.11 876.029 644.528C873.913 647.946 871.472 650.957 868.705 653.562C865.775 656.328 862.52 659.014 858.939 661.618ZM930.717 661.618L918.754 646.237C923.311 642.006 927.705 635.495 931.937 626.706C936.006 618.08 938.204 607.256 938.529 594.235L914.847 590.817V544.919H963.676V566.647C963.676 576.576 963.594 584.144 963.431 589.353C963.269 594.561 962.618 601.234 961.478 609.372C960.339 617.673 958.711 624.427 956.595 629.636C954.317 634.844 951.062 640.378 946.83 646.237C942.435 652.097 937.064 657.224 930.717 661.618Z" fill="#353535"/>
</svg>
