<svg width="201" height="49" viewBox="0 0 201 49" fill="none" xmlns="http://www.w3.org/2000/svg">
<path d="M18.377 2.70117C20.252 2.95117 21.8353 3.07617 23.127 3.07617C23.8353 3.07617 24.4811 3.05534 25.0645 3.01367C25.6478 2.97201 26.377 2.90951 27.252 2.82617C28.002 2.74284 28.9395 2.65951 30.0645 2.57617C31.1895 2.49284 32.502 2.34701 34.002 2.13867C33.4603 2.55534 33.0436 3.03451 32.752 3.57617C32.4603 4.11784 32.2311 4.63867 32.0645 5.13867C31.8978 5.72201 31.7728 6.32617 31.6895 6.95117C31.6478 7.32617 31.627 8.09701 31.627 9.26367C31.6686 10.4303 31.6895 11.847 31.6895 13.5137C31.7311 15.1803 31.7311 17.0345 31.6895 19.0762C31.6895 21.1178 31.6478 23.2012 31.5645 25.3262C31.4811 27.4095 31.3561 29.4928 31.1895 31.5762C31.0228 33.6178 30.7728 35.5137 30.4395 37.2637C30.1478 38.972 29.752 40.472 29.252 41.7637C28.7936 43.0137 28.2311 43.8887 27.5645 44.3887C26.1895 45.4303 24.6895 46.2845 23.0645 46.9512C21.4395 47.5762 19.8353 47.9928 18.252 48.2012C16.6686 48.4095 15.1686 48.4095 13.752 48.2012C12.377 48.0345 11.2103 47.6178 10.252 46.9512C9.62695 46.4928 9.04362 45.847 8.50195 45.0137C7.96029 44.1803 7.46029 43.2637 7.00195 42.2637C6.58529 41.222 6.18945 40.1595 5.81445 39.0762C5.48112 37.9512 5.18945 36.9303 4.93945 36.0137C4.64779 35.0553 4.41862 34.222 4.25195 33.5137C4.04362 32.7637 3.89779 32.2637 3.81445 32.0137C3.64779 31.6387 3.37695 31.2637 3.00195 30.8887C2.62695 30.5137 2.23112 30.1803 1.81445 29.8887C1.39779 29.597 1.04362 29.3887 0.751953 29.2637C0.41862 29.097 0.23112 29.0553 0.189453 29.1387C0.189453 29.222 0.522786 29.2428 1.18945 29.2012C1.81445 29.1178 2.58529 29.0345 3.50195 28.9512C4.41862 28.8678 5.37695 28.8053 6.37695 28.7637C7.37695 28.6803 8.21029 28.6595 8.87695 28.7012C9.41862 28.7012 10.127 28.722 11.002 28.7637C11.752 28.8053 12.7103 28.847 13.877 28.8887C15.0436 28.8887 16.4811 28.9303 18.1895 29.0137C17.1061 29.347 16.2311 29.722 15.5645 30.1387C14.9395 30.5137 14.4603 30.8678 14.127 31.2012C13.7103 31.6178 13.4186 32.0345 13.252 32.4512C13.127 32.8262 13.0228 33.597 12.9395 34.7637C12.8978 35.8887 12.9811 37.0553 13.1895 38.2637C13.3978 39.472 13.7936 40.5762 14.377 41.5762C14.9603 42.5762 15.877 43.1387 17.127 43.2637C18.4603 43.3887 19.5436 43.1595 20.377 42.5762C21.252 41.9512 21.9395 41.1178 22.4395 40.0762C22.9395 39.0345 23.3145 37.8678 23.5645 36.5762C23.8145 35.2845 24.0228 34.0137 24.1895 32.7637C24.3145 31.9303 24.3561 30.7637 24.3145 29.2637C24.2728 27.7637 24.1686 26.1387 24.002 24.3887C23.8353 22.6387 23.627 20.8262 23.377 18.9512C23.1686 17.0762 22.9603 15.347 22.752 13.7637C22.5436 12.1803 22.3353 10.8262 22.127 9.70117C21.9603 8.57617 21.8561 7.86784 21.8145 7.57617C21.6478 7.03451 21.4186 6.47201 21.127 5.88867C20.877 5.43034 20.5228 4.90951 20.0645 4.32617C19.6478 3.74284 19.0853 3.20117 18.377 2.70117ZM58.377 0.763672C60.627 0.847005 62.8978 1.26367 65.1895 2.01367C67.5228 2.72201 69.6686 3.88867 71.627 5.51367C73.5853 7.09701 75.252 9.15951 76.627 11.7012C78.002 14.2012 78.8561 17.2637 79.1895 20.8887C79.4811 23.847 79.1061 26.7845 78.0645 29.7012C77.0645 32.5762 75.6686 35.222 73.877 37.6387C72.0853 40.0553 70.0228 42.1178 67.6895 43.8262C65.3561 45.4928 63.0228 46.597 60.6895 47.1387C59.2728 47.472 57.7103 47.5137 56.002 47.2637C54.3353 46.972 52.627 46.4512 50.877 45.7012C49.1686 44.9095 47.4811 43.9095 45.8145 42.7012C44.1895 41.4928 42.7103 40.1178 41.377 38.5762C40.0436 36.9928 38.9186 35.2845 38.002 33.4512C37.127 31.6178 36.5853 29.7012 36.377 27.7012C36.1686 26.0345 36.1478 24.2012 36.3145 22.2012C36.5228 20.1595 36.9186 18.1387 37.502 16.1387C38.127 14.097 38.9811 12.1387 40.0645 10.2637C41.1895 8.34701 42.6061 6.68034 44.3145 5.26367C46.0228 3.80534 48.0228 2.68034 50.3145 1.88867C52.6478 1.05534 55.3353 0.680339 58.377 0.763672ZM47.1895 26.0762C46.6061 30.5345 47.0228 34.1178 48.4395 36.8262C49.8978 39.5345 52.0853 41.1803 55.002 41.7637C56.4186 42.0553 57.7728 41.7637 59.0645 40.8887C60.3978 39.972 61.6061 38.6595 62.6895 36.9512C63.7728 35.2428 64.7103 33.2428 65.502 30.9512C66.2936 28.6595 66.877 26.2637 67.252 23.7637C67.627 21.2637 67.6478 19.0137 67.3145 17.0137C67.0228 14.972 66.502 13.2428 65.752 11.8262C65.002 10.3678 64.0853 9.24284 63.002 8.45117C61.9603 7.65951 60.877 7.22201 59.752 7.13867C57.7936 7.01367 56.0853 7.53451 54.627 8.70117C53.1686 9.82617 51.9395 11.3053 50.9395 13.1387C49.9395 14.972 49.127 17.0345 48.502 19.3262C47.9186 21.6178 47.4811 23.8678 47.1895 26.0762ZM81.377 3.26367C82.7936 3.47201 84.0436 3.61784 85.127 3.70117C86.252 3.78451 87.1895 3.86784 87.9395 3.95117C88.8145 4.03451 89.5645 4.07617 90.1895 4.07617H92.627C94.252 4.07617 96.9395 4.01367 100.689 3.88867C99.7728 4.18034 99.002 4.59701 98.377 5.13867C97.7936 5.68034 97.3145 6.24284 96.9395 6.82617C96.4811 7.49284 96.1478 8.18034 95.9395 8.88867C95.6895 9.76367 95.4603 10.9303 95.252 12.3887C95.0436 13.6803 94.8353 15.3678 94.627 17.4512C94.4603 19.5345 94.2936 22.1387 94.127 25.2637C95.9186 23.222 97.4811 21.4095 98.8145 19.8262C100.189 18.2428 101.377 16.847 102.377 15.6387C103.377 14.4303 104.21 13.3887 104.877 12.5137C105.585 11.6387 106.169 10.8887 106.627 10.2637C107.71 8.84701 108.335 7.88867 108.502 7.38867C108.544 7.09701 108.523 6.74284 108.439 6.32617C108.356 5.99284 108.231 5.59701 108.064 5.13867C107.898 4.63867 107.648 4.09701 107.314 3.51367C108.981 3.59701 110.398 3.65951 111.564 3.70117C112.773 3.74284 113.773 3.78451 114.564 3.82617C115.481 3.86784 116.231 3.88867 116.814 3.88867H119.439C120.398 3.88867 121.648 3.88867 123.189 3.88867C124.731 3.84701 126.669 3.80534 129.002 3.76367C127.46 4.13867 126.002 4.63867 124.627 5.26367C123.252 5.88867 122.023 6.49284 120.939 7.07617C119.689 7.78451 118.523 8.51367 117.439 9.26367C116.356 10.097 115.148 11.0762 113.814 12.2012C112.689 13.1595 111.377 14.347 109.877 15.7637C108.377 17.1387 106.752 18.7428 105.002 20.5762C106.877 24.2428 108.502 27.2637 109.877 29.6387C111.294 31.972 112.481 33.847 113.439 35.2637C114.523 36.9303 115.439 38.2012 116.189 39.0762C116.939 39.8678 117.814 40.6803 118.814 41.5137C119.648 42.222 120.689 43.0137 121.939 43.8887C123.189 44.722 124.627 45.5345 126.252 46.3262L108.439 47.2012C108.689 46.8678 108.835 46.472 108.877 46.0137C108.96 45.5137 109.002 45.0553 109.002 44.6387C109.002 44.1803 108.96 43.6803 108.877 43.1387C108.71 42.472 108.273 41.3887 107.564 39.8887C106.981 38.597 106.085 36.7845 104.877 34.4512C103.669 32.0762 102.002 28.9512 99.877 25.0762L94.5645 30.6387C94.3561 31.972 94.252 33.1803 94.252 34.2637C94.252 35.347 94.2936 36.2428 94.377 36.9512C94.502 37.8262 94.6686 38.5762 94.877 39.2012C95.127 39.8262 95.4811 40.5345 95.9395 41.3262C96.3145 42.0345 96.8145 42.8678 97.4395 43.8262C98.0645 44.7845 98.8561 45.847 99.8145 47.0137C98.8561 46.7637 97.8978 46.597 96.9395 46.5137C95.9811 46.3887 95.1061 46.3053 94.3145 46.2637C93.3978 46.222 92.5228 46.2428 91.6895 46.3262C90.8145 46.4095 89.7936 46.5345 88.627 46.7012C87.627 46.8678 86.3978 47.0762 84.9395 47.3262C83.4811 47.5762 81.8145 47.8887 79.9395 48.2637C80.8561 47.722 81.5853 47.1387 82.127 46.5137C82.6686 45.8887 83.1061 45.2845 83.4395 44.7012C83.8145 44.0345 84.0645 43.3887 84.1895 42.7637C84.2728 42.222 84.3353 41.0553 84.377 39.2637C84.4603 37.472 84.502 35.3887 84.502 33.0137C84.5436 30.597 84.5436 28.0553 84.502 25.3887C84.4603 22.722 84.4186 20.222 84.377 17.8887C84.3353 15.5553 84.2728 13.5762 84.1895 11.9512C84.1478 10.2845 84.1061 9.26367 84.0645 8.88867C83.9395 8.30534 83.7728 7.68034 83.5645 7.01367C83.3561 6.43034 83.0645 5.82617 82.6895 5.20117C82.3561 4.53451 81.9186 3.88867 81.377 3.26367ZM118.439 5.20117C121.356 5.28451 123.773 5.34701 125.689 5.38867C127.648 5.38867 129.231 5.38867 130.439 5.38867H133.752H152.377C152.46 6.22201 152.523 7.03451 152.564 7.82617C152.648 8.57617 152.689 9.24284 152.689 9.82617C152.689 10.5345 152.669 11.1803 152.627 11.7637C152.585 12.347 152.523 12.972 152.439 13.6387C152.356 14.222 152.273 14.847 152.189 15.5137C152.106 16.1803 151.96 16.8678 151.752 17.5762C151.169 15.3262 150.377 13.6178 149.377 12.4512C148.419 11.2845 147.439 10.4303 146.439 9.88867C145.273 9.26367 144.044 8.93034 142.752 8.88867C141.044 8.97201 139.71 9.11784 138.752 9.32617C137.794 9.53451 137.044 9.82617 136.502 10.2012C135.96 10.5762 135.544 11.0137 135.252 11.5137C135.002 11.972 134.731 12.4928 134.439 13.0762C134.189 13.5762 133.96 14.347 133.752 15.3887C133.544 16.2637 133.335 17.4512 133.127 18.9512C132.96 20.4512 132.773 22.3887 132.564 24.7637C133.689 24.4303 134.585 24.1178 135.252 23.8262C135.96 23.5345 136.523 23.2845 136.939 23.0762C137.398 22.8262 137.731 22.597 137.939 22.3887C138.106 22.1387 138.356 21.6803 138.689 21.0137C138.939 20.4303 139.273 19.6387 139.689 18.6387C140.148 17.6387 140.689 16.2637 141.314 14.5137C141.398 16.4303 141.439 18.0345 141.439 19.3262C141.439 20.5762 141.46 21.597 141.502 22.3887C141.502 23.3053 141.523 24.0345 141.564 24.5762V26.9512C141.564 27.8262 141.564 29.0137 141.564 30.5137C141.606 31.972 141.669 33.8262 141.752 36.0762C141.252 34.5345 140.794 33.3262 140.377 32.4512C140.002 31.5345 139.669 30.847 139.377 30.3887C139.044 29.847 138.752 29.472 138.502 29.2637C138.21 29.1803 137.814 29.097 137.314 29.0137C136.856 28.972 136.273 28.9512 135.564 28.9512C134.898 28.9512 134.044 29.0553 133.002 29.2637C132.877 31.5553 132.856 33.4095 132.939 34.8262C133.064 36.2012 133.231 37.2637 133.439 38.0137C133.648 38.8887 133.898 39.5137 134.189 39.8887C134.564 40.2637 135.314 40.5762 136.439 40.8262C137.564 41.0345 138.835 41.1178 140.252 41.0762C141.71 40.9928 143.189 40.7428 144.689 40.3262C146.189 39.9095 147.523 39.222 148.689 38.2637C149.564 37.472 150.502 36.472 151.502 35.2637C152.335 34.222 153.252 32.9095 154.252 31.3262C155.294 29.7428 156.314 27.8262 157.314 25.5762C157.148 27.4512 157.023 29.0137 156.939 30.2637C156.898 31.472 156.835 32.4512 156.752 33.2012C156.669 34.0762 156.606 34.7428 156.564 35.2012C156.564 35.7012 156.502 36.4095 156.377 37.3262C156.294 38.1178 156.148 39.2012 155.939 40.5762C155.773 41.9095 155.544 43.6178 155.252 45.7012C153.294 45.7428 151.439 45.7845 149.689 45.8262C147.939 45.8262 146.398 45.847 145.064 45.8887C143.481 45.9303 142.023 45.972 140.689 46.0137C139.314 46.0137 137.794 46.0762 136.127 46.2012C134.669 46.2845 132.939 46.4095 130.939 46.5762C128.981 46.7428 126.814 46.972 124.439 47.2637C124.648 44.4303 124.794 41.7637 124.877 39.2637C125.002 36.722 125.085 34.4928 125.127 32.5762C125.169 30.3262 125.169 28.2428 125.127 26.3262C125.335 21.5345 125.252 17.6595 124.877 14.7012C124.502 11.7428 124.064 9.84701 123.564 9.01367C123.314 8.72201 122.96 8.36784 122.502 7.95117C122.127 7.61784 121.606 7.22201 120.939 6.76367C120.273 6.30534 119.439 5.78451 118.439 5.20117ZM157.002 2.26367C158.335 2.47201 159.544 2.65951 160.627 2.82617C161.71 2.95117 162.648 3.05534 163.439 3.13867C164.356 3.26367 165.169 3.36784 165.877 3.45117C166.752 3.57617 168.064 3.43034 169.814 3.01367C171.564 2.55534 173.481 2.13867 175.564 1.76367C177.689 1.34701 179.856 1.11784 182.064 1.07617C184.273 0.992839 186.294 1.38867 188.127 2.26367C189.96 3.13867 191.46 4.01367 192.627 4.88867C193.794 5.76367 194.71 6.70117 195.377 7.70117C196.085 8.65951 196.585 9.68034 196.877 10.7637C197.169 11.847 197.335 13.0345 197.377 14.3262C197.335 16.2428 196.877 18.097 196.002 19.8887C195.627 20.6387 195.127 21.4303 194.502 22.2637C193.919 23.0553 193.189 23.8262 192.314 24.5762C191.439 25.3262 190.398 26.0345 189.189 26.7012C188.023 27.3678 186.648 27.9512 185.064 28.4512C186.606 28.9095 187.877 29.4512 188.877 30.0762C189.919 30.7012 190.752 31.2845 191.377 31.8262C192.127 32.4928 192.689 33.1387 193.064 33.7637C193.523 34.6387 193.835 35.3887 194.002 36.0137C194.169 36.6387 194.273 37.2428 194.314 37.8262C194.398 38.3678 194.502 38.9303 194.627 39.5137C194.752 40.097 195.023 40.7637 195.439 41.5137C195.773 42.097 196.169 42.7012 196.627 43.3262C197.044 43.8678 197.523 44.4512 198.064 45.0762C198.648 45.7012 199.356 46.3053 200.189 46.8887C199.023 46.9303 197.939 46.9512 196.939 46.9512C195.981 46.9512 195.148 46.9512 194.439 46.9512C193.606 46.9512 192.814 46.9303 192.064 46.8887C191.314 46.847 190.377 46.8262 189.252 46.8262C188.294 46.8262 187.064 46.8262 185.564 46.8262C184.106 46.8262 182.335 46.847 180.252 46.8887C181.169 46.1803 181.919 45.472 182.502 44.7637C183.085 44.0553 183.544 43.4095 183.877 42.8262C184.252 42.1595 184.523 41.5137 184.689 40.8887C184.898 39.7637 184.919 38.597 184.752 37.3887C184.627 36.347 184.294 35.2012 183.752 33.9512C183.21 32.6595 182.335 31.3678 181.127 30.0762C179.919 30.2845 178.898 30.4512 178.064 30.5762C177.273 30.6595 176.585 30.7428 176.002 30.8262C175.335 30.9095 174.794 30.972 174.377 31.0137C174.002 31.0553 173.585 31.097 173.127 31.1387C172.752 31.1803 172.335 31.2428 171.877 31.3262C171.46 31.3678 171.064 31.4303 170.689 31.5137C170.606 33.3053 170.606 34.8678 170.689 36.2012C170.773 37.4928 170.877 38.5762 171.002 39.4512C171.169 40.4928 171.356 41.3887 171.564 42.1387C171.773 42.8887 172.064 43.6178 172.439 44.3262C172.731 44.9095 173.106 45.5345 173.564 46.2012C174.023 46.8262 174.544 47.347 175.127 47.7637C174.044 47.7637 173.002 47.7637 172.002 47.7637C171.044 47.7637 170.169 47.7428 169.377 47.7012C168.46 47.7012 167.585 47.6803 166.752 47.6387C165.919 47.597 164.981 47.5762 163.939 47.5762C163.064 47.5762 162.023 47.5762 160.814 47.5762C159.648 47.5762 158.377 47.597 157.002 47.6387C158.085 46.5137 158.939 45.5553 159.564 44.7637C160.189 43.972 160.669 43.3053 161.002 42.7637C161.377 42.1803 161.606 41.6803 161.689 41.2637C161.773 40.597 161.835 39.4095 161.877 37.7012C161.96 35.9512 162.023 33.9512 162.064 31.7012C162.106 29.4512 162.127 27.097 162.127 24.6387C162.127 22.1803 162.106 19.8887 162.064 17.7637C162.023 15.597 161.981 13.7428 161.939 12.2012C161.898 10.6595 161.856 9.68034 161.814 9.26367C161.689 8.51367 161.419 7.76367 161.002 7.01367C160.669 6.34701 160.189 5.59701 159.564 4.76367C158.939 3.93034 158.085 3.09701 157.002 2.26367ZM180.627 24.2637C181.044 24.0137 181.398 23.7637 181.689 23.5137C181.981 23.2637 182.231 22.8678 182.439 22.3262C182.648 21.7428 182.814 20.9303 182.939 19.8887C183.106 18.847 183.294 17.4303 183.502 15.6387C183.669 13.847 183.544 12.3678 183.127 11.2012C182.752 10.0345 182.231 9.11784 181.564 8.45117C180.939 7.74284 180.231 7.26367 179.439 7.01367C178.689 6.72201 178.023 6.57617 177.439 6.57617C176.273 6.57617 175.127 6.93034 174.002 7.63867C172.877 8.34701 172.023 9.30534 171.439 10.5137C171.231 11.0553 171.044 11.9512 170.877 13.2012C170.752 14.2845 170.669 15.7845 170.627 17.7012C170.585 19.6178 170.648 22.1387 170.814 25.2637C172.398 25.5137 173.794 25.6178 175.002 25.5762C176.21 25.4928 177.231 25.347 178.064 25.1387C179.064 24.9303 179.919 24.6387 180.627 24.2637Z" fill="white"/>
</svg>
